<svg width="270" height="295" viewBox="0 0 270 295" fill="none" xmlns="http://www.w3.org/2000/svg">
<path d="M145.881 269.629L145.172 268.924L145.881 269.629ZM1.7094 268.663C1.17619 268.807 0.860575 269.356 1.00446 269.889L3.34915 278.579C3.49301 279.112 4.04191 279.427 4.57512 279.284C5.10834 279.14 5.42395 278.591 5.28009 278.058L3.19593 270.334L10.9197 268.25C11.4529 268.106 11.7685 267.557 11.6246 267.024C11.4807 266.49 10.9318 266.175 10.3986 266.319L1.7094 268.663ZM145.172 268.924C119.36 294.879 83.8257 294.949 54.5109 288.395C39.8746 285.123 26.8568 280.212 17.4946 276.116C12.815 274.069 9.05271 272.227 6.46271 270.898C5.1678 270.234 4.16619 269.698 3.48978 269.329C3.1516 269.145 2.8947 269.002 2.72314 268.906C2.63736 268.858 2.57293 268.821 2.53029 268.797C2.50898 268.785 2.49314 268.776 2.48279 268.77C2.47763 268.767 2.47385 268.765 2.47145 268.764C2.47025 268.763 2.46947 268.763 2.46887 268.762C2.46848 268.762 2.46842 268.762 1.96993 269.629C1.47145 270.496 1.47211 270.496 1.47307 270.497C1.47388 270.497 1.4752 270.498 1.47679 270.499C1.47997 270.501 1.48453 270.503 1.49047 270.507C1.50238 270.513 1.51978 270.523 1.54268 270.536C1.58847 270.562 1.65614 270.601 1.7452 270.651C1.9233 270.75 2.18693 270.897 2.5321 271.085C3.22242 271.462 4.23898 272.005 5.54985 272.678C8.17139 274.023 11.971 275.883 16.693 277.948C26.1338 282.078 39.2773 287.039 54.0745 290.347C83.6267 296.954 120.048 297.024 146.59 270.334L145.172 268.924ZM193.401 1.21517C192.616 1.83554 192.617 1.83607 192.618 1.83729C192.619 1.83858 192.62 1.84049 192.622 1.84308C192.626 1.84828 192.633 1.85616 192.641 1.86668C192.658 1.88777 192.683 1.91947 192.716 1.96167C192.782 2.04603 192.881 2.17224 193.011 2.33899C193.272 2.67245 193.658 3.16798 194.157 3.81477C195.155 5.10832 196.607 7.0068 198.419 9.42375C202.043 14.2578 207.108 21.165 212.867 29.4538C224.389 46.0368 238.674 68.1275 249.765 90.2019C260.883 112.329 268.69 134.245 267.475 150.548C266.871 158.652 264.046 165.281 258.365 169.906C252.661 174.549 243.934 177.29 231.29 177.29L231.29 179.29C244.189 179.29 253.435 176.498 259.627 171.457C265.842 166.398 268.837 159.194 269.47 150.697C270.729 133.798 262.678 111.446 251.552 89.3039C240.4 67.1094 226.056 44.9313 214.51 28.3126C208.735 20.0006 203.655 13.0738 200.019 8.22401C198.201 5.79906 196.744 3.89317 195.74 2.59286C195.239 1.94269 194.85 1.44392 194.587 1.1073C194.456 0.938985 194.355 0.811238 194.288 0.72538C194.254 0.682452 194.228 0.649973 194.211 0.628162C194.203 0.617273 194.196 0.609012 194.192 0.603442C194.19 0.600657 194.188 0.598498 194.187 0.59712C194.186 0.595619 194.185 0.594805 193.401 1.21517ZM231.29 177.29C205.656 177.29 188.791 181.549 177.592 188.419C166.352 195.315 160.924 204.776 158.036 214.911C155.17 224.971 154.784 235.822 153.681 245.371C152.565 255.033 150.723 263.342 145.172 268.924L146.59 270.334C152.673 264.217 154.552 255.259 155.668 245.601C156.797 235.831 157.153 225.31 159.959 215.459C162.744 205.685 167.921 196.699 178.638 190.124C189.395 183.525 205.84 179.29 231.29 179.29L231.29 177.29Z" fill="black"/>
</svg>
