<svg width="270" height="294" viewBox="0 0 270 294" fill="none" xmlns="http://www.w3.org/2000/svg">
<path d="M145.887 269.432L145.178 268.727L145.887 269.432ZM1.71532 268.466C1.18211 268.61 0.866495 269.159 1.01038 269.692L3.35507 278.381C3.49893 278.915 4.04783 279.23 4.58105 279.086C5.11426 278.943 5.42987 278.394 5.28601 277.86L3.20185 270.137L10.9256 268.053C11.4588 267.909 11.7744 267.36 11.6305 266.827C11.4867 266.293 10.9378 265.978 10.4045 266.122L1.71532 268.466ZM145.178 268.727C119.366 294.682 83.8317 294.752 54.5168 288.198C39.8806 284.926 26.8627 280.015 17.5005 275.919C12.821 273.872 9.05863 272.03 6.46863 270.701C5.17372 270.037 4.17211 269.501 3.4957 269.132C3.15752 268.948 2.90062 268.805 2.72906 268.709C2.64328 268.661 2.57885 268.624 2.53621 268.6C2.5149 268.588 2.49906 268.579 2.48871 268.573C2.48355 268.57 2.47977 268.568 2.47737 268.567C2.47617 268.566 2.47539 268.565 2.47479 268.565C2.4744 268.565 2.47434 268.565 1.97585 269.432C1.47737 270.299 1.47803 270.299 1.47899 270.3C1.4798 270.3 1.48112 270.301 1.48271 270.302C1.48589 270.304 1.49045 270.306 1.49639 270.31C1.5083 270.316 1.5257 270.326 1.5486 270.339C1.59439 270.365 1.66206 270.404 1.75112 270.453C1.92922 270.553 2.19285 270.7 2.53802 270.888C3.22834 271.265 4.2449 271.808 5.55577 272.481C8.17731 273.826 11.9769 275.685 16.6989 277.751C26.1397 281.881 39.2832 286.841 54.0805 290.15C83.6326 296.757 120.054 296.827 146.596 270.137L145.178 268.727ZM193.407 1.01809C192.622 1.63846 192.623 1.63899 192.624 1.64021C192.625 1.6415 192.626 1.6434 192.628 1.646C192.632 1.6512 192.639 1.65908 192.647 1.6696C192.663 1.69069 192.688 1.72238 192.722 1.76459C192.788 1.84895 192.887 1.97516 193.017 2.14191C193.278 2.47537 193.664 2.97089 194.163 3.61768C195.161 4.91123 196.613 6.80972 198.425 9.22666C202.049 14.0607 207.114 20.9679 212.873 29.2567C224.395 45.8397 238.68 67.9304 249.771 90.0048C260.889 112.132 268.696 134.048 267.481 150.351C266.877 158.455 264.052 165.084 258.371 169.709C252.666 174.352 243.939 177.093 231.296 177.093L231.296 179.093C244.195 179.093 253.441 176.301 259.633 171.26C265.848 166.201 268.843 158.997 269.476 150.5C270.735 133.601 262.684 111.249 251.558 89.1068C240.406 66.9123 226.062 44.7342 214.516 28.1155C208.74 19.8035 203.661 12.8767 200.025 8.02693C198.207 5.60198 196.75 3.69608 195.746 2.39578C195.244 1.74561 194.856 1.24683 194.593 0.910213C194.462 0.741903 194.361 0.614155 194.294 0.528298C194.26 0.485369 194.234 0.45289 194.217 0.43108C194.209 0.42019 194.202 0.411929 194.198 0.406359C194.195 0.403574 194.194 0.401415 194.193 0.400038C194.192 0.398536 194.191 0.397723 193.407 1.01809ZM231.296 177.093C205.662 177.093 188.797 181.352 177.598 188.222C166.357 195.118 160.93 204.579 158.042 214.714C155.176 224.774 154.79 235.625 153.687 245.174C152.571 254.835 150.729 263.145 145.178 268.727L146.596 270.137C152.679 264.02 154.558 255.062 155.674 245.404C156.803 235.634 157.159 225.113 159.965 215.262C162.75 205.488 167.927 196.501 178.643 189.927C189.401 183.328 205.846 179.093 231.296 179.093L231.296 177.093Z" fill="black"/>
</svg>
