<svg width="31" height="31" viewBox="0 0 31 31" fill="none" xmlns="http://www.w3.org/2000/svg">
<path d="M23.7812 8.53101H7.84375C7.30528 8.53183 6.78911 8.7461 6.40835 9.12686C6.0276 9.50761 5.81333 10.0238 5.8125 10.5623V20.5623C5.81333 21.1007 6.0276 21.6169 6.40835 21.9977C6.78911 22.3784 7.30528 22.5927 7.84375 22.5935H23.7812C24.3197 22.5927 24.8359 22.3784 25.2166 21.9977C25.5974 21.6169 25.8117 21.1007 25.8125 20.5623V10.5623C25.8117 10.0238 25.5974 9.50761 25.2166 9.12686C24.8359 8.7461 24.3197 8.53183 23.7812 8.53101ZM7.84375 8.84351H23.7812C24.2368 8.84433 24.6735 9.02568 24.9957 9.34783C25.3178 9.66998 25.4992 10.1067 25.5 10.5623V11.656H6.125V10.5623C6.12583 10.1067 6.30717 9.66998 6.62932 9.34783C6.95147 9.02568 7.38816 8.84433 7.84375 8.84351ZM25.5 16.9685H6.125V11.9685H25.5V16.9685ZM23.7812 22.281H7.84375C7.38816 22.2802 6.95147 22.0988 6.62932 21.7767C6.30717 21.4545 6.12583 21.0178 6.125 20.5623V17.281H25.5V20.5623C25.4992 21.0178 25.3178 21.4545 24.9957 21.7767C24.6735 22.0988 24.2368 22.2802 23.7812 22.281Z" fill="black"/>
<path d="M20.8125 18.531C20.5276 18.533 20.252 18.6322 20.0313 18.8123C19.848 18.6628 19.6261 18.5684 19.3914 18.54C19.1567 18.5117 18.9187 18.5504 18.7051 18.6519C18.4915 18.7533 18.3111 18.9132 18.1847 19.1131C18.0584 19.313 17.9913 19.5446 17.9913 19.781C17.9913 20.0175 18.0584 20.2491 18.1847 20.4489C18.3111 20.6488 18.4915 20.8087 18.7051 20.9102C18.9187 21.0116 19.1567 21.0504 19.3914 21.022C19.6261 20.9936 19.848 20.8992 20.0313 20.7498C20.1867 20.8765 20.3704 20.964 20.5667 21.0048C20.7631 21.0456 20.9664 21.0386 21.1595 20.9843C21.3526 20.93 21.5298 20.8301 21.6761 20.6929C21.8224 20.5557 21.9336 20.3853 22.0002 20.1961C22.0668 20.0069 22.0869 19.8045 22.0588 19.6059C22.0308 19.4073 21.9553 19.2184 21.8388 19.0551C21.7223 18.8918 21.5683 18.7589 21.3897 18.6677C21.211 18.5765 21.0131 18.5296 20.8125 18.531ZM20.0313 20.2966C19.9304 20.1436 19.8767 19.9643 19.8767 19.781C19.8767 19.5977 19.9304 19.4185 20.0313 19.2654C20.1321 19.4185 20.1858 19.5977 20.1858 19.781C20.1858 19.9643 20.1321 20.1436 20.0313 20.2966ZM18.3125 19.781C18.3125 19.5324 18.4113 19.2939 18.5871 19.1181C18.7629 18.9423 19.0014 18.8435 19.25 18.8435C19.4536 18.8453 19.651 18.9133 19.8125 19.0373C19.6503 19.2513 19.5625 19.5125 19.5625 19.781C19.5625 20.0496 19.6503 20.3107 19.8125 20.5248C19.651 20.6487 19.4536 20.7167 19.25 20.7185C19.0014 20.7185 18.7629 20.6197 18.5871 20.4439C18.4113 20.2681 18.3125 20.0296 18.3125 19.781ZM20.8125 20.7185C20.6089 20.7167 20.4115 20.6487 20.25 20.5248C20.4122 20.3107 20.5 20.0496 20.5 19.781C20.5 19.5125 20.4122 19.2513 20.25 19.0373C20.4115 18.9133 20.6089 18.8453 20.8125 18.8435C21.0611 18.8435 21.2996 18.9423 21.4754 19.1181C21.6512 19.2939 21.75 19.5324 21.75 19.781C21.75 20.0296 21.6512 20.2681 21.4754 20.4439C21.2996 20.6197 21.0611 20.7185 20.8125 20.7185Z" fill="black"/>
<path d="M10.3438 19.156H7.53125C7.48981 19.156 7.45007 19.1725 7.42076 19.2018C7.39146 19.2311 7.375 19.2708 7.375 19.3123C7.375 19.3537 7.39146 19.3934 7.42076 19.4227C7.45007 19.452 7.48981 19.4685 7.53125 19.4685H10.3438C10.3852 19.4685 10.4249 19.452 10.4542 19.4227C10.4835 19.3934 10.5 19.3537 10.5 19.3123C10.5 19.2708 10.4835 19.2311 10.4542 19.2018C10.4249 19.1725 10.3852 19.156 10.3438 19.156Z" fill="black"/>
<path d="M8.46875 20.0935H7.53125C7.48981 20.0935 7.45007 20.11 7.42076 20.1393C7.39146 20.1686 7.375 20.2083 7.375 20.2498C7.375 20.2912 7.39146 20.3309 7.42076 20.3602C7.45007 20.3895 7.48981 20.406 7.53125 20.406H8.46875C8.51019 20.406 8.54993 20.3895 8.57924 20.3602C8.60854 20.3309 8.625 20.2912 8.625 20.2498C8.625 20.2083 8.60854 20.1686 8.57924 20.1393C8.54993 20.11 8.51019 20.0935 8.46875 20.0935Z" fill="black"/>
<path d="M10.3438 20.0935H9.40625C9.36481 20.0935 9.32507 20.11 9.29576 20.1393C9.26646 20.1686 9.25 20.2083 9.25 20.2498C9.25 20.2912 9.26646 20.3309 9.29576 20.3602C9.32507 20.3895 9.36481 20.406 9.40625 20.406H10.3438C10.3852 20.406 10.4249 20.3895 10.4542 20.3602C10.4835 20.3309 10.5 20.2912 10.5 20.2498C10.5 20.2083 10.4835 20.1686 10.4542 20.1393C10.4249 20.11 10.3852 20.0935 10.3438 20.0935Z" fill="black"/>
</svg>
