<svg width="31" height="31" viewBox="0 0 31 31" fill="none" xmlns="http://www.w3.org/2000/svg">
<path d="M23.7734 8.72803H7.83594C7.29747 8.72885 6.78129 8.94313 6.40054 9.32388C6.01979 9.70463 5.80551 10.2208 5.80469 10.7593V20.7593C5.80551 21.2977 6.01979 21.8139 6.40054 22.1947C6.78129 22.5754 7.29747 22.7897 7.83594 22.7905H23.7734C24.3119 22.7897 24.8281 22.5754 25.2088 22.1947C25.5896 21.8139 25.8039 21.2977 25.8047 20.7593V10.7593C25.8039 10.2208 25.5896 9.70463 25.2088 9.32388C24.8281 8.94313 24.3119 8.72885 23.7734 8.72803ZM7.83594 9.04053H23.7734C24.229 9.04135 24.6657 9.2227 24.9879 9.54485C25.31 9.867 25.4914 10.3037 25.4922 10.7593V11.853H6.11719V10.7593C6.11801 10.3037 6.29936 9.867 6.62151 9.54485C6.94366 9.2227 7.38035 9.04135 7.83594 9.04053ZM25.4922 17.1655H6.11719V12.1655H25.4922V17.1655ZM23.7734 22.478H7.83594C7.38035 22.4772 6.94366 22.2959 6.62151 21.9737C6.29936 21.6516 6.11801 21.2149 6.11719 20.7593V17.478H25.4922V20.7593C25.4914 21.2149 25.31 21.6516 24.9879 21.9737C24.6657 22.2959 24.229 22.4772 23.7734 22.478Z" fill="black"/>
<path d="M20.8056 18.7281C20.5207 18.73 20.2451 18.8293 20.0243 19.0093C19.8411 18.8599 19.6192 18.7655 19.3845 18.7371C19.1497 18.7087 18.9117 18.7475 18.6982 18.8489C18.4846 18.9503 18.3041 19.1103 18.1778 19.3101C18.0514 19.51 17.9844 19.7416 17.9844 19.9781C17.9844 20.2145 18.0514 20.4461 18.1778 20.646C18.3041 20.8458 18.4846 21.0058 18.6982 21.1072C18.9117 21.2086 19.1497 21.2474 19.3845 21.219C19.6192 21.1906 19.8411 21.0962 20.0243 20.9468C20.1798 21.0736 20.3634 21.161 20.5598 21.2019C20.7562 21.2427 20.9595 21.2357 21.1526 21.1814C21.3457 21.1271 21.5229 21.0271 21.6692 20.8899C21.8155 20.7528 21.9267 20.5824 21.9933 20.3932C22.0599 20.204 22.08 20.0016 22.0519 19.803C22.0238 19.6044 21.9484 19.4154 21.8319 19.2522C21.7154 19.0889 21.5614 18.956 21.3827 18.8648C21.2041 18.7736 21.0061 18.7267 20.8056 18.7281ZM20.0243 20.4937C19.9235 20.3406 19.8698 20.1613 19.8698 19.9781C19.8698 19.7948 19.9235 19.6155 20.0243 19.4624C20.1251 19.6155 20.1789 19.7948 20.1789 19.9781C20.1789 20.1613 20.1251 20.3406 20.0243 20.4937ZM18.3056 19.9781C18.3056 19.7294 18.4043 19.491 18.5802 19.3151C18.756 19.1393 18.9944 19.0406 19.2431 19.0406C19.4466 19.0424 19.6441 19.1104 19.8056 19.2343C19.6434 19.4483 19.5556 19.7095 19.5556 19.9781C19.5556 20.2466 19.6434 20.5078 19.8056 20.7218C19.6441 20.8457 19.4466 20.9138 19.2431 20.9156C18.9944 20.9156 18.756 20.8168 18.5802 20.641C18.4043 20.4652 18.3056 20.2267 18.3056 19.9781ZM20.8056 20.9156C20.602 20.9138 20.4046 20.8457 20.2431 20.7218C20.4053 20.5078 20.4931 20.2466 20.4931 19.9781C20.4931 19.7095 20.4053 19.4483 20.2431 19.2343C20.4046 19.1104 20.602 19.0424 20.8056 19.0406C21.0542 19.0406 21.2927 19.1393 21.4685 19.3151C21.6443 19.491 21.7431 19.7294 21.7431 19.9781C21.7431 20.2267 21.6443 20.4652 21.4685 20.641C21.2927 20.8168 21.0542 20.9156 20.8056 20.9156Z" fill="black"/>
<path d="M10.3359 19.353H7.52344C7.482 19.353 7.44225 19.3695 7.41295 19.3988C7.38365 19.4281 7.36719 19.4678 7.36719 19.5093C7.36719 19.5507 7.38365 19.5905 7.41295 19.6198C7.44225 19.6491 7.482 19.6655 7.52344 19.6655H10.3359C10.3774 19.6655 10.4171 19.6491 10.4464 19.6198C10.4757 19.5905 10.4922 19.5507 10.4922 19.5093C10.4922 19.4678 10.4757 19.4281 10.4464 19.3988C10.4171 19.3695 10.3774 19.353 10.3359 19.353Z" fill="black"/>
<path d="M8.46094 20.2905H7.52344C7.482 20.2905 7.44225 20.307 7.41295 20.3363C7.38365 20.3656 7.36719 20.4053 7.36719 20.4468C7.36719 20.4882 7.38365 20.528 7.41295 20.5573C7.44225 20.5866 7.482 20.603 7.52344 20.603H8.46094C8.50238 20.603 8.54212 20.5866 8.57142 20.5573C8.60073 20.528 8.61719 20.4882 8.61719 20.4468C8.61719 20.4053 8.60073 20.3656 8.57142 20.3363C8.54212 20.307 8.50238 20.2905 8.46094 20.2905Z" fill="black"/>
<path d="M10.3359 20.2905H9.39844C9.357 20.2905 9.31725 20.307 9.28795 20.3363C9.25865 20.3656 9.24219 20.4053 9.24219 20.4468C9.24219 20.4882 9.25865 20.528 9.28795 20.5573C9.31725 20.5866 9.357 20.603 9.39844 20.603H10.3359C10.3774 20.603 10.4171 20.5866 10.4464 20.5573C10.4757 20.528 10.4922 20.4882 10.4922 20.4468C10.4922 20.4053 10.4757 20.3656 10.4464 20.3363C10.4171 20.307 10.3774 20.2905 10.3359 20.2905Z" fill="black"/>
</svg>
