<svg width="36" height="37" viewBox="0 0 36 37" fill="none" xmlns="http://www.w3.org/2000/svg">
<path d="M13.3125 24.5537C14.5526 25.4992 16.0609 26.0537 17.6875 26.0537C19.3141 26.0537 20.8223 25.4992 22.0625 24.5537" stroke="black" stroke-width="2.75" stroke-linecap="round"/>
<path d="M22.0618 18.5537C22.8673 18.5537 23.5202 17.5464 23.5202 16.3037C23.5202 15.0611 22.8673 14.0537 22.0618 14.0537C21.2564 14.0537 20.6035 15.0611 20.6035 16.3037C20.6035 17.5464 21.2564 18.5537 22.0618 18.5537Z" fill="black"/>
<path d="M13.3118 18.5537C14.1173 18.5537 14.7702 17.5464 14.7702 16.3037C14.7702 15.0611 14.1173 14.0537 13.3118 14.0537C12.5064 14.0537 11.8535 15.0611 11.8535 16.3037C11.8535 17.5464 12.5064 18.5537 13.3118 18.5537Z" fill="black"/>
<path d="M3.39648 15.554C4.5564 9.67653 9.05741 5.04697 14.7716 3.854" stroke="black" stroke-width="2.75" stroke-linecap="round"/>
<path d="M3.39648 21.5537C4.5564 27.4312 9.05741 32.0608 14.7716 33.2537" stroke="black" stroke-width="2.75" stroke-linecap="round"/>
<path d="M31.9787 15.554C30.8187 9.67653 26.3177 5.04697 20.6035 3.854" stroke="black" stroke-width="2.75" stroke-linecap="round"/>
<path d="M31.9787 21.5537C30.8187 27.4312 26.3177 32.0608 20.6035 33.2537" stroke="black" stroke-width="2.75" stroke-linecap="round"/>
</svg>
