<svg width="36" height="37" viewBox="0 0 36 37" fill="none" xmlns="http://www.w3.org/2000/svg">
<path d="M13.3203 24.3567C14.5605 25.3021 16.0687 25.8567 17.6953 25.8567C19.3219 25.8567 20.8301 25.3021 22.0703 24.3567" stroke="black" stroke-width="2.75" stroke-linecap="round"/>
<path d="M22.0703 18.3567C22.8757 18.3567 23.5286 17.3493 23.5286 16.1067C23.5286 14.864 22.8757 13.8567 22.0703 13.8567C21.2649 13.8567 20.612 14.864 20.612 16.1067C20.612 17.3493 21.2649 18.3567 22.0703 18.3567Z" fill="black"/>
<path d="M13.3203 18.3567C14.1257 18.3567 14.7787 17.3493 14.7787 16.1067C14.7787 14.864 14.1257 13.8567 13.3203 13.8567C12.5149 13.8567 11.862 14.864 11.862 16.1067C11.862 17.3493 12.5149 18.3567 13.3203 18.3567Z" fill="black"/>
<path d="M3.40394 15.357C4.56385 9.4795 9.06487 4.84995 14.7791 3.65698" stroke="black" stroke-width="2.75" stroke-linecap="round"/>
<path d="M3.40394 21.3567C4.56385 27.2341 9.06487 31.8637 14.7791 33.0567" stroke="black" stroke-width="2.75" stroke-linecap="round"/>
<path d="M31.9871 15.357C30.8272 9.4795 26.3262 4.84995 20.612 3.65698" stroke="black" stroke-width="2.75" stroke-linecap="round"/>
<path d="M31.9871 21.3567C30.8272 27.2341 26.3262 31.8637 20.612 33.0567" stroke="black" stroke-width="2.75" stroke-linecap="round"/>
</svg>
