<svg width="30" height="34" viewBox="0 0 30 34" fill="none" xmlns="http://www.w3.org/2000/svg">
<g clip-path="url(#clip0_1011_737)">
<path d="M21.6513 22.2788C25.2052 20.1322 27.8995 18.4966 28.1317 18.3695C28.8746 17.9348 29.6418 16.7847 28.1317 15.8912C27.6441 15.6104 25.0192 14.0255 21.6513 11.9819L16.9824 17.1685L21.6513 22.2788Z" fill="#FFD900"/>
<path d="M16.9833 17.1685L2.11719 33.6495C2.46611 33.7004 2.86009 33.5987 3.32455 33.3178C4.29968 32.7307 14.6367 26.521 21.6521 22.28L16.9833 17.1685Z" fill="#F43249"/>
<path d="M16.983 17.1683L21.6518 12.0072C21.6518 12.0072 4.36982 1.63282 3.32422 1.02025C2.93024 0.763524 2.48889 0.68727 2.09375 0.763524L16.983 17.1683Z" fill="#00EE76"/>
<path d="M16.9827 17.1685L2.09344 0.763672C1.48919 0.917451 0.978516 1.50461 0.978516 2.70561C0.978516 4.62214 0.978516 30.1228 0.978516 31.7076C0.978516 32.807 1.37365 33.5987 2.11655 33.675L16.9827 17.1685Z" fill="#00D3FF"/>
</g>
<defs>
<clipPath id="clip0_1011_737">
<rect width="30" height="33" fill="white" transform="translate(-0.0078125 0.735352)"/>
</clipPath>
</defs>
</svg>
