<svg width="30" height="34" viewBox="0 0 30 34" fill="none" xmlns="http://www.w3.org/2000/svg">
<g clip-path="url(#clip0_1_186)">
<path d="M21.6584 22.0816C25.2123 19.9351 27.9066 18.2994 28.1388 18.1724C28.8817 17.7377 29.6489 16.5875 28.1388 15.6941C27.6513 15.4132 25.0263 13.8284 21.6584 11.7848L16.9895 16.9713L21.6584 22.0816Z" fill="#FFD900"/>
<path d="M16.9895 16.9713L2.12344 33.4524C2.47236 33.5032 2.86634 33.4016 3.33079 33.1207C4.30592 32.5335 14.643 26.3239 21.6584 22.0829L16.9895 16.9713Z" fill="#F43249"/>
<path d="M16.9895 16.9713L21.6584 11.8102C21.6584 11.8102 4.3764 1.4358 3.33079 0.823225C2.93681 0.566503 2.49546 0.490249 2.10033 0.566503L16.9895 16.9713Z" fill="#00EE76"/>
<path d="M16.9895 16.9714L2.10033 0.566528C1.49607 0.720308 0.985397 1.30747 0.985397 2.50847C0.985397 4.42499 0.985397 29.9257 0.985397 31.5105C0.985397 32.6098 1.38053 33.4016 2.12343 33.4779L16.9895 16.9714Z" fill="#00D3FF"/>
</g>
<defs>
<clipPath id="clip0_1_186">
<rect width="30" height="33" fill="white" transform="translate(0 0.53833)"/>
</clipPath>
</defs>
</svg>
