<svg width="30" height="31" viewBox="0 0 30 31" fill="none" xmlns="http://www.w3.org/2000/svg">
<path d="M16.2851 3.03931C17.6919 3.04163 18.4047 3.04908 19.0207 3.06742L19.2634 3.07534C19.5436 3.08531 19.8201 3.09781 20.1535 3.11343C21.4836 3.17489 22.391 3.38531 23.1879 3.69468C24.0117 4.01239 24.7076 4.44156 25.4024 5.13636C26.0961 5.83114 26.5254 6.52906 26.8441 7.35093C27.1524 8.14677 27.3629 9.05511 27.4254 10.3853C27.4402 10.7186 27.4522 10.9951 27.4621 11.2754L27.47 11.5181C27.4882 12.134 27.4966 12.847 27.4992 14.2538L27.5002 15.1858C27.5004 15.2996 27.5004 15.4171 27.5004 15.5384L27.5002 15.891L27.4995 16.8231C27.4971 18.2299 27.4897 18.9429 27.4714 19.5588L27.4634 19.8014C27.4535 20.0818 27.441 20.3583 27.4254 20.6915C27.3639 22.0218 27.1524 22.929 26.8441 23.7259C26.5264 24.5499 26.0961 25.2458 25.4024 25.9405C24.7076 26.6343 24.0086 27.0634 23.1879 27.3821C22.391 27.6905 21.4836 27.9009 20.1535 27.9634C19.8201 27.9783 19.5436 27.9904 19.2634 28.0001L19.0207 28.008C18.4047 28.0264 17.6919 28.0346 16.2851 28.0374L15.353 28.0384C15.2391 28.0384 15.1216 28.0384 15.0004 28.0384H14.6477L13.7156 28.0375C12.3089 28.0353 11.5959 28.0278 10.98 28.0094L10.7374 28.0015C10.457 27.9915 10.1805 27.979 9.84722 27.9634C8.51701 27.902 7.61076 27.6905 6.81285 27.3821C5.98992 27.0645 5.29305 26.6343 4.59826 25.9405C3.90347 25.2458 3.47535 24.5468 3.1566 23.7259C2.84722 22.929 2.63785 22.0218 2.57535 20.6915C2.5605 20.3583 2.54838 20.0818 2.53857 19.8014L2.53071 19.5588C2.51242 18.9429 2.50408 18.2299 2.50138 16.8231L2.50122 14.2538C2.50355 12.847 2.51098 12.134 2.52932 11.5181L2.53726 11.2754C2.54722 10.9951 2.55972 10.7186 2.57535 10.3853C2.6368 9.05406 2.84722 8.14781 3.1566 7.35093C3.4743 6.52802 3.90347 5.83114 4.59826 5.13636C5.29305 4.44156 5.99097 4.01343 6.81285 3.69468C7.60972 3.38531 8.51597 3.17593 9.84722 3.11343C10.1805 3.09859 10.457 3.08648 10.7374 3.07667L10.98 3.06881C11.5959 3.05051 12.3089 3.04217 13.7156 3.03947L16.2851 3.03931ZM15.0004 9.28843C11.5467 9.28843 8.75035 12.0878 8.75035 15.5384C8.75035 18.992 11.5498 21.7884 15.0004 21.7884C18.454 21.7884 21.2504 18.989 21.2504 15.5384C21.2504 12.0848 18.4509 9.28843 15.0004 9.28843ZM15.0004 11.7884C17.0715 11.7884 18.7504 13.4668 18.7504 15.5384C18.7504 17.6095 17.072 19.2884 15.0004 19.2884C12.9292 19.2884 11.2503 17.6101 11.2503 15.5384C11.2503 13.4673 12.9286 11.7884 15.0004 11.7884ZM21.5629 7.41343C20.7012 7.41343 20.0004 8.11332 20.0004 8.97487C20.0004 9.83643 20.7002 10.5374 21.5629 10.5374C22.4244 10.5374 23.1254 9.83752 23.1254 8.97487C23.1254 8.11332 22.4232 7.41236 21.5629 7.41343Z" fill="white"/>
</svg>
