<svg width="30" height="31" viewBox="0 0 30 31" fill="none" xmlns="http://www.w3.org/2000/svg">
<path d="M16.278 3.23633C17.6848 3.23865 18.3977 3.2461 19.0137 3.26444L19.2563 3.27237C19.5365 3.28233 19.813 3.29483 20.1464 3.31045C21.4765 3.37192 22.3839 3.58233 23.1808 3.8917C24.0047 4.20942 24.7005 4.63858 25.3953 5.33338C26.089 6.02817 26.5183 6.72608 26.837 7.54795C27.1453 8.34379 27.3558 9.25213 27.4183 10.5823C27.4332 10.9157 27.4452 11.1922 27.455 11.4725L27.4629 11.7151C27.4812 12.331 27.4895 13.044 27.4922 14.4508L27.4932 15.3828C27.4933 15.4967 27.4933 15.6142 27.4933 15.7354L27.4932 16.088L27.4924 17.0202C27.49 18.4269 27.4827 19.1399 27.4643 19.7558L27.4563 19.9984C27.4464 20.2788 27.4339 20.5553 27.4183 20.8885C27.3568 22.2188 27.1453 23.126 26.837 23.9229C26.5193 24.7469 26.089 25.4428 25.3953 26.1375C24.7005 26.8313 24.0015 27.2604 23.1808 27.5792C22.3839 27.8875 21.4765 28.0979 20.1464 28.1604C19.813 28.1753 19.5365 28.1874 19.2563 28.1972L19.0137 28.205C18.3977 28.2234 17.6848 28.2317 16.278 28.2344L15.3459 28.2354C15.232 28.2354 15.1145 28.2354 14.9933 28.2354H14.6407L13.7085 28.2345C12.3018 28.2323 11.5888 28.2248 10.9729 28.2064L10.7303 28.1985C10.45 28.1885 10.1735 28.176 9.84014 28.1604C8.50993 28.099 7.60368 27.8875 6.80577 27.5792C5.98284 27.2615 5.28597 26.8313 4.59118 26.1375C3.89639 25.4428 3.46827 24.7438 3.14952 23.9229C2.84014 23.126 2.63077 22.2188 2.56827 20.8885C2.55342 20.5553 2.5413 20.2788 2.53149 19.9984L2.52363 19.7558C2.50534 19.1399 2.497 18.4269 2.4943 17.0202L2.49414 14.4508C2.49647 13.044 2.5039 12.331 2.52224 11.7151L2.53018 11.4725C2.54014 11.1922 2.55264 10.9157 2.56827 10.5823C2.62972 9.25108 2.84014 8.34483 3.14952 7.54795C3.46722 6.72504 3.89639 6.02817 4.59118 5.33338C5.28597 4.63858 5.98389 4.21045 6.80577 3.8917C7.60264 3.58233 8.50889 3.37295 9.84014 3.31045C10.1735 3.29562 10.45 3.2835 10.7303 3.27369L10.9729 3.26583C11.5888 3.24753 12.3018 3.23919 13.7085 3.23649L16.278 3.23633ZM14.9933 9.48545C11.5396 9.48545 8.74327 12.2849 8.74327 15.7354C8.74327 19.189 11.5427 21.9854 14.9933 21.9854C18.4469 21.9854 21.2433 19.186 21.2433 15.7354C21.2433 12.2818 18.4438 9.48545 14.9933 9.48545ZM14.9933 11.9855C17.0644 11.9855 18.7433 13.6638 18.7433 15.7354C18.7433 17.8065 17.0649 19.4854 14.9933 19.4854C12.9222 19.4854 11.2433 17.8072 11.2433 15.7354C11.2433 13.6643 12.9215 11.9855 14.9933 11.9855ZM21.5558 7.61045C20.6942 7.61045 19.9933 8.31034 19.9933 9.17189C19.9933 10.0335 20.6932 10.7344 21.5558 10.7344C22.4173 10.7344 23.1183 10.0345 23.1183 9.17189C23.1183 8.31034 22.4162 7.60938 21.5558 7.61045Z" fill="white"/>
</svg>
