<svg width="51" height="51" viewBox="0 0 51 51" fill="none" xmlns="http://www.w3.org/2000/svg">
<path fill-rule="evenodd" clip-rule="evenodd" d="M9.6843 12.3144C7.48761 14.5111 7.48761 18.0466 7.48761 25.1177C7.48761 32.1887 7.48761 35.7244 9.6843 37.9209C11.881 40.1177 15.4165 40.1177 22.4876 40.1177H29.9876C37.0586 40.1177 40.5943 40.1177 42.7909 37.9209C44.9876 35.7244 44.9876 32.1887 44.9876 25.1177C44.9876 18.0466 44.9876 14.5111 42.7909 12.3144C40.5943 10.1177 37.0586 10.1177 29.9876 10.1177H22.4876C15.4165 10.1177 11.881 10.1177 9.6843 12.3144ZM38.568 16.7174C39.065 17.3141 38.9844 18.2008 38.3878 18.698L34.2695 22.1301C32.6075 23.5149 31.2605 24.6375 30.0716 25.4021C28.8332 26.1986 27.6272 26.7019 26.2376 26.7019C24.848 26.7019 23.642 26.1986 22.4036 25.4021C21.2147 24.6375 19.8677 23.5149 18.2058 22.1301L14.0873 18.698C13.4907 18.2008 13.4101 17.3141 13.9073 16.7174C14.4045 16.1208 15.2912 16.0402 15.8879 16.5374L19.9358 19.9106C21.6851 21.3684 22.8995 22.3772 23.925 23.0366C24.9174 23.6751 25.5905 23.8894 26.2376 23.8894C26.8847 23.8894 27.5578 23.6751 28.5502 23.0366C29.5757 22.3772 30.7901 21.3684 32.5395 19.9106L36.5874 16.5374C37.184 16.0402 38.0707 16.1208 38.568 16.7174Z" fill="black"/>
</svg>
