<svg width="51" height="51" viewBox="0 0 51 51" fill="none" xmlns="http://www.w3.org/2000/svg">
<path fill-rule="evenodd" clip-rule="evenodd" d="M9.67716 12.5116C7.48047 14.7083 7.48047 18.2439 7.48047 25.3149C7.48047 32.386 7.48047 35.9216 9.67716 38.1182C11.8739 40.315 15.4094 40.315 22.4805 40.315H29.9805C37.0515 40.315 40.5872 40.315 42.7837 38.1182C44.9805 35.9216 44.9805 32.386 44.9805 25.3149C44.9805 18.2439 44.9805 14.7083 42.7837 12.5116C40.5872 10.3149 37.0515 10.3149 29.9805 10.3149H22.4805C15.4094 10.3149 11.8739 10.3149 9.67716 12.5116ZM38.5608 16.9147C39.0579 17.5113 38.9773 18.3981 38.3807 18.8953L34.2624 22.3273C32.6004 23.7122 31.2534 24.8348 30.0645 25.5994C28.826 26.3959 27.62 26.8991 26.2305 26.8991C24.8409 26.8991 23.6349 26.3959 22.3964 25.5994C21.2076 24.8348 19.8605 23.7122 18.1986 22.3273L14.0802 18.8953C13.4836 18.3981 13.403 17.5113 13.9002 16.9147C14.3974 16.318 15.2841 16.2374 15.8807 16.7346L19.9287 20.1079C21.678 21.5657 22.8924 22.5744 23.9178 23.2339C24.9103 23.8723 25.5834 24.0866 26.2305 24.0866C26.8775 24.0866 27.5507 23.8723 28.5431 23.2339C29.5685 22.5744 30.783 21.5657 32.5323 20.1079L36.5803 16.7346C37.1769 16.2374 38.0636 16.318 38.5608 16.9147Z" fill="black"/>
</svg>
