<svg width="30" height="31" viewBox="0 0 30 31" fill="none" xmlns="http://www.w3.org/2000/svg">
<path d="M8.66803 6.98551C8.66757 8.00339 8.05003 8.91937 7.10661 9.30151C6.16318 9.68366 5.08227 9.45566 4.37356 8.72503C3.66484 7.99439 3.46987 6.90703 3.88056 5.97568C4.29126 5.04433 5.22561 4.45497 6.24303 4.48551C7.59437 4.52607 8.66864 5.63356 8.66803 6.98551ZM8.74303 11.3355H3.74303V26.9855H8.74303V11.3355ZM16.6431 11.3355H11.668V26.9855H16.5931V18.773C16.5931 14.198 22.5556 13.773 22.5556 18.773V26.9855H27.4931V17.073C27.4931 9.36051 18.6681 9.64801 16.5931 13.4355L16.6431 11.3355Z" fill="white"/>
</svg>
