<svg width="30" height="31" viewBox="0 0 30 31" fill="none" xmlns="http://www.w3.org/2000/svg">
<path d="M8.6756 6.78824C8.67514 7.80613 8.0576 8.7221 7.11418 9.10424C6.17075 9.48639 5.08984 9.25839 4.38112 8.52777C3.67241 7.79713 3.47744 6.70977 3.88812 5.77842C4.29882 4.84707 5.23317 4.2577 6.2506 4.28824C7.60194 4.3288 8.67621 5.43629 8.6756 6.78824ZM8.7506 11.1382H3.7506V26.7882H8.7506V11.1382ZM16.6506 11.1382H11.6756V26.7882H16.6006V18.5757C16.6006 14.0007 22.5631 13.5757 22.5631 18.5757V26.7882H27.5006V16.8757C27.5006 9.16324 18.6756 9.45074 16.6006 13.2382L16.6506 11.1382Z" fill="white"/>
</svg>
