<svg width="123" height="106" viewBox="0 0 123 106" fill="none" xmlns="http://www.w3.org/2000/svg">
<path d="M50.8839 25.8702C51.0192 25.8699 51.0192 25.8699 51.1576 25.8696C51.2544 25.8697 51.352 25.8698 51.452 25.87C51.5519 25.8699 51.6519 25.8699 51.7549 25.8698C51.9663 25.8697 52.1769 25.8698 52.3883 25.8701C52.6589 25.8705 52.9295 25.8703 53.2032 25.8699C53.4615 25.8696 53.7198 25.8698 53.9796 25.87C54.1257 25.8698 54.1257 25.8698 54.2748 25.8696C54.3648 25.8698 54.4547 25.87 54.547 25.8702C54.6661 25.8703 54.6661 25.8703 54.7876 25.8704C54.9759 25.8786 54.9759 25.8786 55.1297 25.9441C55.2496 25.9533 55.3695 25.9589 55.4895 25.9625C55.5607 25.9649 55.6317 25.9674 55.7055 25.9699C55.7801 25.9721 55.8546 25.9744 55.9315 25.9767C56.0791 25.9812 56.2259 25.986 56.3735 25.991C56.4389 25.993 56.5042 25.995 56.5719 25.997C56.7441 26.0093 56.7441 26.0093 56.9747 26.0747C57.2522 26.0949 57.5305 26.108 57.8049 26.1216C58.0471 26.14 58.0471 26.14 58.2008 26.2052C58.4245 26.2354 58.649 26.2637 58.8735 26.2907C59.4355 26.3619 59.9651 26.4605 60.5109 26.6054C60.74 26.6621 60.9653 26.6981 61.2013 26.7275V26.858H61.6625V26.9886H62.0469V27.1192C62.1024 27.1165 62.1576 27.1138 62.2153 27.111C62.4474 27.1198 62.6058 27.1683 62.8156 27.2494V27.38C62.891 27.388 62.891 27.388 62.9679 27.3961C63.283 27.4627 63.5513 27.5841 63.8365 27.7107C63.8935 27.7354 63.9503 27.76 64.0087 27.7852C64.1487 27.8456 64.2878 27.9066 64.4269 27.9673V28.0979H64.6576V28.2285H64.8882V28.359H65.1188V28.4896H65.2726V28.6202C65.374 28.6417 65.4755 28.6633 65.5801 28.6854V28.816C65.6654 28.8402 65.6654 28.8402 65.753 28.865C65.9821 28.9531 66.1105 29.0452 66.2719 29.2077V29.3383C66.3734 29.3814 66.4749 29.4245 66.5794 29.4689V29.5994H66.7332V29.73H66.8869V29.8606H67.0407V29.9912H67.1944C67.2452 30.0989 67.2959 30.2066 67.3482 30.3176H67.5019C67.5273 30.4038 67.5527 30.4899 67.5788 30.5787H67.7326C67.7833 30.708 67.834 30.8373 67.8863 30.9704H68.0401C68.1523 31.1434 68.1938 31.2244 68.1938 31.4274H68.3476V31.6886H68.5013C69.0256 32.8898 69.3777 34.0715 69.37 35.3576C69.3697 35.4346 69.3694 35.5117 69.369 35.5907C69.3605 36.1528 69.2989 36.6809 69.1515 37.2293C69.1119 37.3795 69.0771 37.5297 69.0423 37.6805C68.907 38.2661 68.7479 38.8295 68.5003 39.3909H68.3466V39.7174H68.1928V40.1091H68.0391V40.4355H67.8853C67.8774 40.4705 67.8695 40.5054 67.8614 40.5413C67.8085 40.6966 67.8085 40.6966 67.6884 40.8879C67.5508 41.1001 67.5508 41.1001 67.5777 41.4141C67.9329 41.4788 68.288 41.5434 68.6539 41.61V41.7406C68.7185 41.7375 68.7831 41.7345 68.85 41.7314C69.1529 41.7419 69.3866 41.8032 69.6725 41.8874C69.7481 41.9095 69.7481 41.9095 69.8255 41.9321C70.2345 42.0535 70.6404 42.1867 71.0401 42.3284C71.1685 42.3721 71.2961 42.4159 71.4245 42.459V42.5895C71.4874 42.6002 71.4874 42.6002 71.5514 42.6112C72.234 42.7764 72.8813 43.1465 73.4963 43.4403V43.5709H73.7269V43.7015H73.8807V43.832C73.9283 43.8414 73.976 43.8509 74.0252 43.8606C74.1882 43.8973 74.1882 43.8973 74.3419 43.9625V44.0931C74.399 44.1105 74.4557 44.128 74.5149 44.1461C74.7178 44.2205 74.8693 44.2949 75.0338 44.4196V44.5502H75.1875V44.6807H75.3413V44.8113H75.495V44.9419H75.6488V45.0725H75.8025V45.203H75.9563C76.0555 45.2983 76.0555 45.2983 76.1577 45.4237C76.192 45.4646 76.2263 45.5053 76.2615 45.5477C76.3399 45.6607 76.3399 45.6607 76.3399 45.7913H76.4937V45.9218H76.6474V46.0524H76.8012V46.3135H76.9549C77.0193 46.4088 77.0833 46.5035 77.1471 46.5995C77.1828 46.6525 77.2184 46.7052 77.2555 46.7601C77.3393 46.9011 77.3393 46.9011 77.3393 47.0317H77.493C77.6283 47.2334 77.6468 47.3078 77.6468 47.554H77.8005C77.9158 47.774 77.9543 47.8934 77.9543 48.1415H78.108V48.5332H78.2618V48.9902H78.4155C78.8791 50.8704 78.8929 52.8486 78.4155 54.7353C78.3902 54.7569 78.3648 54.7784 78.3387 54.8006C78.3209 54.8888 78.307 54.9769 78.2955 55.0657C78.2844 55.1506 78.2732 55.2354 78.2618 55.3229H78.108C78.1152 55.4058 78.1152 55.4058 78.1225 55.49C78.1085 55.7081 78.0511 55.8478 77.9426 56.043C77.8696 56.1873 77.8211 56.3309 77.7719 56.4817C77.6459 56.8532 77.4591 57.1933 77.263 57.5393H77.1093C77.0982 57.5892 77.0871 57.6392 77.0756 57.6902C77.0324 57.8658 77.0324 57.8658 76.9557 58.0616H76.8019V58.3228H76.6482V58.5186H76.4944C76.4834 58.559 76.4722 58.5996 76.4608 58.6414C76.4175 58.7798 76.4175 58.7798 76.3408 58.9103H76.1871C76.1807 58.944 76.1744 58.9776 76.1679 59.0122C76.0856 59.2394 75.9457 59.4241 75.8027 59.6285H75.649V59.759H75.4952C75.4841 59.7995 75.473 59.84 75.4615 59.8818C75.4183 60.0202 75.4183 60.0202 75.3416 60.1508H75.1879V60.2813H75.0341V60.4119H74.8804C74.8518 60.4664 74.8518 60.4664 74.8227 60.5222C74.7089 60.7011 74.5782 60.848 74.4191 60.9995H74.2654V61.13H74.1116V61.2606C73.9225 61.4271 73.7065 61.5701 73.4966 61.7176C73.4284 61.7659 73.3605 61.8142 73.2898 61.8638C72.7486 62.2399 72.7486 62.2399 72.5741 62.2399V62.3705H72.4204V62.501C72.2681 62.5441 72.1159 62.5872 71.9591 62.6316V62.7622C71.6224 62.958 71.6224 62.958 71.421 62.958V63.0886C70.9121 63.3497 70.9121 63.3497 70.6522 63.3497V63.4803C70.4485 63.5756 70.3532 63.6109 70.1141 63.6109V63.7414H69.8066V63.872C69.6213 63.9491 69.4353 64.0248 69.2493 64.1005C69.1968 64.1223 69.1447 64.1441 69.0901 64.1665C68.818 64.2761 68.6519 64.329 68.346 64.329V64.4596C68.2261 64.4911 68.1061 64.5223 67.9854 64.5536L67.7825 64.6064C67.5865 64.6532 67.392 64.6893 67.1921 64.7207V64.8512H66.7308V64.9818C66.6694 64.9929 66.6078 65.004 66.5448 65.0155C66.1158 65.0958 65.6992 65.1826 65.284 65.308C64.8543 65.4359 64.423 65.5084 63.9772 65.5724C63.7181 65.5937 63.7181 65.5937 63.5029 65.6997C63.386 65.7044 63.2692 65.7052 63.1523 65.7038C63.0888 65.7032 63.0255 65.7026 62.9601 65.702C62.9111 65.7012 62.8617 65.7005 62.8118 65.6997V65.8303H61.9661V65.9608L61.7332 65.9728C61.634 65.9783 61.5349 65.9838 61.4326 65.9894C61.3334 65.9947 61.2343 66 61.1328 66.0055C60.9006 66.0032 60.9006 66.0032 60.813 66.0917C60.6001 66.1055 60.3879 66.1163 60.1742 66.1243C60.0558 66.1288 59.9374 66.1336 59.8198 66.1386C59.7406 66.1416 59.7406 66.1416 59.6599 66.1446C59.5092 66.1522 59.5092 66.1522 59.3824 66.1898C59.1118 66.2376 58.8427 66.2319 58.5675 66.2317C58.4722 66.2321 58.4722 66.2321 58.3753 66.2324C58.1654 66.233 57.9563 66.2332 57.7465 66.2332C57.6004 66.2334 57.4543 66.2337 57.3083 66.2339C57.0015 66.2343 56.6956 66.2344 56.3858 66.2344C55.9945 66.2344 55.6016 66.2352 55.2096 66.2364C54.9075 66.2371 54.6053 66.2372 54.3025 66.2372C54.1579 66.2373 54.0142 66.2376 53.8696 66.2381C53.6675 66.2387 53.4645 66.2385 53.2623 66.2381C53.2035 66.2385 53.1447 66.2389 53.084 66.2392C52.6696 66.2372 52.2922 66.1798 51.8924 66.0917V66.2223H51.7387V66.4181H51.5849V66.8098H51.4312C51.4343 66.8568 51.4375 66.9038 51.4408 66.9521C51.4301 67.1571 51.3749 67.2838 51.2778 67.4712C51.2432 67.5391 51.2086 67.6063 51.1733 67.6762C51.1437 67.7332 51.1437 67.7332 51.1136 67.7911C50.9814 68.0476 50.8538 68.3062 50.7254 68.5614C50.6989 68.6142 50.6723 68.6672 50.6454 68.7214C50.5094 68.9943 50.3833 69.2659 50.2787 69.5505H50.125V69.8116H49.9712C49.9632 69.8569 49.9552 69.9024 49.9469 69.9487C49.8856 70.1694 49.7855 70.3516 49.6679 70.5552C49.6458 70.5939 49.6238 70.6323 49.601 70.6721C49.5309 70.7948 49.4603 70.9169 49.3896 71.039C49.3418 71.1226 49.2943 71.2061 49.2458 71.289C49.129 71.4927 49.0121 71.6964 48.8945 71.8995H48.7408V72.1606H48.587C48.5658 72.2073 48.5446 72.254 48.5228 72.3023C48.4344 72.4844 48.336 72.6581 48.2314 72.8337C48.1971 72.8914 48.1628 72.9493 48.1276 73.0087C48.1016 73.052 48.0757 73.0955 48.0492 73.1399H47.8955V73.2705H47.6648V73.1399H47.5111V72.8788H47.3573C47.3443 72.8179 47.3312 72.7573 47.3177 72.6946C47.2085 72.207 47.0755 71.7415 46.8949 71.2714C46.7811 70.9398 46.7088 70.6055 46.6358 70.266C46.612 70.0832 46.612 70.0832 46.512 70.0101C46.5089 69.858 46.5088 69.7052 46.512 69.5531H46.3583V69.0308H46.2045L46.1595 68.8324C46.1393 68.7449 46.119 68.6574 46.0988 68.5693C46.0891 68.5264 46.0794 68.4837 46.0694 68.4393C46.0028 68.1527 45.9156 67.8753 45.8203 67.5972C45.7388 67.3151 45.6619 67.0318 45.5851 66.7485C45.489 66.3998 45.3798 66.0564 45.2499 65.7169C45.1855 65.5093 45.1886 65.3285 45.205 65.1157H45.0512V64.5934H44.8975V64.1364H44.7437V63.2877C44.8452 63.2661 44.9467 63.2446 45.0512 63.2224V63.0918C45.1804 62.9789 45.1804 62.9789 45.3495 62.8555C45.4048 62.8142 45.4602 62.7732 45.5171 62.7308C45.667 62.6355 45.667 62.6355 45.8208 62.6355V62.5049H45.9745V62.3743C46.0806 62.2686 46.0806 62.2686 46.2051 62.1785H46.3589V62.0479H46.5126V61.9173H46.6664C46.7021 61.8568 46.7021 61.8568 46.7385 61.7946L46.8969 61.5256H47.0506C47.076 61.4395 47.1013 61.3533 47.1275 61.2645H47.2812C47.305 61.2241 47.3288 61.1835 47.3533 61.1418L47.5117 60.8728H47.6655V60.6769H47.8192C47.8387 60.6304 47.8583 60.5836 47.8784 60.5359C47.9806 60.3348 48.1075 60.1742 48.2566 59.9953C48.5995 59.5677 48.8662 59.1205 49.1253 58.6505H49.2791C49.2901 58.602 49.3013 58.5538 49.3127 58.5036C49.3484 58.3554 49.3881 58.2091 49.4327 58.0629H49.5864V57.8018H49.7402C49.748 57.7591 49.7558 57.7162 49.7639 57.6725C49.833 57.4159 49.9415 57.1776 50.0522 56.9348C50.0739 56.8864 50.0955 56.8381 50.1178 56.7885C50.171 56.6697 50.2247 56.5515 50.2777 56.4334H50.4315V56.0417H50.5852V55.7152H50.739V55.3235H50.8927C50.9007 55.2747 50.9088 55.2256 50.917 55.1753C51.0054 54.7653 51.1354 54.3658 51.2568 53.961C51.3806 53.5471 51.4913 53.1319 51.5843 52.7141H51.7381V52.1918H51.8918V51.6042H52.0456C52.0442 51.5417 52.0442 51.5417 52.0429 51.4782C52.0422 51.4243 52.0415 51.3705 52.0408 51.315C52.0399 51.2612 52.039 51.2073 52.038 51.1518C52.0456 51.0167 52.0456 51.0167 52.1226 50.9514C52.1368 50.8593 52.1474 50.7666 52.1563 50.6739C52.1834 50.4408 52.232 50.2502 52.3531 50.0374C52.4292 50.0589 52.5053 50.0805 52.5837 50.1027C52.8105 50.5851 52.9166 51.0885 52.9681 51.6042C52.9935 51.6258 53.0188 51.6473 53.045 51.6695C53.0699 51.8719 53.0844 52.0743 53.1002 52.2773C53.0993 52.4471 53.0993 52.4471 53.1986 52.5182C53.2149 52.6677 53.227 52.8172 53.2371 52.9674C53.2584 53.3036 53.2584 53.3036 53.3524 53.6268C53.363 53.7488 53.3697 53.8716 53.374 53.9943C53.3783 54.104 53.3783 54.104 53.3827 54.2156C53.3853 54.292 53.388 54.3684 53.3907 54.4467C53.3961 54.5962 53.4017 54.7464 53.4076 54.8959C53.4099 54.9625 53.4122 55.0291 53.4146 55.097C53.4261 55.2759 53.4441 55.4508 53.4666 55.6291C53.5121 56.0018 53.5294 56.3733 53.5442 56.7454C53.5506 56.891 53.5571 57.0366 53.5635 57.1829C53.5732 57.41 53.5828 57.6379 53.5923 57.8683C53.6016 58.0897 53.6114 58.3103 53.6211 58.5343C53.6238 58.6028 53.6266 58.6707 53.6293 58.7412C53.6322 58.8045 53.635 58.8679 53.6379 58.9325C53.6402 58.9881 53.6425 59.0435 53.6449 59.1009C53.6541 59.2557 53.6541 59.2557 53.7364 59.4398C54.4052 59.4965 55.0664 59.5155 55.7429 59.5161C55.8436 59.5164 55.9435 59.5166 56.0473 59.5168C56.2587 59.5172 56.4693 59.5173 56.6807 59.5173C56.9483 59.5173 57.2158 59.5182 57.4802 59.5193C57.7393 59.5202 57.9984 59.5202 58.2567 59.5202C58.3512 59.5207 58.4458 59.5212 58.5434 59.5217C59.5505 59.5352 59.5505 59.5352 60.5037 59.3095C60.6828 59.3069 60.8627 59.3067 61.0418 59.3095V59.1789H61.5031V59.0483H61.9643V58.9178H62.3487V58.7872C62.4143 58.7705 62.4143 58.7705 62.4809 58.7535C62.7854 58.6726 63.0644 58.5883 63.3419 58.4486C63.5818 58.3305 63.5818 58.3305 63.8124 58.3305V58.1999C63.9646 58.1568 64.1168 58.1137 64.2737 58.0693V57.9387H64.5812V57.8082H64.7349V57.6776C64.8587 57.6211 64.8587 57.6211 64.9848 57.5634C65.2208 57.4498 65.3922 57.3211 65.5805 57.1553H65.7343V57.0248H65.888C65.9388 56.917 65.9895 56.8093 66.0418 56.6983H66.1955V56.5678H66.3493C66.3778 56.5132 66.3778 56.5132 66.407 56.4574C66.503 56.3066 66.503 56.3066 66.6522 56.1512C66.8175 55.9724 66.9289 55.7941 67.0412 55.5885H67.1949V55.3273H67.3487C67.3584 55.2807 67.3681 55.234 67.3781 55.1863C67.4259 54.9996 67.4934 54.8299 67.5695 54.6503C68.1092 53.2924 68.3006 51.6864 67.5386 50.3546C67.4564 50.2155 67.3726 50.0771 67.2873 49.9393C67.1942 49.7761 67.1942 49.7761 67.1942 49.6456H67.0405C66.9897 49.5163 66.939 49.387 66.8867 49.2538H66.733V49.1233H66.5792V48.9927C66.5333 48.9738 66.487 48.955 66.4401 48.9356C66.2717 48.8625 66.2717 48.8625 66.0411 48.7319V48.6013C65.9761 48.5852 65.9112 48.569 65.8443 48.5523C65.6406 48.4893 65.4845 48.429 65.3016 48.3363C65.0986 48.237 64.961 48.175 64.7342 48.1443V48.0137H64.273V47.8832C64.1615 47.8852 64.1615 47.8852 64.047 47.8873C63.8117 47.8832 63.8117 47.8832 63.7349 47.8181C62.551 47.6209 61.321 47.6672 60.1217 47.6666C59.8096 47.6663 59.4975 47.6654 59.1839 47.6645C58.6442 47.663 58.1076 47.662 57.5618 47.6614C56.7854 47.6604 56.0012 47.6587 55.2248 47.6569C53.9564 47.654 52.6956 47.6516 51.4272 47.6495C50.1972 47.6476 48.9672 47.6453 47.7372 47.6427C47.6613 47.6426 47.5857 47.6424 47.5073 47.6423C47.1268 47.6414 46.7455 47.6406 46.3619 47.6398C43.21 47.6331 40.0581 47.6272 36.9062 47.622C36.9237 47.5476 36.9237 47.5476 36.9415 47.4725C36.9911 47.2616 37.0399 47.0508 37.0891 46.8399C37.1201 46.7073 37.1511 46.5742 37.1822 46.4416C37.2035 46.3496 37.2249 46.2582 37.2461 46.1661C37.2769 46.033 37.3079 45.9004 37.3391 45.7672C37.3668 45.6484 37.3668 45.6484 37.395 45.527C37.4448 45.3377 37.4448 45.3377 37.5219 45.2071C37.5457 45.038 37.5611 44.8689 37.5771 44.6985C37.5987 44.5542 37.5987 44.5542 37.6755 44.489C37.6914 44.4021 37.7037 44.3153 37.714 44.2278C37.7439 43.9739 37.7439 43.9739 37.8293 43.9014C37.8452 43.8041 37.8575 43.7055 37.8677 43.6076C37.8976 43.321 37.8976 43.321 37.983 43.2485C37.9957 43.1728 38.0084 43.0977 38.0215 43.02C38.0599 42.7915 38.0599 42.7915 38.1368 42.7263C38.1492 42.6316 38.1582 42.5363 38.1656 42.4403C38.1911 42.1955 38.24 41.9729 38.3224 41.7352C38.4454 41.3631 38.5254 40.991 38.5984 40.6123C38.6907 40.1416 38.7937 39.6787 38.9274 39.2152C39.012 38.8966 39.0743 38.5748 39.1365 38.2555C39.2056 37.9049 39.2056 37.9049 39.2903 37.8331C39.2998 37.7495 39.3094 37.666 39.3191 37.5798C39.3546 37.2743 39.4444 36.9949 39.5444 36.6985C39.5935 36.5385 39.6243 36.3864 39.6458 36.2225C39.6747 36.0019 39.6747 36.0019 39.7519 35.9366C39.7886 35.7975 39.8213 35.6578 39.8519 35.5174C39.8615 35.4746 39.871 35.4319 39.8809 35.3875C39.9118 35.2498 39.9422 35.1114 39.9724 34.9736C40.012 34.7941 40.0516 34.6152 40.0916 34.4363C40.1014 34.3923 40.1112 34.3482 40.1215 34.3025C40.2022 33.948 40.296 33.5974 40.3959 33.2449C40.4615 32.9896 40.4889 32.735 40.5197 32.4745L40.5966 32.4092C40.6144 32.3106 40.6282 32.2107 40.6398 32.1115C40.6462 32.0576 40.6527 32.0038 40.6593 31.9483C40.6639 31.9066 40.6686 31.8647 40.6734 31.8223H40.8272C40.8263 31.7759 40.8254 31.7296 40.8245 31.6819C40.8238 31.6219 40.8231 31.5618 40.8224 31.4998C40.8215 31.4399 40.8206 31.3803 40.8197 31.3183C40.8272 31.1688 40.8272 31.1688 40.9042 31.1035C40.9169 31.0284 40.9296 30.9527 40.9427 30.875C40.9811 30.6465 40.9811 30.6465 41.058 30.5812C41.0947 30.4193 41.1278 30.2581 41.1587 30.0955C41.2386 29.692 41.3324 29.2925 41.4424 28.8942C41.5761 28.4046 41.6707 27.915 41.7468 27.4188C41.7551 27.3668 41.7635 27.315 41.772 27.2615C41.7789 27.2156 41.7858 27.1701 41.7929 27.1224C41.8334 26.9657 41.8697 26.8626 41.9805 26.7307C42.3087 26.6066 42.6378 26.5701 42.9952 26.5348C43.0472 26.5296 43.099 26.5243 43.1528 26.5189C43.3204 26.5021 43.4872 26.4858 43.6548 26.4695C43.7694 26.4581 43.8847 26.4466 43.9992 26.435C44.6596 26.3691 45.3215 26.3044 45.9826 26.247C46.2009 26.2276 46.3877 26.202 46.5968 26.1425C46.7075 26.1338 46.819 26.1279 46.9305 26.1242C46.9946 26.1217 47.0588 26.1193 47.125 26.1168L47.5293 26.103C47.5934 26.1006 47.6577 26.0982 47.7238 26.0957C47.8115 26.0927 47.8115 26.0927 47.9014 26.0897C48.0736 26.0812 48.0736 26.0812 48.2888 26.012C48.4272 26.003 48.5656 25.9973 48.704 25.9936C48.7855 25.9912 48.8662 25.9887 48.95 25.9863C49.0345 25.984 49.1191 25.9817 49.2067 25.9794C49.3743 25.9749 49.5411 25.9701 49.7087 25.9651C49.8202 25.9621 49.8202 25.9621 49.934 25.9591C50.1262 25.9529 50.1262 25.9529 50.273 25.9139C50.4829 25.8737 50.6758 25.8732 50.8911 25.873L50.8839 25.8702ZM51.1268 31.6218C50.9923 31.6319 50.8577 31.6397 50.7232 31.6463C50.3734 31.6732 50.1051 31.6952 49.8161 31.8827C49.7069 32.0641 49.647 32.2104 49.5855 32.4049C49.5619 32.4735 49.5385 32.5414 49.5143 32.6119C49.3106 33.2452 49.1906 33.885 49.0845 34.5313C49.0173 34.9328 48.9262 35.3147 48.7901 35.7064C48.7188 35.9316 48.6932 36.1549 48.6633 36.3854C48.6379 36.4069 48.6125 36.4285 48.5864 36.4507C48.5647 36.5368 48.547 36.6243 48.5311 36.7118C48.5213 36.7643 48.5115 36.8169 48.5014 36.8711C48.4914 36.9263 48.4814 36.9814 48.471 37.0382C48.4512 37.1473 48.4313 37.2556 48.411 37.3647C48.4022 37.4132 48.3934 37.4613 48.3844 37.5116C48.3557 37.6258 48.3557 37.6258 48.279 37.6911C48.2414 37.8373 48.2079 37.9842 48.176 38.1318C48.1663 38.1765 48.1565 38.2212 48.1464 38.2676C48.1151 38.4112 48.0841 38.5555 48.0534 38.6997C47.8136 39.8031 47.8136 39.8031 47.7313 40.1687C47.7201 40.2187 47.7088 40.2686 47.6972 40.3201C47.6644 40.4311 47.6644 40.4311 47.5872 40.4964C47.5714 40.5832 47.5591 40.6701 47.5488 40.7575C47.5189 41.0115 47.5189 41.0115 47.4335 41.084C47.4208 41.159 47.4081 41.2348 47.3951 41.3125C47.3566 41.541 47.3566 41.541 47.2797 41.6063C47.2605 41.7669 47.2605 41.7669 47.2797 41.9327C47.8071 42.3805 49.3631 42.216 50.0703 42.218C50.1533 42.218 50.2364 42.218 50.3217 42.2179C50.5731 42.2182 50.8245 42.2206 51.0758 42.2231C52.0829 42.2276 52.9977 42.1473 53.974 41.9326C54.1016 41.9066 54.1016 41.9066 54.2323 41.8801C54.6744 41.79 55.0703 41.6496 55.4777 41.4812C55.643 41.418 55.7937 41.3761 55.9705 41.3447V41.2142H56.1242V41.0836H56.4317V40.953C56.4714 40.9476 56.5109 40.9422 56.5516 40.9367C56.8192 40.8668 57.0367 40.748 57.2773 40.6266V40.496C57.365 40.4677 57.365 40.4677 57.4549 40.4389C57.6732 40.3677 57.6732 40.3677 57.8923 40.2352V40.1046H58.0461V39.9741H58.1998V39.8435H58.3536C58.5381 39.6711 58.5381 39.6711 58.5842 39.4518H58.738V39.3212H58.8917V39.1254H59.0455C59.0962 38.9961 59.1469 38.8668 59.1992 38.7336H59.353V38.4725H59.5067C59.5678 38.3191 59.6282 38.165 59.6897 38.0116C59.7067 37.9687 59.7237 37.9261 59.7413 37.8817C59.7923 37.7524 59.842 37.6231 59.8912 37.4932C59.9197 37.4201 59.9481 37.347 59.9773 37.2719C60.0604 36.9827 60.0834 36.7052 60.098 36.4101C60.101 36.3527 60.1039 36.2952 60.107 36.2358C60.1471 35.3153 59.9955 34.6429 59.5119 33.8268C59.4862 33.7821 59.4605 33.7374 59.4343 33.691C59.2237 33.3319 58.993 33.012 58.5887 32.7966H58.4349V32.666H58.2812V32.5354H58.0505V32.4049C57.813 32.29 57.7254 32.2743 57.4355 32.2743V32.1437C57.1703 32.068 56.9043 31.9936 56.636 31.9192C56.5618 31.8979 56.4877 31.8767 56.4108 31.8548C55.9795 31.7353 55.5806 31.6576 55.127 31.6335C54.9755 31.621 54.9755 31.621 54.8218 31.5558C54.7088 31.5496 54.5958 31.5474 54.482 31.5474C54.4117 31.5472 54.3413 31.5469 54.2691 31.5467C54.193 31.5469 54.1169 31.547 54.0384 31.5471C53.9608 31.5471 53.8824 31.547 53.8024 31.5469C53.6372 31.5469 53.4726 31.547 53.3074 31.5473C53.0544 31.5476 52.8015 31.5473 52.5478 31.5469C52.3879 31.5469 52.228 31.547 52.0681 31.5471C51.9544 31.5469 51.9544 31.5469 51.8375 31.5467C51.7672 31.5469 51.6968 31.5471 51.6246 31.5474C51.5315 31.5474 51.5316 31.5474 51.437 31.5475C51.2794 31.5477 51.2794 31.5477 51.1318 31.6213L51.1268 31.6218Z" fill="#E3C138"/>
<path d="M50.0386 51.2009H50.1155C50.1177 51.4608 50.1191 51.7206 50.1203 51.9778C50.121 52.0523 50.1216 52.126 50.1223 52.2024C50.1225 52.2729 50.1228 52.3434 50.123 52.4159C50.1234 52.4812 50.1238 52.5465 50.1243 52.6137C50.1155 52.7652 50.1155 52.7652 50.0389 52.8305C50.0193 52.9662 50.0022 53.102 49.986 53.2385C49.9254 53.6792 49.8046 54.1003 49.6593 54.5246C49.6302 54.6101 49.6302 54.6101 49.6004 54.6976C49.4813 55.0391 49.3444 55.3701 49.193 55.703C49.1432 55.8212 49.0938 55.9393 49.0439 56.0582C48.9055 56.382 48.7487 56.6967 48.578 57.0113H48.4242V57.2725H48.2705V57.5336H48.1167V57.7948H47.963C47.9376 57.9025 47.9123 58.0102 47.8861 58.1212H47.7324C47.7244 58.1562 47.7165 58.191 47.7084 58.2269C47.6417 58.4228 47.5362 58.5932 47.4247 58.774H47.271C47.2202 58.9033 47.1695 59.0326 47.1172 59.1657H46.9635C46.9429 59.2143 46.9223 59.263 46.901 59.3126C46.8134 59.485 46.7258 59.6136 46.5789 59.7533H46.4252C46.3744 59.8826 46.3237 60.0118 46.2714 60.145H46.1177V60.2756H45.9639V60.4062H45.8102C45.788 60.4452 45.7658 60.4845 45.7429 60.5243C45.6568 60.6673 45.6568 60.6673 45.5031 60.8632H45.3493C45.3136 60.9238 45.3136 60.9238 45.2772 60.9859L45.1188 61.2549H44.9651V61.3855C44.6991 61.5813 44.6991 61.5813 44.5038 61.5813V61.7119H44.3501V61.8425C44.1594 61.9071 44.1594 61.9071 43.9657 61.973V62.1036H43.812V62.2342H43.6582V62.3647C43.4276 62.4953 43.4276 62.4953 43.197 62.4953V62.6259H43.0432V62.7564H42.8895C42.9061 63.7357 42.9061 63.7357 43.1485 64.6889C43.2323 64.9559 43.216 65.2229 43.1972 65.4984H43.351V66.086H43.5047C43.5094 66.1277 43.514 66.1696 43.5188 66.212C43.5285 66.293 43.5285 66.293 43.5384 66.3752C43.5446 66.429 43.5508 66.4829 43.5573 66.5384C43.5654 66.6723 43.5654 66.6723 43.6588 66.7389C43.6747 66.8348 43.687 66.9314 43.6972 67.0287C43.7196 67.2513 43.7196 67.2513 43.8125 67.457C43.8373 67.583 43.8592 67.7097 43.8798 67.8363C43.9314 68.1347 43.9959 68.4245 44.0812 68.7177C44.2203 69.2066 44.2864 69.6969 44.3502 70.1996C44.1504 70.1356 44.0612 70.1011 43.9659 69.9346C43.9393 69.853 43.9393 69.853 43.9122 69.7701C43.8825 69.6806 43.8825 69.6806 43.8522 69.5892C43.823 69.4952 43.823 69.4952 43.7933 69.3999C43.7727 69.3384 43.7521 69.2772 43.7309 69.2132C43.6309 68.905 43.5541 68.6289 43.5817 68.3057H43.428C43.4169 68.2319 43.4058 68.1575 43.3943 68.0811C43.3809 67.8611 43.3809 67.8611 43.2744 67.7834C43.2649 67.7083 43.2554 67.6326 43.2456 67.5549C43.2189 67.3532 43.1703 67.1782 43.0887 66.9876C42.9442 66.6298 42.8619 66.2695 42.7774 65.8973C42.703 65.5813 42.6067 65.2817 42.4783 64.9768C42.4052 64.7823 42.3815 64.5897 42.3515 64.3873L42.2746 64.322C42.2691 64.2228 42.2682 64.1235 42.2698 64.0243C42.2705 63.9704 42.2712 63.9166 42.2719 63.8611C42.2733 63.7986 42.2733 63.7986 42.2746 63.7351H42.1209V63.2781H41.9671C41.8472 62.825 41.8472 62.825 41.9653 62.6337C42.0683 62.5273 42.0683 62.5273 42.2744 62.3641H42.4281V62.2335C42.6495 62.1082 42.8809 62.005 43.12 61.9071V61.7765H43.2737V61.6459H43.4275V61.5154C43.6181 61.4507 43.6181 61.4507 43.8119 61.3848V61.2542C43.9356 61.153 43.9356 61.153 44.1001 61.0381C44.3438 60.8632 44.5376 60.6843 44.7344 60.4708C44.8026 60.425 44.8704 60.3794 44.9412 60.3324C45.138 60.2188 45.138 60.2188 45.1956 60.0138H45.3494V59.8832H45.5031V59.7527H45.6569C45.6775 59.7163 45.6981 59.6802 45.7193 59.6423C45.8192 59.4778 45.9199 59.3192 46.0414 59.1651H46.1951V59.0345H46.3489V58.7734H46.5026V58.5775H46.6564V58.3817H46.8101C46.8862 58.1878 46.9624 57.9939 47.0408 57.7941H47.1945C47.2024 57.7604 47.2104 57.7269 47.2185 57.6923C47.29 57.4768 47.3953 57.281 47.5022 57.076H47.6559V56.8148H47.8097V56.5537H47.9634V56.2925H48.1172C48.1261 56.2463 48.135 56.1998 48.1442 56.1528C48.1977 55.9531 48.2795 55.7827 48.3764 55.5953C48.5524 55.246 48.6916 54.8967 48.8084 54.5311H48.9622V54.2047H49.1159V53.813H49.2697V53.356H49.4234V52.9643H49.5772C49.5724 52.901 49.5676 52.8376 49.5627 52.7723C49.5627 52.5203 49.6404 52.3173 49.7411 52.0803C49.8595 51.7918 49.9463 51.4954 50.0386 51.199L50.0386 51.2009Z" fill="#E3C138"/>
<path d="M47.8096 52.3762H47.9633C47.9762 52.6615 47.9738 52.8462 47.8096 53.0943C47.7385 53.2954 47.6727 53.4978 47.6082 53.7008C47.4844 54.0729 47.3214 54.4124 47.1238 54.765C47.0501 54.906 47.0008 55.0352 46.9632 55.186H46.8094C46.8015 55.244 46.7936 55.3016 46.7854 55.3617C46.7311 55.5843 46.6432 55.7142 46.5018 55.9042C46.4483 56.0472 46.4483 56.0472 46.4249 56.1653H46.2711L46.1174 56.557H45.9636V56.8182H45.8099C45.791 56.8752 45.7721 56.9324 45.7525 56.9905C45.6495 57.2236 45.5219 57.3842 45.3436 57.5807C45.1137 57.834 45.1137 57.834 44.9638 58.1232H44.8101V58.2538H44.6563V58.4497H44.5026V58.6455H44.3488V58.7761H44.1951C44.1776 58.8098 44.1602 58.8433 44.1422 58.8779C44.0046 59.0953 43.8493 59.3075 43.6571 59.4942H43.5033V59.6248H43.3496V59.7554H43.1958V59.8859H43.0421V60.0165H42.8883C42.8586 60.0736 42.8586 60.0736 42.8283 60.1321C42.7268 60.2894 42.6154 60.3965 42.4654 60.5225C42.4187 60.5626 42.3717 60.6028 42.324 60.6439C42.1964 60.7346 42.1964 60.7346 42.0426 60.7346V60.8652H41.8889V60.9958H41.7351V61.1264H41.5814V61.2569H41.3508V61.3875H41.1201V61.5181C40.9295 61.5827 40.9295 61.5827 40.7358 61.6486V61.7792H40.582V61.9098H40.4283V62.1056H40.2745C40.1723 62.421 40.2253 62.5901 40.3691 62.876C40.4529 63.0777 40.4705 63.2762 40.4882 63.4884C40.4903 63.6065 40.4903 63.6065 40.5812 63.6705C40.5868 63.7698 40.5877 63.869 40.586 63.9682C40.5854 64.0222 40.5847 64.0759 40.584 64.1314C40.5831 64.1731 40.5822 64.215 40.5812 64.2574H40.735C40.7478 64.3163 40.7605 64.375 40.7737 64.4357C40.8221 64.6583 40.8705 64.8809 40.9197 65.1016C40.9406 65.1969 40.9614 65.2929 40.9821 65.3882C41.1005 65.932 41.2258 66.4719 41.3804 67.0073C41.4402 67.2429 41.468 67.4773 41.4872 67.7189C41.4954 67.8501 41.4954 67.8501 41.5802 67.9754C41.6041 68.1445 41.6194 68.3136 41.6355 68.484C41.6392 68.627 41.6392 68.627 41.7339 68.6936C41.7394 68.7928 41.7404 68.892 41.7387 68.9913C41.738 69.0452 41.7373 69.099 41.7366 69.1545C41.7357 69.1961 41.7348 69.2381 41.7339 69.2805H41.8877C41.8923 69.3363 41.897 69.3921 41.9018 69.4496C41.9082 69.5214 41.9147 69.5939 41.9213 69.6683C41.9276 69.7401 41.9338 69.8119 41.9402 69.8863C41.9418 70.058 41.9418 70.058 42.0417 70.1292C42.0449 70.2813 42.045 70.4341 42.0417 70.5862C41.9656 70.5647 41.8895 70.5431 41.8111 70.5209C41.7367 70.3636 41.6781 70.2141 41.6235 70.0515C41.6073 70.0048 41.5911 69.9582 41.5744 69.9099C41.5409 69.8132 41.5078 69.716 41.4752 69.6193C41.4296 69.4848 41.3822 69.351 41.3338 69.2172C41.2062 68.8561 41.1016 68.5513 41.1193 68.1726H40.9655C40.948 68.0388 40.9305 67.9049 40.913 67.7711C40.9026 67.6497 40.9026 67.6497 40.8115 67.585C40.8006 67.4107 40.8082 67.2377 40.8115 67.0628H40.6577C40.6467 66.989 40.6355 66.9146 40.6241 66.8382C40.6107 66.6182 40.6107 66.6182 40.5041 66.5405C40.4679 66.3955 40.4349 66.25 40.4034 66.1037C40.3295 65.7747 40.2428 65.4541 40.1298 65.131C39.966 64.6655 39.8422 64.1974 39.7231 63.7208C39.6525 63.4466 39.5763 63.1842 39.4556 62.9243C39.3395 62.6651 39.331 62.5058 39.351 62.2323H39.1973V61.8406C39.2987 61.819 39.4002 61.7975 39.5048 61.7753V61.6447H39.7354V61.5142H39.966V61.3836H40.1966V61.253H40.5041V61.1224H40.6579V60.9919C40.7632 60.9316 40.8685 60.8717 40.9762 60.8149C41.2022 60.6824 41.399 60.5231 41.6004 60.3651C41.7334 60.2744 41.7334 60.2744 41.8871 60.2744V60.1438C41.9474 60.1277 42.0078 60.1115 42.0701 60.0948C42.3099 59.9982 42.313 59.9467 42.4252 59.7521C42.5475 59.6405 42.5475 59.6405 42.6851 59.5314C42.8627 59.3859 43.0103 59.2481 43.1417 59.0705C43.1845 59.0153 43.227 58.9602 43.2716 58.9034H43.4254V58.7728H43.5791V58.6423H43.7329V58.5117H43.8866C43.9072 58.4753 43.9278 58.4392 43.9491 58.4013C44.049 58.2368 44.1497 58.0782 44.2712 57.9241H44.4249V57.7935H44.5787V57.5324H44.7324C44.7832 57.4247 44.8339 57.317 44.8862 57.206H45.0399V56.9448H45.1937V56.8143H45.3474V56.5531H45.5012C45.5218 56.5074 45.5424 56.4617 45.5636 56.4147C45.6604 56.2162 45.7704 56.0263 45.8857 55.835H46.0394V55.5738H46.1932V55.3127H46.3469C46.3546 55.2789 46.3622 55.2455 46.3701 55.2102C46.4427 54.9954 46.5553 54.7996 46.6691 54.5985C46.7177 54.511 46.766 54.4235 46.8144 54.336C46.8635 54.2479 46.9128 54.1598 46.962 54.0716C47.0489 53.9156 47.135 53.7589 47.2219 53.6022C47.2589 53.5356 47.296 53.4684 47.3341 53.3992C47.4087 53.2516 47.4625 53.1178 47.5001 52.9611H47.6539C47.665 52.9127 47.6761 52.8638 47.6876 52.8142C47.7232 52.666 47.763 52.5198 47.8075 52.3736L47.8096 52.3762Z" fill="#E3C138"/>
<path d="M47.9629 52.115H48.1167C48.0913 52.2012 48.0659 52.2874 48.0398 52.3762C48.0144 52.29 47.989 52.2038 47.9629 52.115Z" fill="#E3C138"/>
</svg>
