<svg width="133" height="113" viewBox="0 0 133 113" fill="none" xmlns="http://www.w3.org/2000/svg">
<path d="M54.783 27.3361C54.9286 27.3358 54.9286 27.3358 55.0776 27.3354C55.1819 27.3356 55.287 27.3357 55.3946 27.3359C55.5022 27.3358 55.6098 27.3357 55.7207 27.3357C55.9483 27.3356 56.1751 27.3357 56.4027 27.3361C56.694 27.3365 56.9853 27.3362 57.28 27.3358C57.5581 27.3355 57.8362 27.3357 58.1159 27.3359C58.2732 27.3357 58.2732 27.3357 58.4337 27.3354C58.5306 27.3357 58.6274 27.3359 58.7267 27.3361C58.855 27.3362 58.855 27.3362 58.9858 27.3363C59.1885 27.3452 59.1885 27.3452 59.3541 27.4157C59.4832 27.4256 59.6123 27.4316 59.7414 27.4355C59.8181 27.4381 59.8945 27.4407 59.974 27.4434C60.0543 27.4459 60.1345 27.4483 60.2173 27.4508C60.3762 27.4556 60.5343 27.4608 60.6932 27.4662C60.7636 27.4683 60.8339 27.4704 60.9067 27.4726C61.0921 27.4859 61.0921 27.4859 61.3404 27.5563C61.6392 27.578 61.9388 27.5921 62.2343 27.6068C62.495 27.6266 62.495 27.6266 62.6605 27.6968C62.9014 27.7293 63.1431 27.7598 63.3847 27.7889C63.9897 27.8655 64.56 27.9716 65.1476 28.1276C65.3943 28.1887 65.6368 28.2274 65.8909 28.2591V28.3997H66.3874V28.5402H66.8013V28.6808C66.861 28.6779 66.9204 28.675 66.9825 28.672C67.2325 28.6814 67.403 28.7337 67.6289 28.821V28.9616C67.71 28.9702 67.71 28.9702 67.7928 28.9789C68.1321 29.0506 68.421 29.1813 68.728 29.3177C68.7894 29.3442 68.8505 29.3707 68.9134 29.3978C69.0641 29.4629 69.2139 29.5285 69.3637 29.5939V29.7345H69.612V29.8751H69.8603V30.0156H70.1086V30.1562H70.2741V30.2968C70.3833 30.32 70.4926 30.3432 70.6052 30.3671V30.5076C70.697 30.5337 70.697 30.5337 70.7914 30.5604C71.038 30.6552 71.1762 30.7544 71.35 30.9294V31.0699C71.4593 31.1163 71.5685 31.1627 71.6811 31.2105V31.3511H71.8466V31.4917H72.0122V31.6322H72.1777V31.7728H72.3432C72.3978 31.8888 72.4525 32.0048 72.5087 32.1243H72.6743C72.7016 32.217 72.7289 32.3098 72.757 32.4054H72.9226C72.9772 32.5446 73.0318 32.6837 73.0881 32.8271H73.2536C73.3745 33.0134 73.4192 33.1005 73.4192 33.3191H73.5847V33.6003H73.7502C74.3147 34.8936 74.6937 36.1658 74.6855 37.5504C74.6851 37.6334 74.6848 37.7163 74.6844 37.8014C74.6752 38.4065 74.6089 38.9752 74.4502 39.5656C74.4076 39.7272 74.3701 39.8889 74.3327 40.0513C74.187 40.6817 74.0157 41.2883 73.7492 41.8928H73.5836V42.2442H73.4181V42.666H73.2526V43.0174H73.0871C73.0785 43.0551 73.07 43.0926 73.0612 43.1313C73.0043 43.2985 73.0043 43.2985 72.875 43.5045C72.7269 43.7329 72.7269 43.7329 72.7558 44.071C73.1382 44.1406 73.5206 44.2102 73.9145 44.2819V44.4224C73.9841 44.4192 74.0536 44.4159 74.1256 44.4125C74.4517 44.4238 74.7033 44.4898 75.0112 44.5805C75.0925 44.6043 75.0925 44.6043 75.1759 44.6287C75.6162 44.7594 76.0532 44.9028 76.4836 45.0553C76.6218 45.1023 76.7592 45.1495 76.8974 45.1959V45.3365C76.9651 45.348 76.9651 45.348 77.034 45.3598C77.7689 45.5376 78.4658 45.9362 79.1279 46.2524V46.393H79.3762V46.5336H79.5417V46.6742C79.593 46.6843 79.6444 46.6945 79.6973 46.705C79.8728 46.7445 79.8728 46.7445 80.0383 46.8146V46.9552C80.0998 46.974 80.1608 46.9929 80.2245 47.0123C80.443 47.0924 80.6061 47.1725 80.7832 47.3068V47.4473H80.9487V47.5879H81.1143V47.7285H81.2798V47.8691H81.4453V48.0096H81.6109V48.1502H81.7764C81.8832 48.2528 81.8832 48.2528 81.9932 48.3878C82.0301 48.4318 82.0671 48.4756 82.105 48.5213C82.1894 48.6429 82.1894 48.6429 82.1894 48.7835H82.3549V48.9241H82.5205V49.0646H82.686V49.3458H82.8515C82.9209 49.4484 82.9897 49.5503 83.0584 49.6537C83.0968 49.7107 83.1352 49.7675 83.1751 49.8266C83.2653 49.9784 83.2653 49.9784 83.2653 50.119H83.4309C83.5765 50.3361 83.5964 50.4163 83.5964 50.6813H83.7619C83.8861 50.9181 83.9275 51.0467 83.9275 51.3138H84.093V51.7356H84.2585V52.2276H84.424C84.9231 54.2519 84.938 56.3816 84.424 58.4129C84.3967 58.4361 84.3694 58.4593 84.3413 58.4832C84.3222 58.578 84.3072 58.6729 84.2948 58.7685C84.2829 58.8599 84.2709 58.9513 84.2585 59.0455H84.093C84.1007 59.1347 84.1007 59.1347 84.1085 59.2254C84.0935 59.4602 84.0317 59.6106 83.9149 59.8207C83.8362 59.9761 83.7841 60.1307 83.7311 60.2931C83.5954 60.693 83.3943 61.0592 83.1832 61.4317H83.0177C83.0058 61.4853 82.9938 61.5393 82.9814 61.5941C82.9349 61.7831 82.9349 61.7831 82.8523 61.994H82.6868V62.2752H82.5213V62.486H82.3557C82.3438 62.5295 82.3318 62.5732 82.3195 62.6182C82.273 62.7672 82.273 62.7672 82.1904 62.9077H82.0249C82.018 62.944 82.0112 62.9801 82.0042 63.0174C81.9156 63.262 81.765 63.4609 81.611 63.6809H81.4455V63.8215H81.28C81.268 63.865 81.256 63.9086 81.2437 63.9536C81.1972 64.1026 81.1972 64.1026 81.1146 64.2432H80.9491V64.3838H80.7835V64.5244H80.618C80.5873 64.583 80.5873 64.583 80.5559 64.6431C80.4334 64.8357 80.2927 64.9939 80.1214 65.1569H79.9559V65.2975H79.7904V65.4381C79.5868 65.6173 79.3542 65.7713 79.1282 65.9301C79.0548 65.982 78.9817 66.0341 78.9056 66.0875C78.3229 66.4924 78.3229 66.4924 78.1351 66.4924V66.633H77.9695V66.7736C77.8057 66.8199 77.6418 66.8663 77.4729 66.9141V67.0547C77.1104 67.2656 77.1104 67.2656 76.8936 67.2656V67.4061C76.3457 67.6873 76.3457 67.6873 76.0659 67.6873V67.8279C75.8466 67.9305 75.744 67.9684 75.4866 67.9684V68.109H75.1555V68.2496C74.9561 68.3325 74.7558 68.4141 74.5555 68.4956C74.499 68.5191 74.4429 68.5425 74.3841 68.5666C74.0912 68.6847 73.9124 68.7416 73.583 68.7416V68.8822C73.4539 68.9161 73.3248 68.9497 73.1948 68.9834L72.9763 69.0403C72.7653 69.0906 72.5559 69.1295 72.3407 69.1633V69.3038H71.8441V69.4444C71.778 69.4564 71.7117 69.4683 71.6438 69.4807C71.182 69.5671 70.7334 69.6606 70.2864 69.7956C69.8238 69.9333 69.3595 70.0113 68.8794 70.0802C68.6005 70.1032 68.6005 70.1032 68.3688 70.2173C68.243 70.2223 68.1172 70.2232 67.9914 70.2217C67.923 70.221 67.8548 70.2204 67.7845 70.2198C67.7317 70.2189 67.6785 70.2181 67.6247 70.2173V70.3579H66.7143V70.4984L66.4635 70.5114C66.3568 70.5173 66.25 70.5232 66.1399 70.5292C66.0332 70.5349 65.9264 70.5406 65.8171 70.5465C65.5672 70.5441 65.5672 70.5441 65.4728 70.6393C65.2436 70.6542 65.0151 70.6658 64.7851 70.6744C64.6576 70.6793 64.5301 70.6844 64.4035 70.6898C64.3183 70.693 64.3183 70.693 64.2314 70.6963C64.0691 70.7044 64.0691 70.7044 63.9326 70.7449C63.6412 70.7964 63.3516 70.7903 63.0553 70.7901C62.9526 70.7905 62.9526 70.7905 62.8484 70.7908C62.6224 70.7915 62.3973 70.7916 62.1713 70.7917C62.0141 70.7919 61.8568 70.7922 61.6996 70.7924C61.3693 70.7928 61.0399 70.793 60.7064 70.7929C60.2851 70.7929 59.8622 70.7939 59.4401 70.7951C59.1148 70.7959 58.7896 70.796 58.4635 70.796C58.3079 70.7961 58.1531 70.7964 57.9975 70.7969C57.7798 70.7976 57.5613 70.7974 57.3436 70.797C57.2802 70.7974 57.217 70.7978 57.1516 70.7982C56.7055 70.796 56.2992 70.7341 55.8688 70.6393V70.7799H55.7032V70.9908H55.5377V71.4125H55.3722C55.3756 71.463 55.379 71.5137 55.3825 71.5657C55.371 71.7864 55.3116 71.9228 55.2071 72.1245C55.1698 72.1976 55.1326 72.27 55.0945 72.3452C55.0627 72.4066 55.0627 72.4066 55.0303 72.4689C54.8879 72.7451 54.7505 73.0235 54.6123 73.2983C54.5838 73.3551 54.5552 73.4122 54.5262 73.4705C54.3797 73.7643 54.244 74.0567 54.1314 74.3631H53.9659V74.6443H53.8004C53.7918 74.693 53.7831 74.742 53.7742 74.7919C53.7082 75.0295 53.6004 75.2256 53.4738 75.4449C53.45 75.4865 53.4263 75.5278 53.4018 75.5707C53.3263 75.7028 53.2503 75.8343 53.1742 75.9657C53.1227 76.0557 53.0716 76.1456 53.0194 76.2349C52.8936 76.4542 52.7678 76.6735 52.6412 76.8921H52.4757V77.1732H52.3101C52.2873 77.2235 52.2644 77.2738 52.2409 77.3258C52.1458 77.5219 52.0398 77.7088 51.9272 77.8979C51.8903 77.96 51.8534 78.0223 51.8155 78.0863C51.7875 78.1329 51.7597 78.1798 51.7311 78.2276H51.5656V78.3681H51.3173V78.2276H51.1517V77.9464H50.9862C50.9721 77.8809 50.9581 77.8157 50.9435 77.7482C50.826 77.2231 50.6828 76.722 50.4883 76.2159C50.3658 75.8589 50.288 75.499 50.2094 75.1335C50.1837 74.9367 50.1837 74.9367 50.0761 74.858C50.0727 74.6942 50.0726 74.5297 50.0761 74.366H49.9106V73.8037H49.7451L49.6966 73.59C49.6748 73.4958 49.653 73.4016 49.6313 73.3067C49.6208 73.2606 49.6103 73.2147 49.5996 73.1669C49.5279 72.8583 49.434 72.5596 49.3314 72.2601C49.2437 71.9565 49.1609 71.6515 49.0781 71.3464C48.9747 70.9711 48.8572 70.6014 48.7173 70.2359C48.6479 70.0124 48.6513 69.8177 48.669 69.5885H48.5034V69.0262H48.3379V68.5342H48.1724V67.6205C48.2816 67.5973 48.3909 67.5741 48.5034 67.5502V67.4096C48.6425 67.288 48.6425 67.288 48.8246 67.1552C48.8841 67.1108 48.9437 67.0666 49.005 67.0209C49.1664 66.9183 49.1664 66.9183 49.3319 66.9183V66.7777H49.4974V66.6372C49.6117 66.5233 49.6117 66.5233 49.7457 66.4263H49.9113V66.2857H50.0768V66.1451H50.2423C50.2807 66.0799 50.2807 66.0799 50.32 66.013L50.4904 65.7234H50.656C50.6833 65.6306 50.7106 65.5379 50.7387 65.4423H50.9043C50.9298 65.3988 50.9555 65.3551 50.9819 65.3101L51.1524 65.0205H51.3179V64.8097H51.4835C51.5045 64.7596 51.5255 64.7092 51.5472 64.6579C51.6573 64.4414 51.7938 64.2685 51.9544 64.0759C52.3235 63.6155 52.6107 63.134 52.8896 62.628H53.0552C53.0671 62.5757 53.0791 62.5239 53.0914 62.4698C53.1298 62.3103 53.1726 62.1528 53.2205 61.9954H53.3861V61.7142H53.5516C53.56 61.6683 53.5685 61.6222 53.5772 61.5751C53.6516 61.2988 53.7684 61.0423 53.8875 60.7808C53.9109 60.7287 53.9341 60.6768 53.9582 60.6234C54.0154 60.4954 54.0733 60.3682 54.1304 60.241H54.2959V59.8193H54.4614V59.4678H54.627V59.0461H54.7925C54.8011 58.9935 54.8098 58.9407 54.8186 58.8866C54.9138 58.4452 55.0537 58.015 55.1845 57.5792C55.3177 57.1336 55.4369 56.6866 55.537 56.2367H55.7026V55.6744H55.8681V55.0418H56.0336C56.0322 54.9746 56.0322 54.9746 56.0307 54.9062C56.03 54.8481 56.0292 54.7902 56.0285 54.7305C56.0275 54.6726 56.0265 54.6145 56.0256 54.5548C56.0336 54.4093 56.0336 54.4093 56.1166 54.339C56.1318 54.2399 56.1432 54.1401 56.1528 54.0402C56.1821 53.7893 56.2344 53.5841 56.3647 53.3549C56.4467 53.3781 56.5286 53.4013 56.613 53.4252C56.8572 53.9447 56.9714 54.4866 57.0268 55.0418C57.0542 55.065 57.0815 55.0882 57.1096 55.1121C57.1364 55.33 57.1521 55.5479 57.1691 55.7665C57.1681 55.9493 57.1681 55.9493 57.2751 56.0259C57.2925 56.1868 57.3056 56.3478 57.3164 56.5094C57.3394 56.8714 57.3394 56.8714 57.4406 57.2193C57.452 57.3508 57.4592 57.4829 57.4638 57.6151C57.4685 57.7332 57.4685 57.7332 57.4732 57.8533C57.4761 57.9356 57.479 58.0178 57.4819 58.1022C57.4877 58.2631 57.4937 58.4248 57.5 58.5857C57.5025 58.6574 57.505 58.7291 57.5076 58.8022C57.5199 58.9948 57.5393 59.1832 57.5636 59.3751C57.6126 59.7764 57.6312 60.1763 57.6472 60.577C57.654 60.7337 57.661 60.8905 57.6678 61.0479C57.6783 61.2925 57.6886 61.5378 57.6989 61.7859C57.7089 62.0242 57.7194 62.2618 57.7299 62.5029C57.7328 62.5767 57.7358 62.6498 57.7388 62.7257C57.7418 62.7938 57.7449 62.862 57.748 62.9316C57.7505 62.9914 57.753 63.0511 57.7556 63.1129C57.7654 63.2795 57.7654 63.2795 57.854 63.4777C58.5741 63.5388 59.2859 63.5593 60.0142 63.56C60.1226 63.5602 60.2302 63.5604 60.342 63.5607C60.5696 63.5611 60.7963 63.5612 61.024 63.5612C61.312 63.5612 61.6 63.5622 61.8847 63.5634C62.1636 63.5643 62.4425 63.5643 62.7206 63.5644C62.8224 63.5649 62.9242 63.5654 63.0293 63.5659C64.1136 63.5805 64.1136 63.5805 65.1399 63.3375C65.3327 63.3346 65.5264 63.3344 65.7192 63.3375V63.1969H66.2158V63.0563H66.7124V62.9157H67.1262V62.7752C67.1968 62.7572 67.1968 62.7572 67.2686 62.7389C67.5963 62.6517 67.8968 62.5611 68.1955 62.4107C68.4538 62.2834 68.4538 62.2834 68.7021 62.2834V62.1429C68.8659 62.0965 69.0298 62.0501 69.1987 62.0023V61.8617H69.5297V61.7211H69.6952V61.5806C69.8285 61.5197 69.8285 61.5197 69.9642 61.4576C70.2183 61.3353 70.4029 61.1968 70.6057 61.0183H70.7712V60.8777H70.9367C70.9913 60.7617 71.046 60.6457 71.1023 60.5263H71.2678V60.3857H71.4333C71.464 60.327 71.464 60.327 71.4954 60.2669C71.5988 60.1045 71.5988 60.1045 71.7594 59.9372C71.9374 59.7447 72.0574 59.5528 72.1782 59.3314H72.3437V59.0502H72.5093C72.5197 59 72.5302 58.9497 72.541 58.8984C72.5924 58.6974 72.6651 58.5146 72.747 58.3213C73.3281 56.8594 73.5341 55.1303 72.7138 53.6964C72.6252 53.5467 72.535 53.3977 72.4431 53.2494C72.343 53.0737 72.343 53.0737 72.343 52.9331H72.1775C72.1228 52.7939 72.0682 52.6548 72.0119 52.5114H71.8464V52.3708H71.6809V52.2302C71.6314 52.2099 71.5815 52.1896 71.5311 52.1687C71.3498 52.09 71.3498 52.09 71.1015 51.9494V51.8089C71.0315 51.7915 70.9616 51.7741 70.8896 51.7561C70.6703 51.6883 70.5023 51.6233 70.3053 51.5235C70.0868 51.4167 69.9387 51.3499 69.6945 51.3168V51.1763H69.1979V51.0357C69.0779 51.0379 69.0779 51.0379 68.9546 51.0401C68.7013 51.0357 68.7013 51.0357 68.6186 50.9656C67.344 50.7533 66.0197 50.8032 64.7286 50.8025C64.3926 50.8023 64.0565 50.8012 63.7189 50.8002C63.1379 50.7987 62.5602 50.7976 61.9725 50.7969C61.1366 50.7959 60.2924 50.7941 59.4565 50.7921C58.0908 50.7889 56.7335 50.7863 55.3679 50.7842C54.0436 50.782 52.7194 50.7796 51.3951 50.7768C51.3135 50.7767 51.2321 50.7765 51.1477 50.7763C50.738 50.7754 50.3275 50.7746 49.9145 50.7737C46.5211 50.7665 43.1277 50.7601 39.7344 50.7545C39.7532 50.6744 39.7532 50.6744 39.7724 50.5936C39.8257 50.3665 39.8783 50.1395 39.9313 49.9125C39.9646 49.7698 39.998 49.6264 40.0314 49.4837C40.0544 49.3846 40.0774 49.2862 40.1003 49.1871C40.1334 49.0437 40.1668 48.901 40.2004 48.7576C40.2302 48.6297 40.2302 48.6297 40.2606 48.499C40.3142 48.2952 40.3142 48.2952 40.3972 48.1546C40.4228 47.9725 40.4394 47.7905 40.4567 47.607C40.4799 47.4517 40.4799 47.4517 40.5626 47.3814C40.5797 47.2879 40.5929 47.1945 40.604 47.1003C40.6362 46.8269 40.6362 46.8269 40.7281 46.7488C40.7453 46.6441 40.7585 46.538 40.7695 46.4325C40.8017 46.124 40.8017 46.124 40.8937 46.046C40.9073 45.9644 40.921 45.8836 40.935 45.8C40.9764 45.5539 40.9764 45.5539 41.0592 45.4837C41.0726 45.3817 41.0822 45.2791 41.0902 45.1758C41.1177 44.9122 41.1703 44.6725 41.2591 44.4167C41.3915 44.0161 41.4776 43.6154 41.5562 43.2078C41.6555 42.701 41.7664 42.2026 41.9104 41.7036C42.0015 41.3606 42.0685 41.0141 42.1356 40.6704C42.2099 40.2929 42.2099 40.2929 42.3011 40.2156C42.3113 40.1256 42.3216 40.0357 42.3321 39.9429C42.3703 39.614 42.467 39.3131 42.5746 38.994C42.6275 38.8218 42.6607 38.658 42.6839 38.4816C42.7149 38.2441 42.7149 38.2441 42.7981 38.1738C42.8376 38.0241 42.8727 37.8736 42.9057 37.7225C42.916 37.6764 42.9263 37.6304 42.937 37.5827C42.9702 37.4343 43.0029 37.2853 43.0355 37.137C43.0781 36.9437 43.1207 36.7512 43.1637 36.5586C43.1743 36.5111 43.1849 36.4637 43.1959 36.4145C43.2828 36.0328 43.3838 35.6554 43.4914 35.2758C43.562 35.001 43.5916 34.7269 43.6247 34.4464L43.7074 34.3761C43.7266 34.27 43.7415 34.1625 43.7539 34.0556C43.7609 33.9976 43.7678 33.9397 43.775 33.8799C43.78 33.8351 43.785 33.7899 43.7902 33.7443H43.9557C43.9548 33.6944 43.9538 33.6444 43.9528 33.5931C43.9521 33.5285 43.9513 33.4638 43.9506 33.397C43.9496 33.3326 43.9486 33.2684 43.9476 33.2016C43.9557 33.0407 43.9557 33.0407 44.0387 32.9704C44.0523 32.8896 44.066 32.808 44.0801 32.7244C44.1214 32.4784 44.1214 32.4784 44.2042 32.4081C44.2437 32.2338 44.2794 32.0602 44.3126 31.8852C44.3987 31.4508 44.4997 31.0206 44.618 30.5919C44.762 30.0647 44.8638 29.5376 44.9458 29.0034C44.9547 28.9474 44.9637 28.8916 44.9729 28.834C44.9804 28.7846 44.9878 28.7356 44.9954 28.6843C45.0391 28.5156 45.0781 28.4045 45.1974 28.2625C45.5508 28.129 45.905 28.0896 46.2899 28.0517C46.3458 28.046 46.4016 28.0404 46.4596 28.0345C46.64 28.0164 46.8196 27.9989 47 27.9814C47.1233 27.969 47.2475 27.9566 47.3708 27.9442C48.0818 27.8732 48.7944 27.8036 49.5061 27.7418C49.7412 27.7209 49.9423 27.6934 50.1674 27.6293C50.2866 27.6199 50.4066 27.6136 50.5266 27.6096C50.5957 27.6069 50.6649 27.6043 50.736 27.6016L51.1714 27.5868C51.2404 27.5842 51.3096 27.5815 51.3808 27.5789C51.4751 27.5757 51.4751 27.5757 51.572 27.5724C51.7574 27.5633 51.7574 27.5633 51.9891 27.4888C52.1381 27.4791 52.287 27.4729 52.436 27.469C52.5238 27.4664 52.6107 27.4638 52.7009 27.4611C52.7919 27.4586 52.883 27.4562 52.9773 27.4537C53.1577 27.4488 53.3373 27.4437 53.5178 27.4383C53.6378 27.4351 53.6378 27.4351 53.7603 27.4318C53.9672 27.4252 53.9672 27.4252 54.1253 27.3831C54.3512 27.3399 54.5589 27.3393 54.7907 27.3391L54.783 27.3361ZM55.0445 33.5284C54.8997 33.5393 54.7548 33.5477 54.61 33.5548C54.2334 33.5837 53.9445 33.6074 53.6333 33.8092C53.5158 34.0046 53.4513 34.1621 53.385 34.3715C53.3597 34.4453 53.3345 34.5184 53.3084 34.5943C53.0891 35.2761 52.96 35.965 52.8458 36.6608C52.7733 37.0931 52.6753 37.5042 52.5288 37.926C52.452 38.1685 52.4245 38.4088 52.3922 38.657C52.3649 38.6802 52.3376 38.7034 52.3094 38.7272C52.2861 38.82 52.267 38.9142 52.2499 39.0084C52.2393 39.0649 52.2288 39.1216 52.2179 39.1799C52.2071 39.2394 52.1964 39.2987 52.1852 39.3598C52.1639 39.4772 52.1424 39.5939 52.1206 39.7113C52.1111 39.7635 52.1017 39.8153 52.0919 39.8694C52.0611 39.9924 52.0611 39.9924 51.9785 40.0627C51.938 40.2202 51.9019 40.3783 51.8676 40.5372C51.8571 40.5853 51.8466 40.6334 51.8358 40.6833C51.802 40.838 51.7686 40.9933 51.7356 41.1487C51.4774 42.3365 51.4774 42.3365 51.3888 42.7301C51.3768 42.784 51.3646 42.8377 51.3521 42.8932C51.3168 43.0127 51.3168 43.0127 51.2337 43.083C51.2167 43.1764 51.2034 43.2699 51.1924 43.3641C51.1602 43.6375 51.1602 43.6375 51.0682 43.7155C51.0546 43.7964 51.0409 43.8779 51.0268 43.9616C50.9854 44.2076 50.9854 44.2076 50.9027 44.2778C50.882 44.4508 50.882 44.4508 50.9027 44.6293C51.4704 45.1115 53.1456 44.9343 53.9071 44.9364C53.9964 44.9364 54.0858 44.9364 54.1777 44.9364C54.4483 44.9367 54.719 44.9393 54.9896 44.9419C56.0738 44.9468 57.0587 44.8604 58.1099 44.6292C58.2472 44.6012 58.2472 44.6012 58.3879 44.5726C58.8638 44.4756 59.2901 44.3245 59.7287 44.1432C59.9067 44.0751 60.0689 44.03 60.2593 43.9963V43.8557H60.4248V43.7151H60.7559V43.5746C60.7986 43.5688 60.8411 43.563 60.885 43.557C61.173 43.4818 61.4072 43.3539 61.6663 43.2231V43.0825C61.7606 43.0521 61.7606 43.0521 61.8575 43.021C62.0925 42.9444 62.0925 42.9444 62.3284 42.8017V42.6612H62.4939V42.5206H62.6595V42.38H62.825C63.0236 42.1945 63.0236 42.1945 63.0733 41.9583H63.2388V41.8177H63.4043V41.6069H63.5699C63.6245 41.4677 63.6791 41.3285 63.7354 41.1851H63.9009V40.904H64.0665C64.1322 40.7388 64.1972 40.5729 64.2634 40.4078C64.2818 40.3616 64.3001 40.3157 64.3191 40.2679C64.3739 40.1287 64.4275 39.9895 64.4805 39.8497C64.5111 39.771 64.5417 39.6922 64.5732 39.6114C64.6625 39.3 64.6874 39.0013 64.7031 38.6836C64.7063 38.6218 64.7094 38.5599 64.7127 38.4959C64.7559 37.5049 64.5927 36.7809 64.0721 35.9023C64.0444 35.8542 64.0167 35.806 63.9885 35.7561C63.7617 35.3696 63.5134 35.0251 63.0781 34.7932H62.9125V34.6526H62.747V34.5121H62.4987V34.3715C62.243 34.2478 62.1486 34.2309 61.8366 34.2309V34.0903C61.5511 34.0088 61.2647 33.9287 60.9758 33.8485C60.8959 33.8257 60.8161 33.8028 60.7333 33.7792C60.269 33.6506 59.8395 33.567 59.3512 33.541C59.1881 33.5275 59.1881 33.5275 59.0226 33.4573C58.9009 33.4507 58.7793 33.4483 58.6568 33.4483C58.5811 33.448 58.5053 33.4478 58.4275 33.4476C58.3456 33.4477 58.2636 33.4479 58.1792 33.448C58.0956 33.4479 58.0112 33.4479 57.9251 33.4478C57.7472 33.4478 57.5701 33.4479 57.3921 33.4482C57.1198 33.4486 56.8475 33.4482 56.5744 33.4477C56.4023 33.4478 56.2301 33.4479 56.0579 33.448C55.9355 33.4478 55.9355 33.4478 55.8097 33.4476C55.734 33.4478 55.6582 33.448 55.5804 33.4483C55.4802 33.4483 55.4802 33.4483 55.3784 33.4484C55.2088 33.4487 55.2088 33.4487 55.0499 33.5278L55.0445 33.5284Z" fill="#E3C138"/>
<path d="M53.873 54.6076H53.9557C53.9581 54.8873 53.9596 55.1671 53.9609 55.444C53.9616 55.5241 53.9623 55.6036 53.963 55.6858C53.9633 55.7617 53.9635 55.8376 53.9638 55.9156C53.9643 55.9859 53.9647 56.0562 53.9651 56.1286C53.9557 56.2917 53.9557 56.2917 53.8733 56.362C53.8522 56.5082 53.8337 56.6543 53.8163 56.8013C53.751 57.2757 53.621 57.729 53.4646 58.1859C53.4332 58.278 53.4332 58.278 53.4012 58.3722C53.2729 58.7398 53.1256 59.0961 52.9625 59.4546C52.9089 59.5818 52.8558 59.709 52.802 59.837C52.653 60.1856 52.4841 60.5244 52.3004 60.8632H52.1349V61.1443H51.9693V61.4255H51.8038V61.7066H51.6383C51.611 61.8226 51.5837 61.9386 51.5555 62.0581H51.39C51.3815 62.0957 51.3729 62.1333 51.3642 62.1719C51.2923 62.3828 51.1788 62.5662 51.0588 62.7609H50.8932C50.8386 62.9001 50.784 63.0393 50.7277 63.1827H50.5622C50.54 63.2349 50.5178 63.2874 50.495 63.3408C50.4006 63.5264 50.3063 63.6648 50.1482 63.8152H49.9826C49.928 63.9544 49.8734 64.0936 49.8171 64.237H49.6516V64.3775H49.4861V64.5181H49.3205C49.2966 64.5601 49.2728 64.6025 49.2481 64.6453C49.1554 64.7993 49.1554 64.7993 48.9899 65.0101H48.8244C48.7859 65.0754 48.7859 65.0754 48.7467 65.1423L48.5762 65.4319H48.4107V65.5724C48.1243 65.7833 48.1243 65.7833 47.9141 65.7833V65.9239H47.7486V66.0644C47.5433 66.134 47.5433 66.134 47.3347 66.205V66.3456H47.1692V66.4862H47.0037V66.6267C46.7554 66.7673 46.7554 66.7673 46.5071 66.7673V66.9079H46.3416V67.0485H46.176C46.1939 68.1028 46.1939 68.1028 46.455 69.129C46.5452 69.4165 46.5276 69.7039 46.5073 70.0005H46.6729V70.6331H46.8384C46.8434 70.678 46.8484 70.7231 46.8536 70.7688C46.8641 70.8559 46.8641 70.8559 46.8747 70.9445C46.8814 71.0024 46.8881 71.0605 46.895 71.1202C46.9038 71.2643 46.9038 71.2643 47.0043 71.336C47.0215 71.4393 47.0346 71.5434 47.0456 71.6481C47.0697 71.8878 47.0697 71.8878 47.1698 72.1092C47.1964 72.2448 47.22 72.3812 47.2422 72.5175C47.2978 72.8387 47.3672 73.1508 47.4591 73.4664C47.6089 73.9929 47.68 74.5207 47.7487 75.0619C47.5335 74.993 47.4375 74.9558 47.3349 74.7766C47.3063 74.6887 47.3063 74.6887 47.2771 74.5994C47.2451 74.5032 47.2451 74.5032 47.2125 74.4048C47.1811 74.3035 47.1811 74.3035 47.1491 74.2009C47.1269 74.1347 47.1047 74.0688 47.0819 73.9999C46.9743 73.6681 46.8915 73.3708 46.9213 73.0229H46.7558C46.7439 72.9435 46.7319 72.8633 46.7196 72.7811C46.7051 72.5442 46.7051 72.5442 46.5904 72.4606C46.5802 72.3798 46.57 72.2982 46.5594 72.2146C46.5307 71.9974 46.4784 71.809 46.3906 71.6038C46.235 71.2186 46.1464 70.8306 46.0554 70.43C45.9753 70.0898 45.8716 69.7672 45.7334 69.4389C45.6547 69.2295 45.6291 69.0221 45.5968 68.8042L45.5141 68.734C45.5081 68.6271 45.5071 68.5203 45.5089 68.4134C45.5097 68.3554 45.5104 68.2975 45.5112 68.2377C45.5126 68.1705 45.5126 68.1705 45.5141 68.1021H45.3485V67.6101H45.183C45.0539 67.1223 45.0539 67.1223 45.1811 66.9163C45.292 66.8018 45.292 66.8018 45.5138 66.626H45.6793V66.4855C45.9177 66.3505 46.1668 66.2395 46.4242 66.134V65.9934H46.5897V65.8529H46.7553V65.7123C46.9605 65.6427 46.9605 65.6427 47.1691 65.5717V65.4311C47.3023 65.3222 47.3023 65.3222 47.4795 65.1985C47.7418 65.0101 47.9504 64.8175 48.1623 64.5877C48.2357 64.5384 48.3088 64.4893 48.3849 64.4387C48.5968 64.3164 48.5968 64.3164 48.6589 64.0957H48.8244V63.9551H48.9899V63.8145H49.1555C49.1776 63.7754 49.1998 63.7365 49.2227 63.6958C49.3303 63.5186 49.4387 63.3478 49.5695 63.1819H49.735V63.0414H49.9005V62.7602H50.066V62.5494H50.2316V62.3385H50.3971C50.479 62.1297 50.561 61.921 50.6454 61.7059H50.8109C50.8195 61.6696 50.828 61.6335 50.8368 61.5963C50.9137 61.3643 51.0271 61.1535 51.1422 60.9327H51.3077V60.6516H51.4732V60.3704H51.6387V60.0893H51.8043C51.8139 60.0395 51.8235 59.9895 51.8334 59.9389C51.8909 59.7238 51.9791 59.5404 52.0834 59.3386C52.2729 58.9626 52.4227 58.5866 52.5485 58.1929H52.714V57.8415H52.8796V57.4198H53.0451V56.9278H53.2106V56.506H53.3762C53.371 56.4379 53.3659 56.3697 53.3606 56.2994C53.3606 56.0281 53.4442 55.8095 53.5526 55.5543C53.6801 55.2437 53.7736 54.9246 53.8729 54.6055L53.873 54.6076Z" fill="#E3C138"/>
<path d="M51.4714 55.8729H51.6369C51.6508 56.1801 51.6482 56.379 51.4714 56.6461C51.3948 56.8626 51.3241 57.0805 51.2545 57.2991C51.1213 57.6997 50.9458 58.0652 50.7331 58.4447C50.6537 58.5966 50.6007 58.7357 50.5601 58.8981H50.3946C50.3861 58.9604 50.3776 59.0225 50.3688 59.0872C50.3103 59.3269 50.2157 59.4667 50.0634 59.6713C50.0058 59.8252 50.0058 59.8252 49.9806 59.9524H49.8151L49.6496 60.3741H49.484V60.6553H49.3185C49.2981 60.7166 49.2778 60.7783 49.2568 60.8408C49.1459 61.0918 49.0085 61.2647 48.8164 61.4762C48.569 61.749 48.569 61.749 48.4076 62.0603H48.2421V62.2009H48.0765V62.4118H47.911V62.6226H47.7455V62.7632H47.5799C47.5611 62.7995 47.5424 62.8356 47.523 62.8729C47.3748 63.1069 47.2077 63.3353 47.0007 63.5364H46.8352V63.6769H46.6697V63.8175H46.5042V63.9581H46.3386V64.0987H46.1731C46.1411 64.1601 46.1411 64.1601 46.1085 64.2231C45.9992 64.3925 45.8792 64.5077 45.7178 64.6434C45.6675 64.6866 45.6168 64.7299 45.5655 64.7741C45.4281 64.8718 45.4281 64.8718 45.2626 64.8718V65.0124H45.0971V65.153H44.9315V65.2936H44.766V65.4341H44.5177V65.5747H44.2694V65.7153C44.0642 65.7849 44.0642 65.7849 43.8556 65.8559V65.9964H43.6901V66.137H43.5245V66.3479H43.359C43.2489 66.6874 43.306 66.8694 43.4608 67.1773C43.551 67.3944 43.5701 67.6081 43.5891 67.8366C43.5913 67.9638 43.5913 67.9638 43.6892 68.0327C43.6952 68.1395 43.6962 68.2463 43.6944 68.3532C43.6937 68.4112 43.6929 68.4691 43.6922 68.5289C43.6912 68.5737 43.6902 68.6189 43.6892 68.6645H43.8548C43.8685 68.7279 43.8822 68.7911 43.8964 68.8564C43.9485 69.0961 44.0007 69.3358 44.0537 69.5734C44.0762 69.676 44.0985 69.7793 44.1209 69.8819C44.2483 70.4674 44.3832 71.0487 44.5496 71.625C44.6141 71.8788 44.6439 72.1311 44.6646 72.3912C44.6735 72.5325 44.6735 72.5325 44.7648 72.6674C44.7904 72.8495 44.807 73.0315 44.8243 73.215C44.8282 73.3689 44.8282 73.3689 44.9302 73.4406C44.9362 73.5474 44.9372 73.6542 44.9354 73.7611C44.9346 73.8191 44.9339 73.8771 44.9331 73.9368C44.9322 73.9816 44.9312 74.0268 44.9302 74.0725H45.0957C45.1008 74.1326 45.1058 74.1926 45.111 74.2545C45.1179 74.3318 45.1249 74.4098 45.132 74.49C45.1387 74.5673 45.1454 74.6446 45.1524 74.7247C45.1541 74.9096 45.1541 74.9096 45.2616 74.9862C45.265 75.15 45.2651 75.3144 45.2616 75.4782C45.1797 75.455 45.0977 75.4318 45.0133 75.4079C44.9332 75.2385 44.8701 75.0776 44.8114 74.9026C44.7939 74.8523 44.7764 74.802 44.7585 74.75C44.7224 74.646 44.6868 74.5413 44.6517 74.4373C44.6025 74.2925 44.5516 74.1484 44.4994 74.0043C44.362 73.6156 44.2495 73.2873 44.2685 72.8797H44.103C44.0841 72.7356 44.0652 72.5915 44.0464 72.4474C44.0352 72.3167 44.0352 72.3167 43.9371 72.2471C43.9254 72.0594 43.9336 71.8732 43.9371 71.6848H43.7716C43.7597 71.6054 43.7477 71.5252 43.7353 71.443C43.7209 71.2061 43.7209 71.2061 43.6062 71.1225C43.5672 70.9665 43.5317 70.8097 43.4978 70.6523C43.4182 70.298 43.3248 69.9529 43.2032 69.605C43.0269 69.1038 42.8936 68.5999 42.7653 68.0868C42.6894 67.7916 42.6073 67.509 42.4773 67.2293C42.3523 66.9502 42.3432 66.7787 42.3647 66.4842H42.1992V66.0625C42.3085 66.0393 42.4177 66.0161 42.5303 65.9922V65.8516H42.7786V65.7111H43.0269V65.5705H43.2752V65.4299H43.6062V65.2893H43.7718V65.1488C43.8851 65.0839 43.9985 65.0194 44.1144 64.9583C44.3577 64.8156 44.5696 64.6441 44.7865 64.474C44.9296 64.3763 44.9296 64.3763 45.0952 64.3763V64.2357C45.1601 64.2184 45.2251 64.2009 45.2921 64.183C45.5504 64.079 45.5537 64.0235 45.6745 63.814C45.8061 63.6938 45.8061 63.6938 45.9543 63.5764C46.1455 63.4197 46.3044 63.2714 46.4459 63.0802C46.492 63.0207 46.5378 62.9614 46.5858 62.9003H46.7513V62.7597H46.9168V62.6191H47.0824V62.4785H47.2479C47.2701 62.4394 47.2922 62.4005 47.3151 62.3598C47.4227 62.1826 47.5311 62.0118 47.6619 61.846H47.8274V61.7054H47.9929V61.4242H48.1585C48.2131 61.3083 48.2677 61.1923 48.324 61.0728H48.4895V60.7916H48.6551V60.6511H48.8206V60.3699H48.9861C49.0083 60.3206 49.0305 60.2715 49.0533 60.2209C49.1576 60.0072 49.276 59.8027 49.4001 59.5968H49.5656V59.3156H49.7312V59.0345H49.8967C49.9049 58.9981 49.9132 58.9621 49.9216 58.9241C49.9998 58.6929 50.1211 58.482 50.2436 58.2655C50.2959 58.1713 50.3478 58.0771 50.4 57.983C50.4529 57.8881 50.5059 57.7932 50.5589 57.6983C50.6524 57.5303 50.7451 57.3616 50.8386 57.1929C50.8785 57.1212 50.9184 57.0488 50.9595 56.9743C51.0398 56.8155 51.0977 56.6714 51.1383 56.5027H51.3038C51.3157 56.4506 51.3277 56.398 51.34 56.3446C51.3784 56.185 51.4212 56.0276 51.4691 55.8701L51.4714 55.8729Z" fill="#E3C138"/>
<path d="M51.6367 55.5918H51.8023C51.775 55.6846 51.7476 55.7774 51.7195 55.873C51.6922 55.7802 51.6649 55.6874 51.6367 55.5918Z" fill="#E3C138"/>
</svg>
