<svg width="75" height="73" viewBox="0 0 75 73" fill="none" xmlns="http://www.w3.org/2000/svg">
<path d="M32.3362 3.86113C33.8812 -1.18524 41.0251 -1.18524 42.5701 3.86113C43.6951 7.53577 48.2116 8.86193 51.1447 6.37886C55.1727 2.96888 61.1825 6.83115 59.754 11.9117C58.7138 15.6113 61.7963 19.1687 65.6062 18.6656C70.8384 17.9746 73.8061 24.4729 69.8575 27.9746C66.9823 30.5245 67.6522 35.1838 71.1294 36.8203C75.9045 39.0678 74.8878 46.1389 69.6729 46.95C65.8756 47.5407 63.9201 51.8224 65.9605 55.0791C68.7625 59.5514 64.0843 64.9503 59.2587 62.8133C55.7449 61.2572 51.785 63.8021 51.7408 67.6448C51.6801 72.9221 44.8256 74.9347 41.9214 70.528C39.8067 67.3192 35.0996 67.3192 32.9848 70.528C30.0807 74.9347 23.2262 72.9221 23.1655 67.6448C23.1213 63.8021 19.1614 61.2572 15.6475 62.8133C10.822 64.9503 6.14371 59.5514 8.94574 55.0791C10.9861 51.8224 9.03068 47.5407 5.23333 46.95C0.0184488 46.1389 -0.998232 39.0677 3.7769 36.8203C7.25403 35.1838 7.92393 30.5245 5.04871 27.9746C1.10019 24.4729 4.06786 17.9746 9.30002 18.6656C13.11 19.1687 16.1925 15.6113 15.1523 11.9117C13.7237 6.83115 19.7335 2.96888 23.7616 6.37886C26.6947 8.86193 31.2111 7.53577 32.3362 3.86113Z" fill="#FAD201"/>
</svg>
