<svg width="41" height="41" viewBox="0 0 41 41" fill="none" xmlns="http://www.w3.org/2000/svg">
<path fill-rule="evenodd" clip-rule="evenodd" d="M6.01494 9.40652C5.38574 10.303 5.38574 12.9676 5.38574 18.297V20.9215C5.38574 30.3182 12.4507 34.8783 16.8833 36.8147C18.0857 37.3398 18.6869 37.6025 20.3857 37.6025V4.26917C19.0334 4.26917 17.7274 4.71623 15.1153 5.61037L14.1606 5.93715C9.14961 7.65243 6.64413 8.51007 6.01494 9.40652Z" fill="#FAD201"/>
<path opacity="0.5" d="M35.3857 20.9215V18.297C35.3857 12.9676 35.3857 10.303 34.7566 9.40652C34.1274 8.51007 31.6219 7.65243 26.6109 5.93715L25.6562 5.61037C23.0441 4.71623 21.7381 4.26917 20.3857 4.26917V37.6025C22.0846 37.6025 22.6857 37.3398 23.8881 36.8147C28.3207 34.8783 35.3857 30.3182 35.3857 20.9215Z" fill="white"/>
</svg>
