<svg width="41" height="41" viewBox="0 0 41 41" fill="none" xmlns="http://www.w3.org/2000/svg">
<path fill-rule="evenodd" clip-rule="evenodd" d="M6.00811 8.60354C5.37891 9.49999 5.37891 12.1646 5.37891 17.494V20.1185C5.37891 29.5152 12.4438 34.0754 16.8765 36.0117C18.0789 36.5369 18.6801 36.7995 20.3789 36.7995V3.46619C19.0266 3.46619 17.7206 3.91325 15.1084 4.80739L14.1538 5.13417C9.14277 6.84945 6.63729 7.70709 6.00811 8.60354Z" fill="#FAD201"/>
<path opacity="0.5" d="M35.3789 20.1185V17.494C35.3789 12.1646 35.3789 9.49999 34.7497 8.60354C34.1206 7.70709 31.6151 6.84945 26.6041 5.13417L25.6494 4.80739C23.0372 3.91325 21.7312 3.46619 20.3789 3.46619V36.7995C22.0777 36.7995 22.6789 36.5369 23.8812 36.0117C28.3139 34.0754 35.3789 29.5152 35.3789 20.1185Z" fill="white"/>
</svg>
