<svg width="22" height="22" viewBox="0 0 22 22" fill="none" xmlns="http://www.w3.org/2000/svg">
<g filter="url(#filter0_f_1_174)">
<path d="M7.5115 4.00798C8.79355 1.15149 12.849 1.15149 14.1311 4.00798C14.6586 5.18338 15.77 5.99082 17.0509 6.12932C20.1637 6.46592 21.4169 10.3229 19.0964 12.4249C18.1416 13.2898 17.7171 14.5963 17.9812 15.8573C18.623 18.9218 15.342 21.3056 12.6258 19.7482C11.5081 19.1074 10.1344 19.1074 9.01677 19.7482C6.30057 21.3056 3.01962 18.9218 3.66142 15.8573C3.92551 14.5963 3.50102 13.2898 2.54617 12.4249C0.225658 10.3229 1.47887 6.46592 4.59173 6.12932C5.87262 5.99082 6.98396 5.18338 7.5115 4.00798Z" fill="url(#paint0_linear_1_174)"/>
</g>
<defs>
<filter id="filter0_f_1_174" x="0.349243" y="0.865723" width="20.9441" height="20.3728" filterUnits="userSpaceOnUse" color-interpolation-filters="sRGB">
<feFlood flood-opacity="0" result="BackgroundImageFix"/>
<feBlend mode="normal" in="SourceGraphic" in2="BackgroundImageFix" result="shape"/>
<feGaussianBlur stdDeviation="0.5" result="effect1_foregroundBlur_1_174"/>
</filter>
<linearGradient id="paint0_linear_1_174" x1="10.8213" y1="-3.36646" x2="39.282" y2="26.6335" gradientUnits="userSpaceOnUse">
<stop stop-color="#E3C138"/>
<stop offset="1"/>
</linearGradient>
</defs>
</svg>
