<svg width="63" height="63" viewBox="0 0 63 63" fill="none" xmlns="http://www.w3.org/2000/svg">
<path d="M30.8468 0.776766C31.2356 0.131967 32.1706 0.131968 32.5595 0.776766L43.613 19.1068C43.697 19.2461 43.8137 19.3628 43.953 19.4468L62.2831 30.5003C62.9278 30.8892 62.9278 31.8242 62.283 32.213L43.953 43.2666C43.8137 43.3506 43.697 43.4673 43.613 43.6065L32.5595 61.9366C32.1706 62.5814 31.2356 62.5814 30.8468 61.9366L19.7932 43.6065C19.7092 43.4673 19.5925 43.3506 19.4533 43.2666L1.1232 32.213C0.478403 31.8242 0.478404 30.8892 1.1232 30.5003L19.4533 19.4468C19.5925 19.3628 19.7092 19.2461 19.7932 19.1068L30.8468 0.776766Z" fill="#FAD201"/>
</svg>
