<svg width="62" height="60" viewBox="0 0 62 60" fill="none" xmlns="http://www.w3.org/2000/svg">
<g filter="url(#filter0_f_1_172)">
<path d="M21.061 8.4943C25.0353 -0.360817 37.6073 -0.360817 41.5816 8.4943C43.217 12.138 46.6622 14.6411 50.6329 15.0705C60.2828 16.1139 64.1677 28.0706 56.9742 34.5868C54.0141 37.2681 52.6982 41.3181 53.5169 45.2272C55.5065 54.7272 45.3355 62.1169 36.9153 57.289C33.4505 55.3024 29.1921 55.3024 25.7273 57.289C17.3071 62.1169 7.13611 54.7272 9.1257 45.2272C9.94439 41.3181 8.62845 37.2681 5.66841 34.5868C-1.52516 28.0706 2.35979 16.1139 12.0096 15.0705C15.9804 14.6411 19.4256 12.138 21.061 8.4943Z" fill="#E3C138"/>
</g>
<defs>
<filter id="filter0_f_1_172" x="0.958038" y="0.853027" width="60.7265" height="58.9563" filterUnits="userSpaceOnUse" color-interpolation-filters="sRGB">
<feFlood flood-opacity="0" result="BackgroundImageFix"/>
<feBlend mode="normal" in="SourceGraphic" in2="BackgroundImageFix" result="shape"/>
<feGaussianBlur stdDeviation="0.5" result="effect1_foregroundBlur_1_172"/>
</filter>
</defs>
</svg>
