<svg width="75" height="74" viewBox="0 0 75 74" fill="none" xmlns="http://www.w3.org/2000/svg">
<path d="M32.342 4.66411C33.887 -0.382265 41.0309 -0.382263 42.5759 4.66411C43.701 8.33875 48.2174 9.66491 51.1506 7.18184C55.1786 3.77186 61.1884 7.63413 59.7598 12.7147C58.7196 16.4142 61.8022 19.9717 65.6121 19.4685C70.8442 18.7776 73.8119 25.2759 69.8634 28.7776C66.9882 31.3275 67.6581 35.9867 71.1352 37.6233C75.9103 39.8707 74.8937 46.9419 69.6788 47.753C65.8814 48.3436 63.926 52.6254 65.9664 55.882C68.7684 60.3543 64.0902 65.7533 59.2646 63.6163C55.7507 62.0602 51.7908 64.605 51.7466 68.4478C51.6859 73.725 44.8314 75.7377 41.9273 71.331C39.8126 68.1222 35.1054 68.1222 32.9907 71.331C30.0865 75.7377 23.232 73.725 23.1713 68.4478C23.1271 64.605 19.1672 62.0602 15.6534 63.6163C10.8278 65.7533 6.14957 60.3543 8.9516 55.882C10.992 52.6254 9.03654 48.3436 5.23919 47.753C0.0243082 46.9419 -0.992373 39.8707 3.78276 37.6233C7.25989 35.9867 7.92979 31.3275 5.05457 28.7776C1.10605 25.2759 4.07372 18.7776 9.30588 19.4685C13.1158 19.9717 16.1983 16.4143 15.1581 12.7147C13.7296 7.63413 19.7394 3.77186 23.7674 7.18184C26.7005 9.66491 31.217 8.33875 32.342 4.66411Z" fill="#FAD201"/>
</svg>
