<svg width="76" height="74" viewBox="0 0 76 74" fill="none" xmlns="http://www.w3.org/2000/svg">
<g filter="url(#filter0_f_1_177)">
<path d="M25.2119 10.148C30.1692 -0.89706 45.8504 -0.89706 50.8076 10.148C52.8474 14.6929 57.1446 17.815 62.0974 18.3506C74.1338 19.6521 78.9795 34.5657 70.0069 42.6935C66.3148 46.0379 64.6734 51.0896 65.6946 55.9654C68.1762 67.8149 55.4899 77.0321 44.9873 71.0102C40.6656 68.5323 35.3539 68.5323 31.0323 71.0102C20.5296 77.0321 7.8433 67.8149 10.3249 55.9654C11.3461 51.0896 9.70472 46.0379 6.01263 42.6935C-2.96001 34.5657 1.88575 19.6521 13.9221 18.3506C18.8749 17.815 23.1721 14.6929 25.2119 10.148Z" fill="url(#paint0_linear_1_177)"/>
</g>
<defs>
<filter id="filter0_f_1_177" x="0.384644" y="0.864258" width="75.2502" height="73.0422" filterUnits="userSpaceOnUse" color-interpolation-filters="sRGB">
<feFlood flood-opacity="0" result="BackgroundImageFix"/>
<feBlend mode="normal" in="SourceGraphic" in2="BackgroundImageFix" result="shape"/>
<feGaussianBlur stdDeviation="0.5" result="effect1_foregroundBlur_1_177"/>
</filter>
<linearGradient id="paint0_linear_1_177" x1="38.0098" y1="-18.3665" x2="138.659" y2="76.1558" gradientUnits="userSpaceOnUse">
<stop offset="0.185029" stop-color="#E3C138"/>
<stop offset="1"/>
</linearGradient>
</defs>
</svg>
