<svg width="11" height="11" viewBox="0 0 11 11" fill="none" xmlns="http://www.w3.org/2000/svg">
<g filter="url(#filter0_f_1_176)">
<path d="M3.88705 2.82913C4.4426 1.59132 6.19998 1.59132 6.75553 2.82913C6.98413 3.33847 7.46571 3.68836 8.02077 3.74838C9.36967 3.89424 9.91273 5.5656 8.90718 6.47647C8.49341 6.85128 8.30946 7.41741 8.4239 7.96384C8.70201 9.2918 7.28027 10.3248 6.10325 9.64989C5.61892 9.3722 5.02365 9.3722 4.53933 9.64989C3.36231 10.3248 1.94056 9.2918 2.21868 7.96384C2.33312 7.41741 2.14917 6.85128 1.7354 6.47647C0.729849 5.5656 1.27291 3.89424 2.62181 3.74838C3.17686 3.68836 3.65845 3.33847 3.88705 2.82913Z" fill="#E3C138"/>
</g>
<defs>
<filter id="filter0_f_1_176" x="0.216736" y="0.900879" width="10.2091" height="9.96143" filterUnits="userSpaceOnUse" color-interpolation-filters="sRGB">
<feFlood flood-opacity="0" result="BackgroundImageFix"/>
<feBlend mode="normal" in="SourceGraphic" in2="BackgroundImageFix" result="shape"/>
<feGaussianBlur stdDeviation="0.5" result="effect1_foregroundBlur_1_176"/>
</filter>
</defs>
</svg>
