<svg width="63" height="63" viewBox="0 0 63 63" fill="none" xmlns="http://www.w3.org/2000/svg">
<path d="M30.839 0.973787C31.2278 0.328989 32.1628 0.328989 32.5517 0.973788L43.6052 19.3039C43.6892 19.4431 43.8059 19.5598 43.9452 19.6438L62.2752 30.6974C62.92 31.0862 62.92 32.0212 62.2752 32.4101L43.9452 43.4636C43.8059 43.5476 43.6892 43.6643 43.6052 43.8036L32.5517 62.1336C32.1628 62.7784 31.2278 62.7784 30.839 62.1336L19.7854 43.8036C19.7014 43.6643 19.5847 43.5476 19.4455 43.4636L1.11539 32.4101C0.470591 32.0212 0.470591 31.0862 1.11539 30.6974L19.4455 19.6438C19.5847 19.5598 19.7014 19.4431 19.7854 19.3039L30.839 0.973787Z" fill="#FAD201"/>
</svg>
