<svg width="26" height="25" viewBox="0 0 26 25" fill="none" xmlns="http://www.w3.org/2000/svg">
<g filter="url(#filter0_f_1_173)">
<path d="M8.84955 4.48287C10.388 1.05508 15.2546 1.05508 16.793 4.48287C17.4261 5.89335 18.7597 6.86228 20.2968 7.02848C24.0322 7.43239 25.536 12.0608 22.7514 14.5832C21.6056 15.6211 21.0962 17.1889 21.4131 18.7021C22.1833 22.3795 18.2462 25.24 14.9867 23.3711C13.6455 22.6021 11.9971 22.6021 10.6559 23.3711C7.39643 25.24 3.45928 22.3795 4.22945 18.7021C4.54636 17.1889 4.03696 15.6211 2.89114 14.5832C0.106533 12.0608 1.61039 7.43239 5.34581 7.02848C6.88288 6.86228 8.2165 5.89335 8.84955 4.48287Z" fill="url(#paint0_linear_1_173)"/>
</g>
<defs>
<filter id="filter0_f_1_173" x="0.454865" y="0.912109" width="24.7328" height="24.0476" filterUnits="userSpaceOnUse" color-interpolation-filters="sRGB">
<feFlood flood-opacity="0" result="BackgroundImageFix"/>
<feBlend mode="normal" in="SourceGraphic" in2="BackgroundImageFix" result="shape"/>
<feGaussianBlur stdDeviation="0.5" result="effect1_foregroundBlur_1_173"/>
</filter>
<linearGradient id="paint0_linear_1_173" x1="12.8213" y1="-4.36646" x2="46.9741" y2="31.6335" gradientUnits="userSpaceOnUse">
<stop stop-color="#E3C138"/>
<stop offset="1"/>
</linearGradient>
</defs>
</svg>
