<svg width="188" height="142" viewBox="0 0 188 142" fill="none" xmlns="http://www.w3.org/2000/svg">
<g clip-path="url(#clip0_1_80)">
<path d="M50.2542 140.818L45.9168 140.951C45.2579 140.988 44.6061 140.786 44.0609 140.374C43.5899 139.986 43.3738 139.461 43.4685 138.934L44.3221 134.182C44.4829 133.285 45.4745 132.608 46.6797 132.571L49.075 132.498C50.2801 132.461 51.304 133.077 51.5093 133.962L52.5982 138.655C52.719 139.175 52.5294 139.713 52.0785 140.129C51.5546 140.573 50.9139 140.815 50.2542 140.818Z" fill="#FAD201"/>
<path d="M76.6365 140.682L72.2991 140.815C71.6403 140.852 70.9884 140.65 70.4432 140.239C69.9722 139.85 69.7561 139.326 69.8509 138.799L70.7044 134.046C70.8652 133.15 71.8569 132.472 73.062 132.435L75.4573 132.362C76.6625 132.325 77.6863 132.941 77.8916 133.826L78.9805 138.519C79.1014 139.04 78.9118 139.577 78.4608 139.993C77.9369 140.437 77.2962 140.679 76.6365 140.682Z" fill="#FAD201"/>
<path d="M35.1931 100.337C34.9949 100.242 34.8318 100.076 34.7308 99.8644C34.6298 99.6532 34.5969 99.41 34.6376 99.1753C34.6783 98.9405 34.7901 98.7281 34.9546 98.5733C35.119 98.4185 35.3262 98.3306 35.5419 98.324L84.8525 96.8155C84.9768 96.8116 85.1006 96.835 85.2168 96.8841C85.333 96.9333 85.4393 97.0073 85.5296 97.102C85.62 97.1967 85.6926 97.3102 85.7434 97.436C85.7941 97.5617 85.822 97.6974 85.8255 97.8351C85.8321 98.1132 85.7389 98.3829 85.5663 98.585C85.3938 98.7871 85.1559 98.9051 84.9049 98.9131L35.5942 100.422C35.4565 100.426 35.3196 100.397 35.1931 100.337Z" fill="#FAD201"/>
<path d="M53.3913 82.251L39.296 82.6823L40.6101 135.408L54.7054 134.976L53.3913 82.251Z" fill="white"/>
<path d="M53.7488 81.3038L51.0393 89.4814L51.0417 126.738L54.3432 127.787L53.7488 81.3038Z" fill="#CCCCCC"/>
<path d="M46.2701 68.4719C43.6331 68.5548 41.6211 73.611 41.6695 75.584L41.7585 79.156L51.3069 78.8639L51.2179 75.2919C51.1679 73.3189 48.9072 68.3935 46.2701 68.4719Z" fill="#FAD201"/>
<path d="M39.4788 104.517C38.9861 104.532 38.5084 104.329 38.1504 103.954C37.7924 103.578 37.5834 103.061 37.5692 102.515L37.4243 96.702C37.4107 96.156 37.5934 95.6263 37.9323 95.2296C38.2712 94.8328 38.7384 94.6014 39.2313 94.5864C39.7241 94.5713 40.2022 94.7737 40.5603 95.1492C40.9184 95.5246 41.1273 96.0423 41.1409 96.5883L41.2858 102.401C41.2988 102.947 41.1159 103.477 40.7771 103.873C40.4384 104.27 39.9715 104.501 39.4788 104.517Z" fill="#FAD201"/>
<path d="M43.0557 82.8073L42.989 78.9655L43.8984 78.9406L43.9651 82.77L44.7894 138.584L43.8798 138.612" fill="#3F3D56"/>
<path d="M55.0075 91.7912L38.6619 92.2913C37.1007 90.182 36.9589 81.1954 40.2171 79.4851L41.4948 77.0814L51.3458 76.5486L52.4971 79.0795C54.1178 80.6075 54.9535 89.5379 55.0075 91.7912Z" fill="#E6E6E6"/>
<path d="M48.8553 87.4812L44.7217 87.6076C43.9241 87.632 43.2459 86.4855 43.2102 85.0522C43.1745 83.6189 43.7945 82.4326 44.5922 82.4082L48.7257 82.2818C49.5233 82.2574 50.2015 83.4039 50.2372 84.8372C50.2729 86.2705 49.6529 87.4568 48.8553 87.4812Z" fill="#6C63FF"/>
<path d="M40.8507 113.407L32.3302 120.075L30.8417 135.11L40.7814 131.431L40.8507 113.407Z" fill="white"/>
<path d="M80.6003 81.6054L66.505 82.0366L67.8191 134.762L81.9144 134.331L80.6003 81.6054Z" fill="white"/>
<path d="M66.8426 81.4799L69.7428 89.5768L70.613 126.821L67.337 127.965L66.8426 81.4799Z" fill="#CCCCCC"/>
<path d="M87.6492 66.967C88.6695 66.967 89.4967 65.7381 89.4967 64.2223C89.4967 62.7064 88.6695 61.4775 87.6492 61.4775C86.6289 61.4775 85.8017 62.7064 85.8017 64.2223C85.8017 65.7381 86.6289 66.967 87.6492 66.967Z" fill="#FAD201"/>
<path d="M73.2041 67.8345C70.5671 67.9175 68.5551 72.9737 68.6035 74.9467L68.6925 78.5187L78.2409 78.2266L78.1519 74.6546C78.1019 72.6816 75.8412 67.7562 73.2041 67.8345Z" fill="#FAD201"/>
<path d="M75.9343 84.0098L75.8676 80.168L76.777 80.1428L76.8437 83.9725L77.668 139.787L76.7584 139.815" fill="#3F3D56"/>
<path d="M81.9414 91.154L65.5958 91.6541C65.3108 89.7455 65.6795 80.8392 67.151 78.8479L68.4287 76.4442L78.2797 75.9114L79.431 78.4423C82.3395 78.7049 83.3568 87.4569 81.9414 91.154Z" fill="#E6E6E6"/>
<path d="M75.8092 87.6461L71.6757 87.7726C70.878 87.797 70.1954 86.4705 70.1541 84.816C70.1129 83.1616 70.7285 81.7954 71.5261 81.771L75.6596 81.6445C76.4572 81.6201 77.1399 82.9466 77.1811 84.601C77.2224 86.2555 76.6068 87.6217 75.8092 87.6461Z" fill="#6C63FF"/>
<path d="M81.2967 109.553L89.5337 116.644L90.4011 131.739L80.6237 127.561L81.2967 109.553Z" fill="white"/>
<path d="M78.9964 39.637C70.158 39.637 60.0004 28.7705 51.0135 33.9335C23.8035 49.5656 27.5491 23.4077 19.7319 13.6793L19.9885 13.109C25.9065 38.1195 31.2612 77.9727 51.1317 33.2701C56.1092 22.0722 72.4455 39.3811 82.0615 38.8705L82.0781 39.556C81.0626 39.6102 80.0354 39.6373 78.9964 39.637Z" fill="#F2F2F2"/>
<path d="M100.21 41.1748C93.1644 47.087 79.1454 45.2193 74.7949 55.3466C61.6228 86.0094 50.3539 62.6517 38.8208 60.1258L38.7146 59.4995C50.26 60.5604 62.644 58.9143 74.5276 54.7387C85.2669 50.9657 94.8484 45.3528 102.236 38.5134L102.623 39.0487C101.843 39.7713 101.038 40.48 100.21 41.1748Z" fill="#F2F2F2"/>
<path d="M23.569 39.8286C24.5894 39.8286 25.4165 38.5997 25.4165 37.0838C25.4165 35.568 24.5894 34.3391 23.569 34.3391C22.5487 34.3391 21.7216 35.568 21.7216 37.0838C21.7216 38.5997 22.5487 39.8286 23.569 39.8286Z" fill="#E6E6E6"/>
<path d="M80.8693 17.5363C81.8897 17.5363 82.7168 16.3075 82.7168 14.7916C82.7168 13.2757 81.8897 12.0469 80.8693 12.0469C79.849 12.0469 79.0219 13.2757 79.0219 14.7916C79.0219 16.3075 79.849 17.5363 80.8693 17.5363Z" fill="#E6E6E6"/>
<path d="M40.4832 50.9064C39.6386 51.5299 38.7741 50.0459 39.635 49.45C40.4796 48.8266 41.3441 50.3106 40.4832 50.9064Z" fill="#E6E6E6"/>
<path d="M71.7578 2.20273C70.9132 2.82623 70.0487 1.34224 70.9096 0.746425C71.7542 0.122957 72.6187 1.60695 71.7578 2.20273Z" fill="#E6E6E6"/>
<path d="M90.1898 31.0789L89.6525 30.9483L89.7701 30.3527L89.4119 30.2657L89.294 30.8613L88.7567 30.731L88.6782 31.1279L89.2155 31.2585L89.0979 31.8538L89.4561 31.9408L89.574 31.3452L90.1113 31.4758L90.1898 31.0789Z" fill="#E6E6E6"/>
<path d="M40.9347 11.1222C42.2274 11.1222 43.2753 9.96113 43.2753 8.52892C43.2753 7.09671 42.2274 5.93567 40.9347 5.93567C39.642 5.93567 38.5941 7.09671 38.5941 8.52892C38.5941 9.96113 39.642 11.1222 40.9347 11.1222Z" fill="#FAD201"/>
<path d="M58.055 5.24641C55.418 5.32939 53.406 10.3855 53.4544 12.3586L53.5434 15.9306L63.0918 15.6384L63.0028 12.0665C62.9528 10.0934 60.6921 5.16803 58.055 5.24641Z" fill="#FAD201"/>
<path d="M63.7406 140.507L59.4032 140.639C58.7444 140.677 58.0926 140.474 57.5474 140.063C57.0763 139.675 56.8603 139.15 56.955 138.623L57.8085 133.871C57.9694 132.974 58.961 132.296 60.1661 132.259L62.5615 132.186C63.7666 132.149 64.7905 132.765 64.9958 133.651L66.0847 138.344C66.2055 138.864 66.0159 139.401 65.5649 139.818C65.041 140.262 64.4003 140.504 63.7406 140.507Z" fill="#FAD201"/>
<path d="M65.6748 27.9859L51.5795 28.4171L54.2358 134.995L68.3311 134.564L65.6748 27.9859Z" fill="white"/>
<path d="M60.0348 79.5761L59.968 75.7343L60.8774 75.7094L60.9441 79.5388L61.7684 135.353L60.8588 135.381" fill="#3F3D56"/>
<path d="M68.4499 37.74L49.3514 38.3243C49.0184 36.0943 49.4491 25.688 51.1685 23.3613L51.6396 20.584L64.8267 20.1805L65.5166 22.8874C67.4103 24.6727 68.3868 35.1072 68.4499 37.74Z" fill="white"/>
<path d="M65.2436 20.5083L51.6353 20.9246C51.133 20.94 50.7182 20.6478 50.7089 20.272C50.7076 20.2179 50.7148 20.1639 50.73 20.1125L52.8438 12.8977C52.9343 12.5888 53.2946 12.3619 53.7151 12.349L62.7398 12.073C63.1603 12.0601 63.5314 12.2646 63.6372 12.5675L66.1071 19.642C66.2334 20.0039 65.9416 20.3804 65.4554 20.483C65.3855 20.4977 65.3147 20.5062 65.2436 20.5083Z" fill="#E6E6E6"/>
<path d="M52.9776 79.0861C52.8548 79.0278 52.7387 78.9533 52.6319 78.8644C52.4788 78.7454 52.3523 78.5891 52.2621 78.4076C52.172 78.2261 52.1205 78.0242 52.1116 77.8172L51.6171 57.9777C51.5968 57.1564 52.3225 56.4656 53.235 56.4376L65.4175 56.0648C66.3302 56.0367 67.089 56.6825 67.1096 57.5037L67.6041 77.3433C67.6055 77.5505 67.5642 77.7553 67.4832 77.942C67.4022 78.1287 67.2837 78.2925 67.1367 78.4206C66.8113 78.7143 66.4058 78.8773 65.9861 78.8834L53.8038 79.256C53.5205 79.2665 53.2386 79.2085 52.9776 79.0861Z" fill="#FAD201"/>
<path d="M60.775 19.2315L56.6415 19.358C55.8438 19.3824 55.1694 18.3839 55.1382 17.1326C55.107 15.8812 55.7307 14.8431 56.5283 14.8187L60.6619 14.6922C61.4595 14.6678 62.134 15.6663 62.1652 16.9176C62.1963 18.169 61.5726 19.2071 60.775 19.2315Z" fill="#6C63FF"/>
<path d="M173.877 128.727L174.08 123.652C176.204 122.394 178.572 121.73 180.98 121.717C177.666 124.718 178.081 130.505 175.834 134.542C175.124 135.795 174.169 136.855 173.04 137.644C171.91 138.432 170.635 138.929 169.309 139.097L166.535 140.979C166.155 138.628 166.239 136.214 166.781 133.903C167.324 131.592 168.312 129.439 169.678 127.592C170.454 126.564 171.343 125.649 172.325 124.867C172.989 126.808 173.877 128.727 173.877 128.727Z" fill="#736F4E"/>
<path d="M187.821 141.22C187.821 141.27 187.812 141.319 187.795 141.364C187.778 141.41 187.753 141.452 187.722 141.487C187.69 141.522 187.653 141.549 187.611 141.568C187.57 141.587 187.526 141.597 187.481 141.596H1.13462C1.04452 141.596 0.958121 141.557 0.894416 141.486C0.830711 141.416 0.794922 141.32 0.794922 141.22C0.794922 141.12 0.830711 141.025 0.894416 140.954C0.958121 140.883 1.04452 140.844 1.13462 140.844H187.481C187.526 140.844 187.57 140.853 187.611 140.872C187.653 140.891 187.69 140.919 187.722 140.954C187.753 140.989 187.778 141.03 187.795 141.076C187.812 141.122 187.821 141.171 187.821 141.22Z" fill="#CCCCCC"/>
<path d="M80.9494 103.229C80.4567 103.244 79.979 103.041 79.621 102.666C79.263 102.291 79.054 101.773 79.0398 101.227L78.8949 95.4142C78.882 94.8686 79.065 94.3396 79.4038 93.9435C79.7426 93.5473 80.2095 93.3163 80.702 93.3012C81.1944 93.2861 81.6721 93.4882 82.0301 93.8631C82.3882 94.238 82.5973 94.755 82.6115 95.3006L82.7564 101.114C82.7694 101.66 82.5865 102.189 82.2477 102.585C81.909 102.982 81.4421 103.214 80.9494 103.229Z" fill="#FAD201"/>
<path d="M162.932 124.475C160.108 124.475 157.013 124.357 153.647 124.121C136.235 122.896 113.681 118.637 90.1402 112.128C66.5994 105.62 44.8838 97.6399 28.9938 89.6582C21.2533 85.7699 15.3125 82.0894 11.3367 78.7187C7.12728 75.1502 5.28603 72.0397 5.86386 69.474C6.98974 64.4755 16.9589 63.3819 25.1238 63.3447L25.1266 64.0716C13.914 64.1226 7.29921 66.1038 6.50054 69.65C5.48316 74.1667 13.7804 81.2179 29.2647 88.9961C45.1198 96.9603 66.7955 104.925 90.2991 111.423C113.803 117.921 136.315 122.173 153.688 123.395C170.655 124.589 180.97 122.683 181.987 118.167C182.832 114.417 177.264 108.892 166.308 102.611L166.61 101.965C174.57 106.53 183.81 113.076 182.624 118.343C182.046 120.908 179.102 122.696 173.872 123.655C170.892 124.201 167.23 124.475 162.932 124.475Z" fill="#CCCCCC"/>
<path d="M13.0552 119.713C10.8143 119.713 9.35749 119.096 8.7127 117.87C7.44115 115.452 9.57074 111.208 15.0422 105.258L15.5018 105.776C10.4194 111.304 8.20961 115.469 9.27953 117.504C9.95657 118.791 11.9715 119.253 15.1076 118.838C18.221 118.426 22.3469 117.199 27.3707 115.19C37.7135 111.054 50.6895 104.079 63.9085 95.5474C77.127 87.0165 89.0048 77.952 97.3541 70.024C98.9578 68.5009 100.413 67.0357 101.68 65.6694C103.343 63.9196 104.877 62.0254 106.267 60.0049C108.14 57.1876 108.772 55.018 108.095 53.7305C106.965 51.5802 102.215 51.7824 94.7202 54.3007L94.5299 53.605C102.571 50.9035 107.326 50.8225 108.662 53.3647C109.493 54.9442 108.865 57.3233 106.796 60.4361C105.384 62.4885 103.826 64.4127 102.138 66.1903C100.861 67.5673 99.3953 69.0428 97.7811 70.5759C89.4026 78.5317 77.4904 87.6232 64.2387 96.1754C50.9866 104.728 37.9723 111.724 27.5935 115.874C22.5229 117.901 18.3482 119.141 15.1854 119.559C14.4787 119.657 13.7674 119.708 13.0552 119.713Z" fill="#CCCCCC"/>
</g>
<defs>
<clipPath id="clip0_1_80">
<rect width="187.026" height="141" fill="white" transform="translate(0.794922 0.596436)"/>
</clipPath>
</defs>
</svg>
