<svg width="264" height="159" viewBox="0 0 264 159" fill="none" xmlns="http://www.w3.org/2000/svg">
<g clip-path="url(#clip0_1011_601)">
<path d="M16.9515 33.9485C13.6765 33.9485 10.475 32.9773 7.75188 31.1578C5.02877 29.3383 2.90637 26.7521 1.65306 23.7264C0.399753 20.7006 0.0718302 17.3712 0.710761 14.159C1.34969 10.9469 2.92678 7.99639 5.2426 5.68058C7.55841 3.36477 10.5089 1.78768 13.7211 1.14875C16.9332 0.509818 20.2626 0.837741 23.2884 2.09105C26.3141 3.34436 28.9003 5.46676 30.7198 8.18987C32.5393 10.913 33.5105 14.1145 33.5105 17.3895C33.5055 21.7797 31.7593 25.9887 28.655 29.093C25.5507 32.1973 21.3417 33.9435 16.9515 33.9485ZM16.9515 1.52053C13.813 1.52053 10.7448 2.45123 8.1352 4.19494C5.52556 5.93865 3.49159 8.41705 2.2905 11.3167C1.08941 14.2164 0.775154 17.4071 1.38746 20.4854C1.99977 23.5637 3.51115 26.3913 5.73047 28.6106C7.94979 30.8299 10.7774 32.3413 13.8557 32.9536C16.9339 33.5659 20.1247 33.2517 23.0244 32.0506C25.924 30.8495 28.4024 28.8155 30.1461 26.2059C31.8899 23.5962 32.8205 20.5281 32.8205 17.3895C32.8158 13.1823 31.1423 9.14871 28.1674 6.17372C25.1924 3.19874 21.1588 1.5253 16.9515 1.52053Z" fill="#F2F2F2"/>
<path d="M129.414 24.2891C127.777 24.2891 126.176 23.8035 124.814 22.8937C123.453 21.984 122.392 20.6909 121.765 19.178C121.138 17.6651 120.974 16.0004 121.294 14.3943C121.613 12.7883 122.402 11.313 123.56 10.1551C124.718 8.9972 126.193 8.20866 127.799 7.88919C129.405 7.56973 131.07 7.73369 132.583 8.36034C134.096 8.987 135.389 10.0482 136.298 11.4098C137.208 12.7713 137.694 14.3721 137.694 16.0096C137.691 18.2047 136.818 20.3091 135.266 21.8613C133.714 23.4135 131.609 24.2866 129.414 24.2891ZM129.414 8.42006C127.913 8.42006 126.446 8.86518 125.198 9.69913C123.95 10.5331 122.977 11.7184 122.402 13.1052C121.828 14.492 121.678 16.018 121.971 17.4902C122.263 18.9625 122.986 20.3148 124.048 21.3762C125.109 22.4376 126.461 23.1604 127.934 23.4533C129.406 23.7461 130.932 23.5958 132.319 23.0214C133.705 22.447 134.891 21.4742 135.725 20.2261C136.559 18.978 137.004 17.5107 137.004 16.0096C137.002 13.9974 136.201 12.0683 134.778 10.6455C133.356 9.22267 131.426 8.42234 129.414 8.42006Z" fill="#F2F2F2"/>
<path d="M187.715 64.6515C185.873 64.6515 184.072 64.1053 182.54 63.0818C181.008 62.0583 179.814 60.6036 179.109 58.9016C178.404 57.1996 178.22 55.3268 178.579 53.52C178.939 51.7132 179.826 50.0535 181.129 48.7508C182.431 47.4482 184.091 46.5611 185.898 46.2017C187.704 45.8423 189.577 46.0267 191.279 46.7317C192.981 47.4367 194.436 48.6306 195.459 50.1623C196.483 51.6941 197.029 53.4949 197.029 55.3371C197.026 57.8066 196.044 60.1741 194.298 61.9203C192.552 63.6665 190.184 64.6487 187.715 64.6515ZM187.715 46.7127C186.009 46.7127 184.342 47.2185 182.923 48.1661C181.505 49.1138 180.4 50.4608 179.747 52.0367C179.094 53.6126 178.923 55.3467 179.256 57.0197C179.589 58.6927 180.41 60.2294 181.616 61.4355C182.823 62.6417 184.359 63.4631 186.032 63.7959C187.705 64.1286 189.439 63.9578 191.015 63.3051C192.591 62.6523 193.938 61.5469 194.886 60.1286C195.833 58.7103 196.339 57.0429 196.339 55.3371C196.337 53.0506 195.427 50.8584 193.81 49.2416C192.194 47.6247 190.001 46.7152 187.715 46.7127Z" fill="#F2F2F2"/>
<path d="M111.238 140.056L107.939 138.667L105.677 122.133H75.5465L73.094 138.6L70.1432 140.075C70.002 140.146 69.8888 140.262 69.8219 140.405C69.755 140.548 69.7383 140.709 69.7746 140.863C69.8109 141.016 69.898 141.153 70.0217 141.251C70.1455 141.349 70.2987 141.402 70.4566 141.402H110.966C111.128 141.402 111.284 141.346 111.41 141.244C111.535 141.142 111.621 140.999 111.653 140.84C111.685 140.682 111.661 140.517 111.585 140.374C111.51 140.231 111.387 140.119 111.238 140.056Z" fill="#3F3D56"/>
<path d="M164.782 124.333H16.7734C15.9969 124.331 15.2527 124.021 14.7042 123.472C14.1557 122.922 13.8477 122.177 13.8477 121.4V100.529H167.708V121.4C167.708 122.177 167.4 122.922 166.851 123.472C166.303 124.021 165.559 124.331 164.782 124.333Z" fill="#3F3D56"/>
<path d="M167.861 110.393H13.7109V21.0901C13.712 20.153 14.0848 19.2545 14.7475 18.5918C15.4102 17.9291 16.3087 17.5563 17.2459 17.5553H164.326C165.263 17.5564 166.162 17.9291 166.824 18.5918C167.487 19.2545 167.86 20.153 167.861 21.0901V110.393Z" fill="#17161A"/>
<path d="M158.655 103.912H22.9186C22.1961 103.911 21.5034 103.624 20.9925 103.113C20.4816 102.602 20.1942 101.909 20.1934 101.187V26.762C20.1942 26.0395 20.4815 25.3468 20.9924 24.8359C21.5033 24.325 22.196 24.0376 22.9186 24.0367H158.655C159.378 24.0376 160.07 24.325 160.581 24.8359C161.092 25.3468 161.38 26.0395 161.38 26.762V101.187C161.38 101.909 161.092 102.602 160.581 103.113C160.07 103.624 159.378 103.911 158.655 103.912Z" fill="white"/>
<path d="M157.377 141.575H25.9407C25.8492 141.575 25.7614 141.539 25.6967 141.474C25.632 141.409 25.5957 141.321 25.5957 141.23C25.5957 141.138 25.632 141.051 25.6967 140.986C25.7614 140.921 25.8492 140.885 25.9407 140.885H157.377C157.469 140.885 157.557 140.921 157.621 140.986C157.686 141.051 157.722 141.138 157.722 141.23C157.722 141.321 157.686 141.409 157.621 141.474C157.557 141.539 157.469 141.575 157.377 141.575Z" fill="#3F3D56"/>
<path d="M145.904 94.6646H35.6712C35.5797 94.6646 35.4919 94.6283 35.4272 94.5636C35.3625 94.4989 35.3262 94.4112 35.3262 94.3197V41.4851C35.3262 41.3936 35.3625 41.3059 35.4272 41.2412C35.4919 41.1765 35.5797 41.1401 35.6712 41.1401C35.7626 41.1401 35.8504 41.1765 35.9151 41.2412C35.9798 41.3059 36.0161 41.3936 36.0161 41.4851V93.9747H145.904C145.995 93.9747 146.083 94.011 146.148 94.0757C146.213 94.1404 146.249 94.2282 146.249 94.3197C146.249 94.4112 146.213 94.4989 146.148 94.5636C146.083 94.6283 145.995 94.6646 145.904 94.6646Z" fill="#3F3D56"/>
<path d="M59.222 90.8699H49.1959C48.9245 90.8695 48.6642 90.7616 48.4722 90.5696C48.2802 90.3776 48.1722 90.1174 48.1719 89.8459V76.0248C48.1722 75.7533 48.2802 75.4931 48.4722 75.3011C48.6642 75.1091 48.9245 75.0012 49.1959 75.0009H59.222C59.4935 75.0012 59.7538 75.1091 59.9458 75.3011C60.1378 75.4931 60.2458 75.7533 60.2461 76.0248V89.8459C60.2458 90.1174 60.1378 90.3776 59.9458 90.5696C59.7538 90.7616 59.4935 90.8695 59.222 90.8699Z" fill="#FAD201"/>
<path d="M77.5052 90.8699H67.4791C67.2077 90.8696 66.9474 90.7616 66.7554 90.5697C66.5634 90.3777 66.4554 90.1174 66.4551 89.8459V62.9157C66.4554 62.6442 66.5634 62.3839 66.7554 62.192C66.9474 62 67.2077 61.892 67.4791 61.8917H77.5052C77.7767 61.892 78.037 62 78.229 62.192C78.421 62.3839 78.529 62.6442 78.5293 62.9157V89.8459C78.529 90.1174 78.421 90.3777 78.229 90.5697C78.037 90.7616 77.7767 90.8696 77.5052 90.8699Z" fill="#FAD201"/>
<path d="M95.7904 90.87H85.7643C85.4928 90.8697 85.2325 90.7617 85.0405 90.5697C84.8486 90.3778 84.7406 90.1175 84.7402 89.846V76.025C84.7406 75.7535 84.8486 75.4932 85.0405 75.3012C85.2325 75.1093 85.4928 75.0013 85.7643 75.001H95.7904C96.0619 75.0013 96.3222 75.1093 96.5142 75.3012C96.7061 75.4932 96.8141 75.7535 96.8145 76.025V89.846C96.8141 90.1175 96.7061 90.3778 96.5142 90.5697C96.3222 90.7617 96.0619 90.8697 95.7904 90.87Z" fill="#FAD201"/>
<path d="M114.074 90.8699H104.048C103.782 90.8756 103.525 90.7759 103.333 90.5927C103.142 90.4094 103.03 90.1576 103.023 89.8923V57.6946C103.03 57.4293 103.142 57.1775 103.333 56.9942C103.525 56.811 103.782 56.7113 104.048 56.717H114.074C114.339 56.7113 114.596 56.811 114.788 56.9942C114.98 57.1775 115.091 57.4293 115.098 57.6946V89.8923C115.091 90.1576 114.98 90.4094 114.788 90.5927C114.596 90.7759 114.339 90.8756 114.074 90.8699Z" fill="#FAD201"/>
<path d="M132.357 90.8699H122.331C122.059 90.8696 121.799 90.7616 121.607 90.5696C121.415 90.3776 121.307 90.1174 121.307 89.8459V48.4266C121.307 48.1551 121.415 47.8948 121.607 47.7028C121.799 47.5109 122.059 47.4029 122.331 47.4026H132.357C132.628 47.4029 132.889 47.5109 133.081 47.7028C133.273 47.8948 133.381 48.1551 133.381 48.4266V89.8459C133.381 90.1174 133.273 90.3776 133.081 90.5696C132.889 90.7616 132.628 90.8696 132.357 90.8699Z" fill="#FAD201"/>
<path d="M54.2085 70.8612C55.3517 70.8612 56.2784 69.9345 56.2784 68.7913C56.2784 67.6481 55.3517 66.7214 54.2085 66.7214C53.0654 66.7214 52.1387 67.6481 52.1387 68.7913C52.1387 69.9345 53.0654 70.8612 54.2085 70.8612Z" fill="black"/>
<path d="M72.4937 57.407C73.6369 57.407 74.5636 56.4802 74.5636 55.3371C74.5636 54.1939 73.6369 53.2672 72.4937 53.2672C71.3505 53.2672 70.4238 54.1939 70.4238 55.3371C70.4238 56.4802 71.3505 57.407 72.4937 57.407Z" fill="black"/>
<path d="M90.7769 70.8612C91.9201 70.8612 92.8468 69.9345 92.8468 68.7913C92.8468 67.6481 91.9201 66.7214 90.7769 66.7214C89.6337 66.7214 88.707 67.6481 88.707 68.7913C88.707 69.9345 89.6337 70.8612 90.7769 70.8612Z" fill="black"/>
<path d="M109.06 50.8524C110.203 50.8524 111.13 49.9257 111.13 48.7825C111.13 47.6394 110.203 46.7126 109.06 46.7126C107.917 46.7126 106.99 47.6394 106.99 48.7825C106.99 49.9257 107.917 50.8524 109.06 50.8524Z" fill="black"/>
<path d="M127.345 43.2629C128.488 43.2629 129.415 42.3362 129.415 41.193C129.415 40.0499 128.488 39.1232 127.345 39.1232C126.202 39.1232 125.275 40.0499 125.275 41.193C125.275 42.3362 126.202 43.2629 127.345 43.2629Z" fill="black"/>
<path d="M90.8201 69.2549L72.4928 55.5275L54.4159 69.0672L54.002 68.5153L72.4928 54.6654L90.7332 68.3276L108.859 48.492L108.931 48.4624L127.215 41.0957L127.473 41.7356L109.262 49.073L90.8201 69.2549Z" fill="black"/>
</g>
<defs>
<clipPath id="clip0_1011_601">
<rect width="263.238" height="158" fill="white" transform="translate(0.392578 0.830566)"/>
</clipPath>
</defs>
</svg>
