<svg width="188" height="142" viewBox="0 0 188 142" fill="none" xmlns="http://www.w3.org/2000/svg">
<g clip-path="url(#clip0_1011_631)">
<path d="M50.2489 141.015L45.9115 141.148C45.2526 141.185 44.6008 140.983 44.0556 140.571C43.5846 140.183 43.3685 139.658 43.4633 139.131L44.3168 134.379C44.4776 133.482 45.4692 132.805 46.6744 132.768L49.0697 132.695C50.2749 132.658 51.2987 133.274 51.504 134.159L52.5929 138.852C52.7138 139.372 52.5242 139.91 52.0732 140.326C51.5493 140.77 50.9086 141.012 50.2489 141.015Z" fill="#FAD201"/>
<path d="M76.6297 140.879L72.2924 141.012C71.6335 141.049 70.9817 140.847 70.4365 140.436C69.9655 140.047 69.7494 139.523 69.8441 138.996L70.6976 134.243C70.8585 133.347 71.8501 132.669 73.0552 132.632L75.4506 132.559C76.6557 132.522 77.6796 133.138 77.8849 134.023L78.9738 138.716C79.0946 139.237 78.905 139.774 78.4541 140.19C77.9302 140.634 77.2894 140.876 76.6297 140.879Z" fill="#FAD201"/>
<path d="M35.1876 100.534C34.9895 100.439 34.8264 100.273 34.7254 100.061C34.6244 99.8502 34.5915 99.6071 34.6322 99.3723C34.6729 99.1375 34.7847 98.9251 34.9491 98.7704C35.1136 98.6156 35.3208 98.5276 35.5365 98.521L84.8471 97.0125C84.9714 97.0087 85.0952 97.032 85.2114 97.0812C85.3276 97.1303 85.4339 97.2044 85.5242 97.299C85.6146 97.3937 85.6872 97.5072 85.738 97.633C85.7887 97.7588 85.8166 97.8944 85.8201 98.0321C85.8267 98.3102 85.7335 98.58 85.5609 98.782C85.3884 98.9841 85.1505 99.1021 84.8995 99.1101L35.5888 100.619C35.4511 100.623 35.3142 100.594 35.1876 100.534Z" fill="#FAD201"/>
<path d="M53.3863 82.448L39.291 82.8793L40.6051 135.605L54.7004 135.173L53.3863 82.448Z" fill="white"/>
<path d="M53.7427 81.5009L51.0332 89.6785L51.0356 126.935L54.3372 127.984L53.7427 81.5009Z" fill="#CCCCCC"/>
<path d="M46.2635 68.6689C43.6265 68.7519 41.6146 73.808 41.663 75.781L41.752 79.353L51.3004 79.0609L51.2114 75.4889C51.1614 73.5159 48.9007 68.5905 46.2635 68.6689Z" fill="#FAD201"/>
<path d="M39.4732 104.714C38.9805 104.729 38.5027 104.526 38.1447 104.151C37.7868 103.775 37.5777 103.258 37.5636 102.712L37.4187 96.8991C37.4051 96.353 37.5878 95.8234 37.9267 95.4266C38.2655 95.0298 38.7328 94.7985 39.2256 94.7834C39.7185 94.7683 40.1966 94.9708 40.5547 95.3462C40.9128 95.7216 41.1216 96.2393 41.1352 96.7854L41.2801 102.599C41.2932 103.144 41.1102 103.674 40.7715 104.07C40.4327 104.467 39.9658 104.698 39.4732 104.714Z" fill="#FAD201"/>
<path d="M43.0491 83.0043L42.9824 79.1625L43.8918 79.1376L43.9585 82.967L44.7828 138.781L43.8732 138.809" fill="#3F3D56"/>
<path d="M55.0009 91.9882L38.6553 92.4883C37.0941 90.379 36.9523 81.3925 40.2105 79.6821L41.4882 77.2784L51.3392 76.7456L52.4905 79.2765C54.1112 80.8045 54.9469 89.7349 55.0009 91.9882Z" fill="#E6E6E6"/>
<path d="M48.8496 87.6782L44.7161 87.8047C43.9185 87.8291 43.2403 86.6825 43.2046 85.2492C43.1689 83.8159 43.7889 82.6296 44.5865 82.6052L48.7201 82.4788C49.5177 82.4544 50.1959 83.6009 50.2316 85.0342C50.2673 86.4675 49.6473 87.6538 48.8496 87.6782Z" fill="#6C63FF"/>
<path d="M40.8449 113.604L32.3244 120.272L30.8359 135.307L40.7756 131.628L40.8449 113.604Z" fill="white"/>
<path d="M80.5953 81.8024L66.5 82.2336L67.8141 134.959L81.9094 134.528L80.5953 81.8024Z" fill="white"/>
<path d="M66.8359 81.6769L69.7362 89.7738L70.6064 127.018L67.3304 128.162L66.8359 81.6769Z" fill="#CCCCCC"/>
<path d="M87.6424 67.164C88.6627 67.164 89.4899 65.9352 89.4899 64.4193C89.4899 62.9034 88.6627 61.6746 87.6424 61.6746C86.6221 61.6746 85.7949 62.9034 85.7949 64.4193C85.7949 65.9352 86.6221 67.164 87.6424 67.164Z" fill="#FAD201"/>
<path d="M73.1991 68.0316C70.5621 68.1145 68.5501 73.1707 68.5985 75.1437L68.6875 78.7157L78.2359 78.4236L78.1469 74.8516C78.0969 72.8786 75.8362 67.9532 73.1991 68.0316Z" fill="#FAD201"/>
<path d="M75.928 84.2068L75.8613 80.365L76.7707 80.3398L76.8374 84.1695L77.6617 139.984L76.7521 140.012" fill="#3F3D56"/>
<path d="M81.9346 91.351L65.589 91.8511C65.304 89.9425 65.6727 81.0363 67.1442 79.0449L68.4219 76.6412L78.2729 76.1084L79.4242 78.6393C82.3327 78.9019 83.35 87.6539 81.9346 91.351Z" fill="#E6E6E6"/>
<path d="M75.8035 87.8432L71.67 87.9696C70.8723 87.994 70.1897 86.6675 70.1484 85.0131C70.1072 83.3586 70.7228 81.9924 71.5204 81.968L75.6539 81.8415C76.4515 81.8171 77.1342 83.1436 77.1754 84.7981C77.2166 86.4525 76.6011 87.8187 75.8035 87.8432Z" fill="#6C63FF"/>
<path d="M81.2901 109.75L89.5272 116.841L90.3946 131.936L80.6172 127.758L81.2901 109.75Z" fill="white"/>
<path d="M78.9911 39.8341C70.1527 39.8341 59.9951 28.9675 51.0082 34.1305C23.7982 49.7626 27.5438 23.6047 19.7266 13.8763L19.9832 13.306C25.9012 38.3165 31.2558 78.1698 51.1263 33.4671C56.1039 22.2692 72.4401 39.5781 82.0562 39.0675L82.0728 39.753C81.0573 39.8073 80.0301 39.8343 78.9911 39.8341Z" fill="#F2F2F2"/>
<path d="M100.204 41.3718C93.1587 47.2841 79.1398 45.4163 74.7893 55.5436C61.6172 86.2064 50.3483 62.8487 38.8152 60.3228L38.709 59.6965C50.2544 60.7574 62.6383 59.1113 74.522 54.9358C85.2613 51.1627 94.8427 45.5499 102.23 38.7104L102.617 39.2458C101.837 39.9683 101.033 40.677 100.204 41.3718Z" fill="#F2F2F2"/>
<path d="M23.5623 40.0256C24.5826 40.0256 25.4098 38.7967 25.4098 37.2809C25.4098 35.765 24.5826 34.5361 23.5623 34.5361C22.542 34.5361 21.7148 35.765 21.7148 37.2809C21.7148 38.7967 22.542 40.0256 23.5623 40.0256Z" fill="#E6E6E6"/>
<path d="M80.8631 17.7333C81.8834 17.7333 82.7106 16.5045 82.7106 14.9886C82.7106 13.4728 81.8834 12.2439 80.8631 12.2439C79.8428 12.2439 79.0156 13.4728 79.0156 14.9886C79.0156 16.5045 79.8428 17.7333 80.8631 17.7333Z" fill="#E6E6E6"/>
<path d="M40.4779 51.1034C39.6333 51.7269 38.7688 50.2429 39.6297 49.6471C40.4743 49.0236 41.3388 50.5076 40.4779 51.1034Z" fill="#E6E6E6"/>
<path d="M71.7514 2.39975C70.9067 3.02326 70.0423 1.53926 70.9031 0.943446C71.7477 0.319978 72.6122 1.80397 71.7514 2.39975Z" fill="#E6E6E6"/>
<path d="M90.1836 31.276L89.6462 31.1453L89.7639 30.5498L89.4056 30.4628L89.2877 31.0584L88.7504 30.928L88.6719 31.3249L89.2092 31.4555L89.0916 32.0508L89.4498 32.1378L89.5677 31.5422L90.105 31.6728L90.1836 31.276Z" fill="#E6E6E6"/>
<path d="M40.9285 11.3192C42.2212 11.3192 43.2692 10.1582 43.2692 8.72594C43.2692 7.29373 42.2212 6.13269 40.9285 6.13269C39.6358 6.13269 38.5879 7.29373 38.5879 8.72594C38.5879 10.1582 39.6358 11.3192 40.9285 11.3192Z" fill="#FAD201"/>
<path d="M58.0487 5.44343C55.4117 5.52641 53.3997 10.5826 53.4481 12.5556L53.5371 16.1276L63.0855 15.8355L62.9965 12.2635C62.9465 10.2905 60.6858 5.36506 58.0487 5.44343Z" fill="#FAD201"/>
<path d="M63.7352 140.704L59.3978 140.836C58.739 140.874 58.0872 140.671 57.542 140.26C57.0709 139.872 56.8549 139.347 56.9496 138.82L57.8031 134.068C57.964 133.171 58.9556 132.493 60.1607 132.456L62.5561 132.383C63.7612 132.346 64.7851 132.962 64.9904 133.848L66.0793 138.541C66.2001 139.061 66.0105 139.598 65.5595 140.015C65.0356 140.459 64.3949 140.701 63.7352 140.704Z" fill="#FAD201"/>
<path d="M65.6695 28.1829L51.5742 28.6141L54.2306 135.192L68.3259 134.761L65.6695 28.1829Z" fill="white"/>
<path d="M60.0296 79.7731L59.9629 75.9313L60.8723 75.9064L60.939 79.7358L61.7633 135.55L60.8537 135.578" fill="#3F3D56"/>
<path d="M68.4447 37.937L49.3462 38.5213C49.0132 36.2913 49.4439 25.885 51.1633 23.5583L51.6344 20.781L64.8215 20.3776L65.5115 23.0844C67.4051 24.8697 68.3816 35.3042 68.4447 37.937Z" fill="white"/>
<path d="M65.238 20.7053L51.6296 21.1217C51.1274 21.137 50.7126 20.8448 50.7033 20.469C50.702 20.4149 50.7092 20.3609 50.7244 20.3095L52.8382 13.0948C52.9287 12.7858 53.289 12.5589 53.7095 12.5461L62.7342 12.27C63.1547 12.2571 63.5258 12.4616 63.6316 12.7646L66.1014 19.8391C66.2278 20.2009 65.936 20.5774 65.4498 20.6801C65.3799 20.6948 65.3091 20.7032 65.238 20.7053Z" fill="#E6E6E6"/>
<path d="M52.9723 79.2831C52.8494 79.2248 52.7333 79.1504 52.6265 79.0614C52.4734 78.9424 52.347 78.7861 52.2568 78.6047C52.1666 78.4232 52.1151 78.2212 52.1062 78.0142L51.6117 58.1747C51.5914 57.3535 52.3172 56.6626 53.2296 56.6346L65.4121 56.2619C66.3248 56.2338 67.0837 56.8795 67.1043 57.7007L67.5987 77.5403C67.6002 77.7475 67.5588 77.9523 67.4778 78.139C67.3968 78.3258 67.2783 78.4895 67.1314 78.6176C66.8059 78.9113 66.4004 79.0744 65.9807 79.0804L53.7984 79.453C53.5151 79.4635 53.2332 79.4055 52.9723 79.2831Z" fill="#FAD201"/>
<path d="M60.7688 19.4286L56.6353 19.555C55.8376 19.5794 55.1632 18.581 55.132 17.3296C55.1008 16.0783 55.7245 15.0401 56.5222 15.0157L60.6557 14.8892C61.4533 14.8648 62.1278 15.8633 62.159 17.1146C62.1901 18.366 61.5664 19.4041 60.7688 19.4286Z" fill="#6C63FF"/>
<path d="M173.87 128.924L174.074 123.849C176.198 122.591 178.566 121.927 180.974 121.914C177.66 124.916 178.074 130.702 175.827 134.739C175.118 135.992 174.163 137.052 173.034 137.841C171.904 138.629 170.629 139.126 169.302 139.294L166.529 141.176C166.149 138.825 166.233 136.411 166.775 134.1C167.318 131.789 168.306 129.636 169.672 127.789C170.447 126.761 171.337 125.846 172.319 125.064C172.983 127.005 173.87 128.924 173.87 128.924Z" fill="#736F4E"/>
<path d="M187.815 141.417C187.815 141.467 187.806 141.516 187.789 141.561C187.772 141.607 187.747 141.649 187.716 141.684C187.684 141.719 187.647 141.746 187.605 141.765C187.564 141.784 187.52 141.794 187.475 141.793H1.12876C1.03867 141.793 0.952262 141.754 0.888556 141.683C0.824851 141.613 0.789062 141.517 0.789062 141.417C0.789062 141.317 0.824851 141.222 0.888556 141.151C0.952262 141.08 1.03867 141.041 1.12876 141.041H187.475C187.52 141.041 187.564 141.05 187.605 141.069C187.647 141.088 187.684 141.116 187.716 141.151C187.747 141.186 187.772 141.227 187.789 141.273C187.806 141.319 187.815 141.368 187.815 141.417Z" fill="#CCCCCC"/>
<path d="M80.9438 103.426C80.4511 103.441 79.9734 103.238 79.6154 102.863C79.2574 102.488 79.0484 101.97 79.0342 101.424L78.8893 95.6113C78.8763 95.0657 79.0594 94.5367 79.3982 94.1405C79.737 93.7443 80.2039 93.5133 80.6964 93.4982C81.1888 93.4832 81.6665 93.6853 82.0245 94.0601C82.3826 94.435 82.5916 94.952 82.6059 95.4976L82.7508 101.311C82.7638 101.857 82.5809 102.386 82.2421 102.783C81.9034 103.179 81.4365 103.411 80.9438 103.426Z" fill="#FAD201"/>
<path d="M162.926 124.672C160.102 124.672 157.007 124.554 153.64 124.318C136.228 123.093 113.675 118.834 90.1339 112.325C66.5931 105.817 44.8774 97.8369 28.9875 89.8552C21.247 85.967 15.3062 82.2864 11.3303 78.9157C7.12093 75.3472 5.27968 72.2367 5.85751 69.671C6.9834 64.6725 16.9526 63.5789 25.1174 63.5417L25.1202 64.2687C13.9077 64.3197 7.29287 66.3008 6.49419 69.847C5.47681 74.3637 13.7741 81.415 29.2584 89.1931C45.1135 97.1573 66.7892 105.122 90.2928 111.62C113.796 118.118 136.308 122.37 153.682 123.592C170.649 124.786 180.964 122.88 181.981 118.364C182.825 114.614 177.257 109.089 166.302 102.808L166.604 102.162C174.564 106.727 183.804 113.273 182.618 118.54C182.04 121.105 179.095 122.893 173.866 123.852C170.885 124.398 167.224 124.672 162.926 124.672Z" fill="#CCCCCC"/>
<path d="M13.049 119.91C10.8081 119.91 9.35132 119.293 8.70653 118.067C7.43499 115.649 9.56458 111.405 15.036 105.455L15.4956 105.973C10.4132 111.501 8.20345 115.666 9.27337 117.701C9.95041 118.988 11.9653 119.45 15.1015 119.035C18.2148 118.623 22.3407 117.396 27.3646 115.387C37.7073 111.251 50.6833 104.276 63.9023 95.7444C77.1209 87.2135 88.9987 78.149 97.348 70.221C98.9516 68.698 100.407 67.2328 101.674 65.8665C103.337 64.1166 104.871 62.2224 106.261 60.202C108.134 57.3847 108.766 55.215 108.089 53.9275C106.958 51.7772 102.209 51.9794 94.714 54.4977L94.5237 53.802C102.565 51.1005 107.319 51.0195 108.656 53.5617C109.487 55.1412 108.859 57.5204 106.79 60.6331C105.378 62.6856 103.82 64.6097 102.131 66.3873C100.855 67.7643 99.3891 69.2398 97.7749 70.7729C89.3965 78.7287 77.4843 87.8202 64.2325 96.3724C50.9804 104.925 37.9662 111.921 27.5874 116.071C22.5167 118.098 18.342 119.338 15.1792 119.756C14.4725 119.854 13.7612 119.906 13.049 119.91Z" fill="#CCCCCC"/>
</g>
<defs>
<clipPath id="clip0_1011_631">
<rect width="187.026" height="141" fill="white" transform="translate(0.789062 0.793457)"/>
</clipPath>
</defs>
</svg>
