<svg width="264" height="159" viewBox="0 0 264 159" fill="none" xmlns="http://www.w3.org/2000/svg">
<g clip-path="url(#clip0_1_50)">
<path d="M16.9573 33.7515C13.6823 33.7515 10.4808 32.7803 7.75768 30.9608C5.03457 29.1413 2.91217 26.5551 1.65886 23.5294C0.405551 20.5036 0.0776286 17.1741 0.71656 13.962C1.35549 10.7499 2.93258 7.79937 5.2484 5.48356C7.56421 3.16775 10.5147 1.59066 13.7269 0.951728C16.939 0.312797 20.2684 0.64072 23.2942 1.89403C26.3199 3.14734 28.9061 5.26974 30.7256 7.99285C32.5451 10.716 33.5163 13.9175 33.5163 17.1925C33.5113 21.5827 31.7651 25.7917 28.6608 28.896C25.5565 32.0003 21.3475 33.7465 16.9573 33.7515ZM16.9573 1.32351C13.8188 1.32351 10.7506 2.25421 8.141 3.99792C5.53136 5.74163 3.49739 8.22003 2.2963 11.1197C1.09521 14.0194 0.780953 17.2101 1.39326 20.2884C2.00557 23.3667 3.51694 26.1943 5.73626 28.4136C7.95558 30.6329 10.7832 32.1443 13.8615 32.7566C16.9397 33.3689 20.1305 33.0546 23.0302 31.8536C25.9298 30.6525 28.4082 28.6185 30.1519 26.0089C31.8957 23.3992 32.8263 20.3311 32.8263 17.1925C32.8216 12.9853 31.1481 8.95168 28.1732 5.9767C25.1982 3.00172 21.1646 1.32828 16.9573 1.32351Z" fill="#F2F2F2"/>
<path d="M129.42 24.092C127.783 24.092 126.182 23.6065 124.82 22.6967C123.459 21.7869 122.398 20.4939 121.771 18.981C121.144 17.4681 120.98 15.8034 121.3 14.1973C121.619 12.5913 122.408 11.116 123.566 9.95809C124.724 8.80018 126.199 8.01164 127.805 7.69217C129.411 7.37271 131.076 7.53667 132.589 8.16332C134.102 8.78998 135.395 9.85118 136.304 11.2127C137.214 12.5743 137.7 14.175 137.7 15.8126C137.697 18.0077 136.824 20.1121 135.272 21.6643C133.72 23.2165 131.615 24.0895 129.42 24.092ZM129.42 8.22304C127.919 8.22304 126.452 8.66816 125.204 9.50211C123.956 10.3361 122.983 11.5214 122.408 12.9082C121.834 14.295 121.684 15.821 121.977 17.2932C122.269 18.7654 122.992 20.1178 124.054 21.1792C125.115 22.2406 126.467 22.9634 127.94 23.2563C129.412 23.5491 130.938 23.3988 132.325 22.8244C133.711 22.2499 134.897 21.2772 135.731 20.0291C136.565 18.781 137.01 17.3136 137.01 15.8126C137.007 13.8004 136.207 11.8713 134.784 10.4485C133.362 9.02565 131.432 8.22532 129.42 8.22304Z" fill="#F2F2F2"/>
<path d="M187.722 64.4545C185.879 64.4545 184.078 63.9082 182.547 62.8848C181.015 61.8613 179.821 60.4066 179.116 58.7046C178.411 57.0026 178.227 55.1298 178.586 53.323C178.946 51.5161 179.833 49.8565 181.135 48.5538C182.438 47.2512 184.098 46.3641 185.904 46.0047C187.711 45.6453 189.584 45.8297 191.286 46.5347C192.988 47.2397 194.443 48.4335 195.466 49.9653C196.49 51.497 197.036 53.2979 197.036 55.1401C197.033 57.6096 196.051 59.9771 194.305 61.7233C192.559 63.4695 190.191 64.4517 187.722 64.4545ZM187.722 46.5156C186.016 46.5156 184.348 47.0215 182.93 47.9691C181.512 48.9168 180.406 50.2638 179.754 51.8397C179.101 53.4156 178.93 55.1497 179.263 56.8226C179.596 58.4956 180.417 60.0324 181.623 61.2385C182.829 62.4447 184.366 63.2661 186.039 63.5988C187.712 63.9316 189.446 63.7608 191.022 63.1081C192.598 62.4553 193.945 61.3499 194.893 59.9316C195.84 58.5133 196.346 56.8459 196.346 55.1401C196.343 52.8535 195.434 50.6614 193.817 49.0445C192.2 47.4277 190.008 46.5182 187.722 46.5156Z" fill="#F2F2F2"/>
<path d="M111.243 139.859L107.945 138.47L105.682 121.936H75.5521L73.0997 138.403L70.1489 139.878C70.0077 139.948 69.8945 140.065 69.8276 140.208C69.7607 140.351 69.744 140.512 69.7803 140.666C69.8166 140.819 69.9036 140.956 70.0274 141.054C70.1512 141.152 70.3044 141.205 70.4623 141.205H110.971C111.133 141.205 111.29 141.149 111.415 141.047C111.54 140.944 111.626 140.802 111.658 140.643C111.69 140.485 111.667 140.32 111.591 140.177C111.515 140.034 111.392 139.922 111.243 139.859Z" fill="#3F3D56"/>
<path d="M164.787 124.136H16.7784C16.0018 124.134 15.2576 123.824 14.7091 123.275C14.1606 122.725 13.8526 121.98 13.8526 121.203V100.332H167.713V121.203C167.713 121.98 167.405 122.725 166.856 123.275C166.308 123.824 165.564 124.134 164.787 124.136Z" fill="#3F3D56"/>
<path d="M167.867 110.196H13.7175V20.8931C13.7186 19.9559 14.0913 19.0574 14.7541 18.3948C15.4168 17.7321 16.3153 17.3593 17.2525 17.3583H164.332C165.27 17.3593 166.168 17.7321 166.831 18.3948C167.494 19.0574 167.866 19.9559 167.867 20.8931V110.196Z" fill="#17161A"/>
<path d="M158.661 103.715H22.9242C22.2017 103.714 21.509 103.427 20.9981 102.916C20.4872 102.405 20.1998 101.712 20.199 100.99V26.565C20.1998 25.8425 20.4872 25.1498 20.9981 24.6389C21.509 24.1279 22.2017 23.8405 22.9242 23.8397H158.661C159.383 23.8405 160.076 24.1279 160.587 24.6389C161.098 25.1498 161.385 25.8425 161.386 26.565V100.99C161.385 101.712 161.098 102.405 160.587 102.916C160.076 103.427 159.383 103.714 158.661 103.715Z" fill="white"/>
<path d="M157.383 141.378H25.9465C25.855 141.378 25.7672 141.342 25.7025 141.277C25.6378 141.212 25.6015 141.124 25.6015 141.033C25.6015 140.941 25.6378 140.854 25.7025 140.789C25.7672 140.724 25.855 140.688 25.9465 140.688H157.383C157.475 140.688 157.562 140.724 157.627 140.789C157.692 140.854 157.728 140.941 157.728 141.033C157.728 141.124 157.692 141.212 157.627 141.277C157.562 141.342 157.475 141.378 157.383 141.378Z" fill="#3F3D56"/>
<path d="M145.909 94.4676H35.6762C35.5847 94.4676 35.4969 94.4313 35.4322 94.3666C35.3675 94.3019 35.3312 94.2141 35.3312 94.1226V41.2881C35.3312 41.1966 35.3675 41.1089 35.4322 41.0442C35.4969 40.9795 35.5847 40.9431 35.6762 40.9431C35.7676 40.9431 35.8554 40.9795 35.9201 41.0442C35.9848 41.1089 36.0211 41.1966 36.0211 41.2881V93.7777H145.909C146 93.7777 146.088 93.814 146.153 93.8787C146.218 93.9434 146.254 94.0312 146.254 94.1226C146.254 94.2141 146.218 94.3019 146.153 94.3666C146.088 94.4313 146 94.4676 145.909 94.4676Z" fill="#3F3D56"/>
<path d="M59.2281 90.6728H49.202C48.9305 90.6725 48.6702 90.5646 48.4782 90.3726C48.2862 90.1806 48.1782 89.9203 48.1779 89.6488V75.8278C48.1782 75.5563 48.2862 75.296 48.4782 75.1041C48.6702 74.9121 48.9305 74.8041 49.202 74.8038H59.2281C59.4995 74.8041 59.7598 74.9121 59.9518 75.1041C60.1438 75.296 60.2518 75.5563 60.2521 75.8278V89.6488C60.2518 89.9203 60.1438 90.1806 59.9518 90.3726C59.7598 90.5646 59.4995 90.6725 59.2281 90.6728Z" fill="#FAD201"/>
<path d="M77.5119 90.6729H67.4858C67.2143 90.6726 66.954 90.5646 66.762 90.3726C66.5701 90.1807 66.4621 89.9204 66.4617 89.6489V62.7187C66.4621 62.4472 66.5701 62.1869 66.762 61.9949C66.954 61.803 67.2143 61.695 67.4858 61.6947H77.5119C77.7834 61.695 78.0437 61.803 78.2357 61.9949C78.4276 62.1869 78.5356 62.4472 78.536 62.7187V89.6489C78.5356 89.9204 78.4276 90.1807 78.2357 90.3726C78.0437 90.5646 77.7834 90.6726 77.5119 90.6729Z" fill="#FAD201"/>
<path d="M95.7953 90.673H85.7692C85.4977 90.6726 85.2374 90.5647 85.0455 90.3727C84.8535 90.1807 84.7455 89.9205 84.7451 89.649V75.8279C84.7455 75.5564 84.8535 75.2962 85.0455 75.1042C85.2374 74.9122 85.4977 74.8043 85.7692 74.804H95.7953C96.0668 74.8043 96.3271 74.9122 96.5191 75.1042C96.7111 75.2962 96.8191 75.5564 96.8194 75.8279V89.649C96.8191 89.9205 96.7111 90.1807 96.5191 90.3727C96.3271 90.5647 96.0668 90.6726 95.7953 90.673Z" fill="#FAD201"/>
<path d="M114.08 90.6729H104.054C103.788 90.6786 103.531 90.5789 103.339 90.3956C103.148 90.2124 103.036 89.9605 103.029 89.6953V57.4976C103.036 57.2323 103.148 56.9805 103.339 56.7972C103.531 56.614 103.788 56.5143 104.054 56.52H114.08C114.345 56.5143 114.602 56.614 114.794 56.7972C114.986 56.9805 115.097 57.2323 115.104 57.4976V89.6953C115.097 89.9605 114.986 90.2124 114.794 90.3956C114.602 90.5789 114.345 90.6786 114.08 90.6729Z" fill="#FAD201"/>
<path d="M132.364 90.6728H122.337C122.066 90.6725 121.806 90.5646 121.614 90.3726C121.422 90.1806 121.314 89.9203 121.313 89.6488V48.2296C121.314 47.9581 121.422 47.6978 121.614 47.5058C121.806 47.3138 122.066 47.2059 122.337 47.2056H132.364C132.635 47.2059 132.895 47.3138 133.087 47.5058C133.279 47.6978 133.387 47.9581 133.388 48.2296V89.6488C133.387 89.9203 133.279 90.1806 133.087 90.3726C132.895 90.5646 132.635 90.6725 132.364 90.6728Z" fill="#FAD201"/>
<path d="M54.215 70.6642C55.3582 70.6642 56.2849 69.7374 56.2849 68.5943C56.2849 67.4511 55.3582 66.5244 54.215 66.5244C53.0719 66.5244 52.1451 67.4511 52.1451 68.5943C52.1451 69.7374 53.0719 70.6642 54.215 70.6642Z" fill="black"/>
<path d="M72.4989 57.2099C73.642 57.2099 74.5688 56.2832 74.5688 55.1401C74.5688 53.9969 73.642 53.0702 72.4989 53.0702C71.3557 53.0702 70.429 53.9969 70.429 55.1401C70.429 56.2832 71.3557 57.2099 72.4989 57.2099Z" fill="black"/>
<path d="M90.7828 70.6642C91.9259 70.6642 92.8526 69.7374 92.8526 68.5943C92.8526 67.4511 91.9259 66.5244 90.7828 66.5244C89.6396 66.5244 88.7129 67.4511 88.7129 68.5943C88.7129 69.7374 89.6396 70.6642 90.7828 70.6642Z" fill="black"/>
<path d="M109.067 50.6554C110.21 50.6554 111.136 49.7287 111.136 48.5855C111.136 47.4423 110.21 46.5156 109.067 46.5156C107.923 46.5156 106.997 47.4423 106.997 48.5855C106.997 49.7287 107.923 50.6554 109.067 50.6554Z" fill="black"/>
<path d="M127.35 43.0659C128.494 43.0659 129.42 42.1392 129.42 40.996C129.42 39.8529 128.494 38.9261 127.35 38.9261C126.207 38.9261 125.281 39.8529 125.281 40.996C125.281 42.1392 126.207 43.0659 127.35 43.0659Z" fill="black"/>
<path d="M90.8262 69.0579L72.4989 55.3305L54.422 68.8702L54.008 68.3182L72.4989 54.4684L90.7392 68.1306L108.865 48.295L108.938 48.2653L127.221 40.8987L127.479 41.5386L109.268 48.876L90.8262 69.0579Z" fill="black"/>
</g>
<defs>
<clipPath id="clip0_1_50">
<rect width="263.238" height="158" fill="white" transform="translate(0.398438 0.633545)"/>
</clipPath>
</defs>
</svg>
