<svg width="230" height="130" viewBox="0 0 230 130" fill="none" xmlns="http://www.w3.org/2000/svg">
<g clip-path="url(#clip0_1_147)">
<path d="M229.27 4.54736H86.5108V72.289H229.27V4.54736Z" fill="#E6E6E6"/>
<path d="M225.188 10.3563H90.5931V66.8753H225.188V10.3563Z" fill="white"/>
<path d="M229.209 0.633545H86.45V6.69838H229.209V0.633545Z" fill="#FAD201"/>
<path d="M90.9569 4.56289C91.5777 4.56289 92.081 4.05961 92.081 3.43879C92.081 2.81797 91.5777 2.3147 90.9569 2.3147C90.3361 2.3147 89.8328 2.81797 89.8328 3.43879C89.8328 4.05961 90.3361 4.56289 90.9569 4.56289Z" fill="white"/>
<path d="M95.2235 4.56289C95.8443 4.56289 96.3476 4.05961 96.3476 3.43879C96.3476 2.81797 95.8443 2.3147 95.2235 2.3147C94.6027 2.3147 94.0994 2.81797 94.0994 3.43879C94.0994 4.05961 94.6027 4.56289 95.2235 4.56289Z" fill="white"/>
<path d="M99.4904 4.56289C100.111 4.56289 100.615 4.05961 100.615 3.43879C100.615 2.81797 100.111 2.3147 99.4904 2.3147C98.8696 2.3147 98.3663 2.81797 98.3663 3.43879C98.3663 4.05961 98.8696 4.56289 99.4904 4.56289Z" fill="white"/>
<path d="M150.794 23.7694C150.649 23.7694 150.511 23.8268 150.409 23.9289C150.307 24.031 150.249 24.1696 150.249 24.314C150.249 24.4584 150.307 24.5969 150.409 24.6991C150.511 24.8012 150.649 24.8586 150.794 24.8586H180.676C180.82 24.8586 180.959 24.8012 181.061 24.6991C181.163 24.5969 181.221 24.4584 181.221 24.314C181.221 24.1696 181.163 24.031 181.061 23.9289C180.959 23.8268 180.82 23.7694 180.676 23.7694H150.794Z" fill="#E6E6E6"/>
<path d="M150.794 27.0371C150.65 27.0374 150.511 27.0949 150.409 27.197C150.308 27.2991 150.25 27.4375 150.25 27.5817C150.25 27.7259 150.308 27.8643 150.409 27.9664C150.511 28.0684 150.65 28.126 150.794 28.1263H166.049C166.193 28.126 166.332 28.0684 166.434 27.9664C166.535 27.8643 166.593 27.7259 166.593 27.5817C166.593 27.4375 166.535 27.2991 166.434 27.197C166.332 27.0949 166.193 27.0374 166.049 27.0371H150.794Z" fill="#E6E6E6"/>
<path d="M150.042 42.8538C149.897 42.8538 149.759 42.9111 149.657 43.0133C149.555 43.1154 149.497 43.2539 149.497 43.3983C149.497 43.5428 149.555 43.6813 149.657 43.7834C149.759 43.8855 149.897 43.9429 150.042 43.9429H206.071C206.216 43.9429 206.354 43.8855 206.456 43.7834C206.558 43.6813 206.616 43.5428 206.616 43.3983C206.616 43.2539 206.558 43.1154 206.456 43.0133C206.354 42.9111 206.216 42.8538 206.071 42.8538H150.042Z" fill="#E6E6E6"/>
<path d="M150.042 46.1215C149.898 46.1218 149.759 46.1793 149.658 46.2814C149.556 46.3835 149.498 46.5218 149.498 46.666C149.498 46.8103 149.556 46.9486 149.658 47.0507C149.759 47.1528 149.898 47.2103 150.042 47.2106H191.444C191.589 47.2103 191.727 47.1528 191.829 47.0507C191.931 46.9486 191.988 46.8103 191.988 46.666C191.988 46.5218 191.931 46.3835 191.829 46.2814C191.727 46.1793 191.589 46.1218 191.444 46.1215H150.042Z" fill="#E6E6E6"/>
<path d="M150.042 49.3154C149.898 49.3157 149.759 49.3733 149.658 49.4753C149.556 49.5774 149.498 49.7158 149.498 49.86C149.498 50.0042 149.556 50.1426 149.658 50.2447C149.759 50.3468 149.898 50.4043 150.042 50.4046H206.071C206.215 50.4043 206.354 50.3468 206.455 50.2447C206.557 50.1426 206.615 50.0042 206.615 49.86C206.615 49.7158 206.557 49.5774 206.455 49.4753C206.354 49.3733 206.215 49.3157 206.071 49.3154H150.042Z" fill="#E6E6E6"/>
<path d="M150.042 52.5831C149.898 52.5834 149.759 52.641 149.658 52.743C149.556 52.8451 149.498 52.9835 149.498 53.1277C149.498 53.2719 149.556 53.4103 149.658 53.5124C149.759 53.6145 149.898 53.672 150.042 53.6723H191.444C191.589 53.672 191.727 53.6145 191.829 53.5124C191.931 53.4103 191.988 53.2719 191.988 53.1277C191.988 52.9835 191.931 52.8451 191.829 52.743C191.727 52.641 191.589 52.5834 191.444 52.5831H150.042Z" fill="#E6E6E6"/>
<path d="M120.749 45.0638C123.368 45.0638 125.491 42.9408 125.491 40.3218C125.491 37.7029 123.368 35.5798 120.749 35.5798C118.13 35.5798 116.007 37.7029 116.007 40.3218C116.007 42.9408 118.13 45.0638 120.749 45.0638Z" fill="#A0616A"/>
<path d="M119.248 36.5282C119.248 36.5282 121.461 37.121 122.607 37.3581C123.753 37.5952 123.634 36.9234 123.634 36.9234C123.634 36.9234 125.136 37.121 125.057 36.9629C124.978 36.8048 125.689 35.975 124.859 35.0266C124.029 34.0782 124.266 33.3669 124.266 33.3669H123.555L123.358 33.0903H122.251C122.251 33.0903 121.028 32.0176 118.854 32.3337C116.681 32.6498 114.111 33.4854 113.873 34.7895C113.841 34.9664 113.799 35.1629 113.75 35.3704C113.156 37.8795 114.418 40.2271 115.728 42.4482C116.05 42.9941 117.607 44.1843 117.567 43.3677C117.527 42.551 116.165 40.717 117.114 40.5984C118.062 40.4799 119.682 38.0694 119.248 36.5282Z" fill="#2F2E41"/>
<path d="M118.059 55.6519C117.144 55.5786 116.236 55.4295 115.345 55.2059L115.395 54.2603L115.81 46.7413L115.814 46.6836H124.167L125.478 53.6068L125.655 54.5409C125.309 54.6755 124.959 54.8023 124.602 54.9138C124.598 54.9138 124.598 54.9176 124.594 54.9176C124.098 55.0714 123.595 55.2059 123.087 55.3174C122.412 55.463 121.73 55.5682 121.042 55.6326C120.511 55.6853 119.977 55.711 119.443 55.7095C118.982 55.7095 118.517 55.6903 118.059 55.6519Z" fill="#6C63FF"/>
<path d="M112.689 54.3142C112.343 54.1642 112.009 54.0028 111.678 53.8336L111.536 53.7606C111.44 53.7106 111.34 53.6568 111.244 53.603C111.113 53.53 110.986 53.4569 110.863 53.3839C110.744 53.3147 110.621 53.2417 110.502 53.1686C110.494 53.1648 110.49 53.1609 110.483 53.1609C110.067 52.8957 109.66 52.6227 109.268 52.3268C109.203 52.2768 109.137 52.2268 109.072 52.1769L109.003 51.0698L109.103 51.0082L115.81 46.7413L115.903 46.6836L115.91 46.6798L116.856 46.6836V50.2048C117.39 50.9775 117.752 52.5958 117.975 54.7139C118.005 55.0176 118.032 55.329 118.059 55.6519C117.144 55.5787 116.236 55.4295 115.345 55.206C115.249 55.1868 115.157 55.1637 115.061 55.1368C114.501 54.9902 113.949 54.8131 113.408 54.6063C113.243 54.5448 113.081 54.4794 112.92 54.4141L112.904 54.4064C112.835 54.3757 112.758 54.3449 112.689 54.3142Z" fill="#2F2E41"/>
<path d="M111.244 53.603C111.113 53.53 110.986 53.457 110.863 53.384C110.744 53.3147 110.621 53.2417 110.502 53.1687C110.494 53.1648 110.49 53.161 110.483 53.161C110.067 52.8957 109.66 52.6228 109.268 52.3268C109.202 52.2769 109.137 52.2269 109.072 52.1769C109.041 52.15 109.01 52.1269 108.976 52.1C108.73 51.9117 108.491 51.7156 108.261 51.5081C108.249 51.5004 108.241 51.4888 108.23 51.4811C108.463 51.302 108.724 51.163 109.003 51.0698L109.276 51.1506L111.221 51.7348L111.232 52.5229L111.244 53.603Z" fill="#2F2E41"/>
<path d="M127.623 53.6145C127.508 53.676 127.393 53.7375 127.277 53.7952C127.25 53.8106 127.228 53.8221 127.204 53.8336C127.051 53.9105 126.901 53.9874 126.747 54.0604C126.743 54.0643 126.735 54.0643 126.735 54.0681C126.728 54.072 126.716 54.0758 126.709 54.0796C126.363 54.2449 126.013 54.3987 125.655 54.5409C125.309 54.6755 124.959 54.8023 124.602 54.9138C124.598 54.9138 124.598 54.9176 124.594 54.9176C124.098 55.0714 123.595 55.2059 123.087 55.3174C123.082 55.0016 123.123 54.6868 123.21 54.3833L123.214 54.3295L123.545 48.9785L123.103 46.6836L124.371 46.4952L131.348 50.2509C131.348 50.2509 130.579 51.0197 127.423 52.6573C127.144 52.8021 127.554 53.2839 127.623 53.6145Z" fill="#2F2E41"/>
<path d="M120.958 54.71C120.458 54.7562 119.951 54.7792 119.443 54.7792C118.951 54.7792 118.463 54.76 117.975 54.7139C118.005 55.0176 118.032 55.3289 118.059 55.6518C118.517 55.6903 118.982 55.7095 119.443 55.7095C119.977 55.711 120.511 55.6853 121.042 55.6326C121.73 55.5682 122.412 55.463 123.087 55.3174C123.082 55.0016 123.123 54.6868 123.21 54.3833L123.214 54.3295C122.472 54.5101 121.718 54.6373 120.958 54.71ZM135.484 33.1371C134.672 30.8037 133.361 28.6755 131.641 26.9011C129.922 25.1266 127.836 23.7485 125.53 22.8629C123.223 21.9773 120.751 21.6055 118.286 21.7734C115.821 21.9413 113.422 22.6449 111.257 23.8351C109.092 25.0253 107.213 26.6734 105.75 28.6646C104.287 30.6558 103.276 32.9421 102.788 35.3641C102.299 37.7861 102.345 40.2855 102.922 42.688C103.499 45.0905 104.593 47.3382 106.127 49.2745C106.281 49.4667 106.439 49.6589 106.6 49.8434C106.615 49.8588 106.623 49.8703 106.635 49.8819C107.031 50.3396 107.454 50.7746 107.899 51.185C108.007 51.2849 108.118 51.3849 108.23 51.481C108.241 51.4887 108.249 51.5002 108.261 51.5079C108.491 51.7155 108.73 51.9115 108.976 52.0999C109.01 52.1268 109.041 52.1499 109.072 52.1768C109.137 52.2268 109.203 52.2767 109.268 52.3267C109.66 52.6227 110.067 52.8956 110.483 53.1609C110.49 53.1609 110.494 53.1647 110.502 53.1686C110.621 53.2416 110.744 53.3146 110.863 53.3838C110.986 53.4569 111.113 53.5299 111.244 53.6029C111.34 53.6567 111.44 53.7106 111.536 53.7605L111.678 53.8336C112.009 54.0027 112.343 54.1642 112.689 54.3141C112.758 54.3448 112.835 54.3756 112.904 54.4063L112.92 54.414C113.081 54.4794 113.243 54.5447 113.408 54.6062C113.949 54.813 114.501 54.9901 115.061 55.1367C115.157 55.1636 115.249 55.1867 115.345 55.2059C116.236 55.4294 117.144 55.5786 118.059 55.6518C118.517 55.6903 118.982 55.7095 119.443 55.7095C119.977 55.711 120.511 55.6853 121.042 55.6326C121.73 55.5682 122.412 55.463 123.087 55.3174C123.595 55.2059 124.098 55.0714 124.594 54.9176C124.598 54.9176 124.598 54.9138 124.602 54.9138C124.959 54.8023 125.309 54.6754 125.655 54.5409C126.013 54.3987 126.363 54.2449 126.708 54.0796C126.716 54.0758 126.728 54.0719 126.735 54.0681C126.735 54.0642 126.743 54.0642 126.747 54.0604C126.901 53.9873 127.05 53.9105 127.204 53.8336C127.227 53.822 127.25 53.8105 127.277 53.7951C127.393 53.7375 127.508 53.676 127.623 53.6145C127.631 53.6106 127.635 53.6068 127.642 53.6029C127.946 53.4338 128.246 53.257 128.542 53.0686C128.623 53.0186 128.704 52.9687 128.784 52.911C128.903 52.838 129.019 52.7572 129.13 52.6765C129.28 52.5727 129.43 52.4651 129.576 52.3536C129.625 52.3224 129.671 52.2877 129.714 52.2498C130.072 51.9807 130.418 51.6963 130.749 51.3964C133.255 49.1626 135.044 46.2355 135.887 42.9852C136.73 39.735 136.59 36.3077 135.484 33.1371ZM130.46 50.4047C130.044 50.7962 129.608 51.1657 129.153 51.5118C129.053 51.5886 128.949 51.6655 128.846 51.7347C128.746 51.8116 128.646 51.8846 128.542 51.9538C128.454 52.0153 128.365 52.0768 128.273 52.1345C128.265 52.1422 128.254 52.146 128.246 52.1537C128.181 52.1998 128.112 52.2421 128.046 52.2844C127.842 52.4113 127.631 52.5381 127.423 52.6573C127.374 52.6842 127.327 52.7149 127.277 52.7418C127.25 52.7572 127.224 52.7726 127.193 52.788C127.078 52.8533 126.962 52.911 126.847 52.9725C126.831 52.984 126.812 52.9879 126.797 52.9994C126.791 53.0003 126.786 53.003 126.782 53.0071C126.701 53.0494 126.62 53.0878 126.539 53.1263C126.47 53.1609 126.405 53.1955 126.336 53.2262C126.055 53.3608 125.767 53.4876 125.478 53.6068C125.175 53.7298 124.867 53.8413 124.556 53.945C124.479 53.972 124.398 54.0027 124.317 54.0258C123.952 54.1411 123.587 54.2449 123.214 54.3295C122.472 54.5101 121.718 54.6373 120.958 54.71C120.458 54.7562 119.951 54.7792 119.443 54.7792C118.951 54.7792 118.463 54.76 117.975 54.7139C117.104 54.6342 116.241 54.4825 115.395 54.2603C115.365 54.2526 115.33 54.2449 115.299 54.2372C114.605 54.0563 113.926 53.8251 113.266 53.5453C113.231 53.5299 113.193 53.5184 113.162 53.503C113.123 53.4876 113.089 53.4761 113.058 53.4607C113.02 53.4453 112.985 53.4299 112.951 53.4146C112.662 53.2877 112.382 53.1493 112.101 53.0071L111.97 52.9379C111.72 52.8072 111.474 52.6726 111.232 52.5227C111.148 52.4766 111.059 52.4228 110.975 52.369C110.879 52.3113 110.782 52.2498 110.69 52.1883C110.667 52.1729 110.644 52.1576 110.621 52.1422C110.406 51.9961 110.187 51.85 109.979 51.6924C109.833 51.5848 109.691 51.481 109.548 51.3695C109.456 51.3003 109.364 51.2273 109.276 51.1504C109.218 51.1081 109.16 51.0582 109.103 51.0082C109.026 50.9428 108.949 50.8775 108.872 50.8083C108.753 50.7122 108.641 50.6045 108.534 50.5046C108.101 50.1057 107.691 49.6822 107.307 49.236C107.177 49.09 107.054 48.9439 106.935 48.7901C106.907 48.7599 106.881 48.7278 106.858 48.694C104.922 46.251 103.74 43.2975 103.455 40.1939C103.169 37.0903 103.793 33.9707 105.251 31.2158C106.708 28.4608 108.936 26.1896 111.662 24.6792C114.389 23.1688 117.496 22.4845 120.604 22.7098C123.713 22.9351 126.688 24.0603 129.168 25.948C131.648 27.8357 133.525 30.4044 134.57 33.3407C135.615 36.277 135.783 39.454 135.053 42.484C134.323 45.5141 132.728 48.2662 130.46 50.4047Z" fill="#3F3D56"/>
</g>
<defs>
<clipPath id="clip0_1_147">
<rect width="229.26" height="129.15" fill="white" transform="translate(0.00976562 0.633545)"/>
</clipPath>
</defs>
</svg>
