<svg width="230" height="130" viewBox="0 0 230 130" fill="none" xmlns="http://www.w3.org/2000/svg">
<g clip-path="url(#clip0_1011_698)">
<path d="M229.265 4.74438H86.5059V72.486H229.265V4.74438Z" fill="#E6E6E6"/>
<path d="M225.183 10.5533H90.5879V67.0723H225.183V10.5533Z" fill="white"/>
<path d="M229.202 0.830566H86.4434V6.8954H229.202V0.830566Z" fill="#FAD201"/>
<path d="M90.9503 4.75991C91.5711 4.75991 92.0744 4.25663 92.0744 3.63581C92.0744 3.01499 91.5711 2.51172 90.9503 2.51172C90.3294 2.51172 89.8262 3.01499 89.8262 3.63581C89.8262 4.25663 90.3294 4.75991 90.9503 4.75991Z" fill="white"/>
<path d="M95.2178 4.75991C95.8387 4.75991 96.3419 4.25663 96.3419 3.63581C96.3419 3.01499 95.8387 2.51172 95.2178 2.51172C94.597 2.51172 94.0938 3.01499 94.0938 3.63581C94.0938 4.25663 94.597 4.75991 95.2178 4.75991Z" fill="white"/>
<path d="M99.4854 4.75991C100.106 4.75991 100.61 4.25663 100.61 3.63581C100.61 3.01499 100.106 2.51172 99.4854 2.51172C98.8646 2.51172 98.3613 3.01499 98.3613 3.63581C98.3613 4.25663 98.8646 4.75991 99.4854 4.75991Z" fill="white"/>
<path d="M150.789 23.9664C150.644 23.9664 150.506 24.0238 150.404 24.1259C150.302 24.2281 150.244 24.3666 150.244 24.511C150.244 24.6554 150.302 24.794 150.404 24.8961C150.506 24.9982 150.644 25.0556 150.789 25.0556H180.671C180.815 25.0556 180.954 24.9982 181.056 24.8961C181.158 24.794 181.215 24.6554 181.215 24.511C181.215 24.3666 181.158 24.2281 181.056 24.1259C180.954 24.0238 180.815 23.9664 180.671 23.9664H150.789Z" fill="#E6E6E6"/>
<path d="M150.788 27.2341C150.643 27.2344 150.505 27.292 150.403 27.394C150.301 27.4961 150.244 27.6345 150.244 27.7787C150.244 27.9229 150.301 28.0613 150.403 28.1634C150.505 28.2655 150.643 28.323 150.788 28.3233H166.043C166.187 28.323 166.325 28.2655 166.427 28.1634C166.529 28.0613 166.586 27.9229 166.586 27.7787C166.586 27.6345 166.529 27.4961 166.427 27.394C166.325 27.292 166.187 27.2344 166.043 27.2341H150.788Z" fill="#E6E6E6"/>
<path d="M150.037 43.0508C149.892 43.0508 149.754 43.1082 149.652 43.2103C149.55 43.3124 149.492 43.4509 149.492 43.5954C149.492 43.7398 149.55 43.8783 149.652 43.9804C149.754 44.0826 149.892 44.1399 150.037 44.1399H206.066C206.211 44.1399 206.349 44.0826 206.451 43.9804C206.553 43.8783 206.611 43.7398 206.611 43.5954C206.611 43.4509 206.553 43.3124 206.451 43.2103C206.349 43.1082 206.211 43.0508 206.066 43.0508H150.037Z" fill="#E6E6E6"/>
<path d="M150.036 46.3185C149.891 46.3188 149.753 46.3763 149.651 46.4784C149.549 46.5805 149.492 46.7188 149.492 46.8631C149.492 47.0073 149.549 47.1456 149.651 47.2477C149.753 47.3498 149.891 47.4073 150.036 47.4076H191.438C191.582 47.4073 191.721 47.3498 191.822 47.2477C191.924 47.1456 191.982 47.0073 191.982 46.8631C191.982 46.7188 191.924 46.5805 191.822 46.4784C191.721 46.3763 191.582 46.3188 191.438 46.3185H150.036Z" fill="#E6E6E6"/>
<path d="M150.036 49.5125C149.891 49.5128 149.753 49.5703 149.651 49.6724C149.549 49.7745 149.492 49.9128 149.492 50.057C149.492 50.2013 149.549 50.3396 149.651 50.4417C149.753 50.5438 149.891 50.6013 150.036 50.6016H206.065C206.209 50.6013 206.347 50.5438 206.449 50.4417C206.551 50.3396 206.608 50.2013 206.608 50.057C206.608 49.9128 206.551 49.7745 206.449 49.6724C206.347 49.5703 206.209 49.5128 206.065 49.5125H150.036Z" fill="#E6E6E6"/>
<path d="M150.036 52.7802C149.891 52.7805 149.753 52.838 149.651 52.9401C149.549 53.0422 149.492 53.1805 149.492 53.3247C149.492 53.469 149.549 53.6073 149.651 53.7094C149.753 53.8115 149.891 53.869 150.036 53.8693H191.438C191.582 53.869 191.721 53.8115 191.822 53.7094C191.924 53.6073 191.982 53.469 191.982 53.3247C191.982 53.1805 191.924 53.0422 191.822 52.9401C191.721 52.838 191.582 52.7805 191.438 52.7802H150.036Z" fill="#E6E6E6"/>
<path d="M120.744 45.2609C123.363 45.2609 125.486 43.1378 125.486 40.5189C125.486 37.8999 123.363 35.7769 120.744 35.7769C118.125 35.7769 116.002 37.8999 116.002 40.5189C116.002 43.1378 118.125 45.2609 120.744 45.2609Z" fill="#A0616A"/>
<path d="M119.243 36.7252C119.243 36.7252 121.456 37.318 122.602 37.5551C123.748 37.7922 123.629 37.1204 123.629 37.1204C123.629 37.1204 125.131 37.318 125.052 37.1599C124.973 37.0018 125.684 36.172 124.854 35.2236C124.024 34.2752 124.261 33.5639 124.261 33.5639H123.55L123.353 33.2873H122.246C122.246 33.2873 121.023 32.2146 118.849 32.5307C116.676 32.8468 114.106 33.6824 113.869 34.9865C113.836 35.1634 113.794 35.3599 113.745 35.5674C113.151 38.0765 114.413 40.4241 115.723 42.6452C116.045 43.1911 117.602 44.3814 117.562 43.5647C117.522 42.7481 116.16 40.914 117.109 40.7954C118.057 40.6769 119.677 38.2664 119.243 36.7252Z" fill="#2F2E41"/>
<path d="M118.054 55.8489C117.138 55.7756 116.231 55.6265 115.34 55.403L115.39 54.4573L115.805 46.9383L115.809 46.8806H124.162L125.473 53.8038L125.65 54.7379C125.304 54.8725 124.954 54.9993 124.596 55.1108C124.592 55.1108 124.592 55.1146 124.589 55.1146C124.093 55.2684 123.589 55.4029 123.082 55.5144C122.407 55.66 121.724 55.7652 121.037 55.8296C120.505 55.8824 119.972 55.908 119.438 55.9065C118.976 55.9065 118.511 55.8873 118.054 55.8489Z" fill="#6C63FF"/>
<path d="M112.682 54.5112C112.337 54.3613 112.002 54.1998 111.672 54.0307L111.529 53.9576C111.433 53.9077 111.333 53.8538 111.237 53.8C111.106 53.727 110.98 53.654 110.857 53.5809C110.737 53.5117 110.614 53.4387 110.495 53.3656C110.488 53.3618 110.484 53.358 110.476 53.358C110.061 53.0927 109.653 52.8198 109.261 52.5238C109.196 52.4738 109.131 52.4238 109.065 52.3739L108.996 51.2668L109.096 51.2053L115.804 46.9383L115.896 46.8807L115.904 46.8768L116.849 46.8807V50.4019C117.384 51.1745 117.745 52.7929 117.968 54.9109C117.999 55.2146 118.026 55.526 118.053 55.8489C117.137 55.7757 116.23 55.6265 115.339 55.403C115.243 55.3838 115.15 55.3607 115.054 55.3338C114.494 55.1872 113.942 55.0101 113.401 54.8033C113.236 54.7418 113.075 54.6765 112.913 54.6111L112.898 54.6034C112.829 54.5727 112.752 54.5419 112.682 54.5112Z" fill="#2F2E41"/>
<path d="M111.238 53.8001C111.108 53.7271 110.981 53.654 110.858 53.581C110.739 53.5118 110.616 53.4387 110.497 53.3657C110.489 53.3619 110.485 53.358 110.477 53.358C110.062 53.0928 109.655 52.8198 109.263 52.5239C109.197 52.4739 109.132 52.4239 109.066 52.3739C109.036 52.347 109.005 52.324 108.97 52.2971C108.724 52.1087 108.486 51.9127 108.255 51.7051C108.244 51.6974 108.236 51.6858 108.225 51.6782C108.458 51.4991 108.719 51.3601 108.997 51.2668L109.27 51.3476L111.215 51.9319L111.227 52.7199L111.238 53.8001Z" fill="#2F2E41"/>
<path d="M127.617 53.8115C127.501 53.873 127.386 53.9345 127.271 53.9922C127.244 54.0076 127.221 54.0191 127.198 54.0306C127.044 54.1075 126.894 54.1844 126.74 54.2574C126.736 54.2613 126.729 54.2613 126.729 54.2651C126.721 54.269 126.71 54.2728 126.702 54.2767C126.356 54.442 126.006 54.5957 125.649 54.7379C125.303 54.8725 124.953 54.9994 124.595 55.1108C124.591 55.1108 124.591 55.1147 124.588 55.1147C124.092 55.2684 123.588 55.403 123.081 55.5144C123.075 55.1987 123.116 54.8838 123.204 54.5803L123.207 54.5265L123.538 49.1755L123.096 46.8806L124.365 46.6923L131.342 50.4479C131.342 50.4479 130.573 51.2168 127.417 52.8543C127.138 52.9991 127.547 53.4809 127.617 53.8115Z" fill="#2F2E41"/>
<path d="M120.953 54.907C120.453 54.9532 119.945 54.9763 119.438 54.9763C118.946 54.9763 118.458 54.957 117.969 54.9109C118 55.2146 118.027 55.526 118.054 55.8489C118.512 55.8873 118.977 55.9065 119.438 55.9065C119.972 55.908 120.506 55.8824 121.037 55.8296C121.724 55.7652 122.407 55.66 123.082 55.5144C123.076 55.1987 123.118 54.8838 123.205 54.5803L123.209 54.5265C122.467 54.7071 121.713 54.8343 120.953 54.907ZM135.479 33.3341C134.667 31.0007 133.355 28.8725 131.636 27.0981C129.917 25.3236 127.831 23.9456 125.525 23.0599C123.218 22.1743 120.746 21.8025 118.281 21.9704C115.816 22.1383 113.417 22.8419 111.252 24.0321C109.087 25.2223 107.207 26.8705 105.745 28.8617C104.282 30.8528 103.271 33.1392 102.782 35.5611C102.294 37.9831 102.34 40.4825 102.917 42.885C103.493 45.2875 104.587 47.5352 106.122 49.4715C106.276 49.6637 106.433 49.8559 106.595 50.0404C106.61 50.0558 106.618 50.0674 106.629 50.0789C107.026 50.5366 107.448 50.9717 107.894 51.382C108.002 51.482 108.113 51.5819 108.225 51.678C108.236 51.6857 108.244 51.6972 108.255 51.7049C108.486 51.9125 108.724 52.1086 108.97 52.2969C109.005 52.3238 109.036 52.3469 109.066 52.3738C109.132 52.4238 109.197 52.4738 109.263 52.5237C109.655 52.8197 110.062 53.0926 110.477 53.3579C110.485 53.3579 110.489 53.3617 110.497 53.3656C110.616 53.4386 110.739 53.5116 110.858 53.5808C110.981 53.6539 111.108 53.7269 111.239 53.7999C111.335 53.8538 111.434 53.9076 111.531 53.9576L111.673 54.0306C112.003 54.1997 112.338 54.3612 112.684 54.5111C112.753 54.5419 112.83 54.5726 112.899 54.6034L112.914 54.6111C113.076 54.6764 113.237 54.7417 113.403 54.8033C113.944 55.01 114.495 55.1871 115.056 55.3337C115.152 55.3607 115.244 55.3837 115.34 55.4029C116.231 55.6265 117.139 55.7756 118.054 55.8489C118.512 55.8873 118.977 55.9065 119.438 55.9065C119.972 55.908 120.506 55.8824 121.037 55.8296C121.724 55.7652 122.407 55.66 123.082 55.5144C123.59 55.4029 124.093 55.2684 124.589 55.1146C124.593 55.1146 124.593 55.1108 124.597 55.1108C124.954 54.9993 125.304 54.8725 125.65 54.7379C126.007 54.5957 126.357 54.4419 126.703 54.2766C126.711 54.2728 126.722 54.2689 126.73 54.2651C126.73 54.2612 126.738 54.2612 126.742 54.2574C126.895 54.1844 127.045 54.1075 127.199 54.0306C127.222 54.0191 127.245 54.0075 127.272 53.9922C127.387 53.9345 127.503 53.873 127.618 53.8115C127.626 53.8076 127.63 53.8038 127.637 53.8C127.941 53.6308 128.241 53.454 128.537 53.2656C128.618 53.2157 128.698 53.1657 128.779 53.108C128.898 53.035 129.013 52.9543 129.125 52.8735C129.275 52.7697 129.425 52.6621 129.571 52.5506C129.619 52.5194 129.666 52.4848 129.709 52.4469C130.067 52.1778 130.413 51.8933 130.743 51.5935C133.25 49.3597 135.038 46.4325 135.881 43.1822C136.724 39.932 136.584 36.5047 135.479 33.3341ZM130.455 50.6017C130.039 50.9932 129.603 51.3627 129.148 51.7088C129.048 51.7856 128.944 51.8625 128.841 51.9317C128.741 52.0086 128.641 52.0817 128.537 52.1508C128.448 52.2124 128.36 52.2739 128.268 52.3315C128.26 52.3392 128.249 52.343 128.241 52.3507C128.175 52.3969 128.106 52.4392 128.041 52.4814C127.837 52.6083 127.626 52.7352 127.418 52.8543C127.368 52.8812 127.322 52.912 127.272 52.9389C127.245 52.9543 127.218 52.9696 127.188 52.985C127.072 53.0504 126.957 53.108 126.842 53.1695C126.826 53.1811 126.807 53.1849 126.792 53.1964C126.786 53.1974 126.78 53.2 126.776 53.2041C126.696 53.2464 126.615 53.2848 126.534 53.3233C126.465 53.3579 126.4 53.3925 126.33 53.4232C126.05 53.5578 125.761 53.6846 125.473 53.8038C125.169 53.9268 124.862 54.0383 124.551 54.1421C124.474 54.169 124.393 54.1997 124.312 54.2228C123.947 54.3381 123.582 54.4419 123.209 54.5265C122.467 54.7071 121.713 54.8343 120.953 54.907C120.453 54.9532 119.945 54.9763 119.438 54.9763C118.946 54.9763 118.458 54.957 117.969 54.9109C117.099 54.8312 116.236 54.6795 115.39 54.4573C115.359 54.4496 115.325 54.4419 115.294 54.4342C114.6 54.2533 113.921 54.0221 113.26 53.7423C113.226 53.7269 113.187 53.7154 113.157 53.7C113.118 53.6846 113.084 53.6731 113.053 53.6577C113.014 53.6423 112.98 53.627 112.945 53.6116C112.657 53.4847 112.376 53.3463 112.096 53.2041L111.965 53.1349C111.715 53.0042 111.469 52.8697 111.227 52.7197C111.142 52.6736 111.054 52.6198 110.969 52.566C110.873 52.5083 110.777 52.4468 110.685 52.3853C110.662 52.3699 110.639 52.3546 110.616 52.3392C110.4 52.1931 110.181 52.047 109.974 51.8895C109.828 51.7818 109.686 51.678 109.543 51.5665C109.451 51.4973 109.359 51.4243 109.27 51.3474C109.213 51.3051 109.155 51.2552 109.097 51.2052C109.021 51.1399 108.944 51.0745 108.867 51.0053C108.748 50.9092 108.636 50.8016 108.528 50.7016C108.096 50.3027 107.686 49.8792 107.302 49.4331C107.171 49.287 107.048 49.1409 106.929 48.9872C106.902 48.9569 106.876 48.9248 106.852 48.8911C104.917 46.448 103.735 43.4945 103.449 40.3909C103.164 37.2873 103.788 34.1677 105.246 31.4128C106.703 28.6579 108.931 26.3867 111.657 24.8763C114.383 23.3659 117.49 22.6816 120.599 22.9069C123.707 23.1322 126.683 24.2573 129.163 26.145C131.643 28.0328 133.52 30.6014 134.565 33.5377C135.61 36.474 135.778 39.651 135.048 42.681C134.318 45.7111 132.722 48.4632 130.455 50.6017Z" fill="#3F3D56"/>
</g>
<defs>
<clipPath id="clip0_1011_698">
<rect width="229.26" height="129.15" fill="white" transform="translate(0.00390625 0.830566)"/>
</clipPath>
</defs>
</svg>
