<svg width="220" height="143" viewBox="0 0 220 143" fill="none" xmlns="http://www.w3.org/2000/svg">
<g clip-path="url(#clip0_1_121)">
<path d="M190.449 111.981C190.4 111.916 190.351 111.851 190.303 111.786C190.255 111.721 190.208 111.656 190.16 111.591C190.112 111.525 190.065 111.46 190.018 111.394C189.971 111.329 189.924 111.263 189.877 111.196C189.799 109.293 189.798 107.407 189.874 105.538C189.948 103.682 190.098 101.848 190.324 100.037C190.547 98.2392 190.843 96.4692 191.211 94.7269C191.577 92.9979 192.012 91.3016 192.518 89.6379C192.575 89.4461 192.634 89.2551 192.693 89.0648C192.753 88.8745 192.814 88.6854 192.876 88.4976C192.938 88.3089 193 88.1211 193.064 87.9341C193.128 87.7471 193.192 87.5607 193.258 87.3751C193.745 85.9859 194.281 84.6307 194.866 83.3095C195.447 81.9975 196.074 80.7218 196.748 79.4824C197.416 78.2517 198.129 77.0589 198.886 75.9041C199.638 74.7578 200.432 73.6516 201.267 72.5854L201.399 72.4182L201.531 72.2519L201.663 72.0864L201.796 71.9218L201.892 71.8037L201.989 71.686C202.021 71.647 202.054 71.6081 202.087 71.5693C202.119 71.5305 202.152 71.4922 202.186 71.4542L202.265 71.4088L202.344 71.3637L202.423 71.3188L202.501 71.274L202.506 71.2723L202.511 71.2699L202.516 71.2674L202.521 71.2655L202.552 71.2474L202.584 71.2292L202.614 71.2109L202.644 71.1926L202.78 71.116L202.916 71.0407L203.052 70.9655L203.187 70.8896L203.084 70.8356L202.826 70.7011L202.828 70.7C202.85 70.7099 202.872 70.7204 202.894 70.7314C202.915 70.7424 202.937 70.7531 202.959 70.7633C202.982 70.7742 203.004 70.785 203.025 70.7957C203.047 70.8064 203.068 70.8175 203.09 70.8288L203.115 70.8399L203.141 70.8512L203.166 70.8627C203.175 70.8662 203.183 70.8705 203.191 70.8754C203.198 70.8794 203.206 70.8827 203.213 70.8853L203.236 70.8953L203.258 70.9052L203.28 70.9152C204.222 71.3666 205.166 71.825 206.097 72.3056C207.029 72.7863 207.947 73.2872 208.839 73.8263C209.729 74.3613 210.592 74.9449 211.424 75.5746C212.253 76.2012 213.038 76.8897 213.772 77.6348C214.547 78.427 215.24 79.3023 215.84 80.2463C216.433 81.1737 216.921 82.1704 217.294 83.216C217.652 84.2114 217.866 85.2575 217.927 86.3192C217.987 87.3405 217.849 88.3638 217.524 89.3285C217.48 89.4542 217.432 89.5783 217.381 89.7005C217.33 89.8228 217.276 89.9432 217.218 90.0618C217.16 90.1803 217.099 90.2968 217.035 90.4112C216.97 90.5256 216.902 90.6379 216.831 90.7481C216.802 90.7941 216.772 90.8396 216.741 90.8847C216.71 90.9298 216.679 90.9745 216.647 91.0189C216.615 91.0632 216.583 91.1073 216.551 91.1513C216.518 91.1953 216.485 91.2389 216.452 91.2822C215.835 92.0932 215.052 92.7481 214.159 93.198C213.262 93.6466 212.287 93.8996 211.294 93.9416C210.25 93.9872 209.207 93.8288 208.218 93.4745C207.158 93.0958 206.173 92.5176 205.311 91.7682C205.013 91.5107 204.731 91.2341 204.466 90.9401C204.204 90.6487 203.959 90.3405 203.733 90.0173C203.508 89.6969 203.304 89.362 203.12 89.0146C202.938 88.6699 202.777 88.3131 202.639 87.9465C202.574 89.0851 202.742 90.2251 203.134 91.2897C203.547 92.4089 204.108 93.4618 204.802 94.4173C205.534 95.4347 206.346 96.3861 207.231 97.2615C208.121 98.1546 209.066 98.9918 210 99.7628C210.934 100.534 211.901 101.322 212.837 102.145C213.773 102.953 214.663 103.817 215.504 104.732C216.319 105.616 217.041 106.59 217.656 107.637C218.259 108.67 218.696 109.801 218.947 110.983C219.217 112.271 219.203 113.606 218.907 114.887C218.764 115.511 218.559 116.117 218.297 116.697C218.032 117.281 217.715 117.838 217.35 118.359L217.316 118.407L217.282 118.455L217.247 118.502L217.212 118.549C216.321 119.767 215.203 120.783 213.925 121.535C213.281 121.913 212.604 122.223 211.901 122.46C211.182 122.702 210.442 122.869 209.691 122.957C208.263 123.095 206.823 123.009 205.42 122.702C203.974 122.385 202.569 121.893 201.233 121.236C199.851 120.559 198.53 119.754 197.286 118.829C196.031 117.9 194.843 116.876 193.731 115.765C193.436 115.47 193.146 115.17 192.861 114.865C192.576 114.559 192.297 114.249 192.023 113.933C191.749 113.618 191.481 113.297 191.219 112.972C190.957 112.646 190.7 112.316 190.449 111.981Z" fill="#736F4E"/>
<path d="M213.407 89.9334C212.525 89.4541 211.676 88.9092 210.868 88.303C209.254 87.0924 207.812 85.6485 206.585 84.0144C205.977 83.2036 205.425 82.3474 204.936 81.4527C204.528 80.6968 204.165 79.9148 203.851 79.1113C203.544 78.3274 203.286 77.5236 203.078 76.7047C202.876 75.905 202.725 75.0918 202.626 74.2708C202.53 73.4666 202.487 72.6563 202.499 71.8459C202.501 71.8002 202.502 71.7548 202.502 71.7097C202.503 71.6646 202.504 71.6192 202.505 71.5735C202.507 71.5278 202.508 71.4827 202.511 71.4382L202.517 71.3035C202.48 71.3341 202.443 71.365 202.406 71.3961L202.296 71.4901L202.186 71.5848L202.076 71.6798L202.006 71.7407L201.935 71.8022L201.865 71.8641L201.795 71.926L201.891 71.8081L201.989 71.6865C202.022 71.6474 202.054 71.6085 202.087 71.5697C202.12 71.5309 202.153 71.4926 202.187 71.4547L202.266 71.4092L202.345 71.3641L202.422 71.3193L202.5 71.2745L202.505 71.2728L202.51 71.2704L202.515 71.2679L202.52 71.266L202.551 71.2479L202.583 71.2298L202.613 71.2115L202.643 71.1932L202.78 71.1167L202.916 71.0413L203.051 70.9661L203.187 70.8907L203.081 70.8355L202.823 70.7007L202.825 70.6996C202.847 70.7095 202.869 70.72 202.891 70.731C202.912 70.7421 202.934 70.7527 202.956 70.7629C202.979 70.7738 203 70.7846 203.022 70.7953C203.044 70.8061 203.065 70.8171 203.087 70.8284L203.112 70.8395L203.138 70.8509L203.163 70.8623C203.172 70.8658 203.18 70.87 203.188 70.8749L203.186 70.9179L203.182 70.9581L203.18 70.9982L203.178 71.0387C203.083 72.4038 203.151 73.7759 203.381 75.1234C203.617 76.5104 204.004 77.8643 204.536 79.1587C205.085 80.4985 205.772 81.772 206.584 82.9567C207.423 84.1822 208.384 85.3108 209.451 86.3235C210.526 87.3286 211.698 88.2134 212.948 88.9634C213.565 89.3336 214.201 89.6693 214.853 89.9691C215.499 90.2658 216.16 90.5256 216.832 90.7474C216.803 90.7934 216.773 90.8389 216.742 90.884C216.711 90.9291 216.68 90.9738 216.648 91.0182C216.616 91.0625 216.584 91.1066 216.552 91.1506C216.519 91.1946 216.486 91.2382 216.453 91.2815C216.193 91.1915 215.935 91.0958 215.678 90.9944C215.422 90.893 215.166 90.786 214.912 90.6735C214.658 90.561 214.406 90.4429 214.155 90.3193C213.904 90.1957 213.655 90.067 213.407 89.9334Z" fill="white"/>
<path d="M195.938 100.135C195.649 99.6839 195.376 99.2241 195.119 98.756C194.863 98.2879 194.623 97.8131 194.4 97.3318C194.177 96.8504 193.971 96.3631 193.782 95.8696C193.594 95.3762 193.423 94.8784 193.269 94.3763C193.191 94.11 193.119 93.8428 193.053 93.5746C192.986 93.3064 192.927 93.0378 192.873 92.7687C192.819 92.4997 192.772 92.2301 192.73 91.9598C192.688 91.6896 192.653 91.4195 192.624 91.1498C192.61 91.024 192.597 90.8981 192.585 90.7718C192.574 90.6456 192.563 90.5195 192.554 90.3935C192.545 90.2673 192.538 90.1413 192.532 90.0155C192.525 89.8896 192.52 89.7639 192.516 89.6384C192.574 89.4466 192.633 89.2556 192.692 89.0653C192.752 88.875 192.813 88.6855 192.874 88.4968C192.936 88.3081 192.999 88.1203 193.062 87.9332C193.126 87.7462 193.191 87.5599 193.257 87.3743C193.243 87.5298 193.23 87.6857 193.22 87.842C193.21 87.9983 193.202 88.155 193.196 88.3123C193.19 88.4695 193.186 88.6272 193.184 88.7852C193.182 88.9433 193.183 89.1016 193.185 89.2602C193.185 89.3467 193.185 89.4331 193.187 89.5195C193.189 89.6059 193.191 89.6924 193.194 89.7789C193.197 89.8653 193.2 89.9517 193.205 90.0382C193.209 90.1247 193.214 90.2111 193.219 90.2976C193.283 91.2677 193.428 92.23 193.654 93.1733C193.883 94.1279 194.181 95.0629 194.546 95.9699C194.918 96.8943 195.347 97.7925 195.83 98.6587C196.322 99.5401 196.859 100.393 197.44 101.212C198.066 102.097 198.727 102.959 199.424 103.797C200.12 104.635 200.843 105.45 201.593 106.243C202.343 107.034 203.115 107.801 203.91 108.544C204.704 109.287 205.512 110.004 206.332 110.695C207.173 111.405 208.03 112.087 208.905 112.743C209.78 113.399 210.668 114.026 211.571 114.624C212.474 115.222 213.39 115.791 214.32 116.331C215.25 116.871 216.19 117.38 217.141 117.858C217.185 117.881 217.224 117.911 217.257 117.948C217.29 117.985 217.316 118.026 217.335 118.072C217.354 118.117 217.365 118.165 217.368 118.214C217.371 118.264 217.365 118.313 217.35 118.36C217.345 118.381 217.338 118.4 217.329 118.419C217.321 118.438 217.311 118.455 217.299 118.471C217.287 118.487 217.274 118.502 217.259 118.515C217.245 118.528 217.229 118.539 217.212 118.549C217.194 118.557 217.175 118.564 217.156 118.567C217.137 118.571 217.117 118.572 217.098 118.57C217.078 118.569 217.058 118.565 217.039 118.559C217.019 118.553 217 118.544 216.982 118.533C216.864 118.474 216.747 118.415 216.629 118.356C216.512 118.296 216.395 118.237 216.278 118.176C216.161 118.116 216.044 118.055 215.927 117.994C215.811 117.933 215.694 117.871 215.578 117.808C214.609 117.287 213.653 116.735 212.709 116.151C211.766 115.568 210.837 114.954 209.922 114.31C209.007 113.666 208.109 112.993 207.228 112.291C206.346 111.589 205.483 110.86 204.639 110.102C203.823 109.372 203.018 108.618 202.232 107.838C201.446 107.059 200.68 106.254 199.942 105.424C199.205 104.593 198.496 103.737 197.825 102.856C197.154 101.974 196.523 101.068 195.938 100.135Z" fill="white"/>
<path d="M214.195 27.6744L213.501 27.7687L218.155 9.49029C218.498 8.26976 218.554 6.98057 218.318 5.73259C218.113 4.71288 217.607 3.78655 216.87 3.08502C216.099 2.3836 215.154 1.92464 214.144 1.76112C212.914 1.56182 211.658 1.62064 210.45 1.93416L178.817 9.47182C177.712 9.7521 176.656 10.207 175.683 10.8208C174.624 11.4792 173.64 12.2599 172.749 13.1483C171.831 14.0542 171.008 15.0588 170.292 16.1455C169.593 17.1973 169.023 18.337 168.596 19.5376L135.497 114.789C134.947 116.355 134.59 117.988 134.434 119.649C134.289 121.123 134.357 122.612 134.636 124.065C134.87 125.327 135.356 126.524 136.065 127.574C136.715 128.529 137.63 129.252 138.686 129.643L172.11 141.682C173.594 142.211 175.188 142.31 176.722 141.969C178.362 141.596 179.905 140.852 181.243 139.791C182.745 138.611 184.037 137.162 185.059 135.513C186.191 133.7 187.037 131.709 187.564 129.615L209.972 41.6226L210.675 41.5636L214.195 27.6744Z" fill="#3F3D56"/>
<path d="M211.777 26.6624L211.083 26.7568L215.737 8.47832C216.08 7.2578 216.136 5.9686 215.9 4.72063C215.695 3.70092 215.189 2.77458 214.452 2.07306C213.681 1.37163 212.736 0.912681 211.726 0.749155C210.496 0.549854 209.24 0.608677 208.032 0.922199L176.399 8.45986C175.294 8.74014 174.238 9.19503 173.265 9.80881C172.206 10.4672 171.222 11.248 170.331 12.1363C169.413 13.0422 168.59 14.0469 167.874 15.1335C167.175 16.1854 166.605 17.325 166.178 18.5257L133.08 113.777C132.529 115.343 132.172 116.976 132.016 118.637C131.871 120.111 131.939 121.6 132.218 123.053C132.452 124.315 132.939 125.512 133.647 126.562C134.297 127.518 135.212 128.24 136.269 128.631L169.692 140.67C171.176 141.199 172.77 141.298 174.304 140.958C175.945 140.584 177.487 139.84 178.825 138.78C180.327 137.599 181.619 136.15 182.641 134.501C183.773 132.688 184.619 130.697 185.146 128.603L207.554 40.6106L208.257 40.5517L211.777 26.6624Z" fill="#3F3D56"/>
<path d="M207.753 3.30716L203.103 4.37302C203.153 4.79396 203.113 5.22147 202.985 5.62407C202.84 6.09498 202.63 6.54111 202.362 6.94823C201.757 7.87247 200.95 8.63221 200.008 9.16419C199.895 9.22693 199.783 9.28486 199.671 9.33799C199.559 9.39112 199.447 9.43936 199.335 9.4827C199.223 9.52605 199.112 9.56434 199.002 9.59756C198.892 9.63079 198.783 9.65879 198.676 9.68155L180.495 13.5334C180.158 13.6154 179.807 13.6112 179.471 13.5212C179.201 13.4454 178.963 13.2775 178.794 13.0441C178.624 12.7935 178.528 12.4961 178.518 12.189C178.504 11.7971 178.563 11.4062 178.692 11.0381C178.724 10.9388 178.761 10.8387 178.803 10.738C178.844 10.6374 178.889 10.5367 178.937 10.436C178.986 10.3348 179.039 10.2341 179.096 10.1339C179.153 10.0337 179.213 9.93362 179.277 9.8336L175.834 10.6227C175.005 10.8261 174.211 11.1623 173.48 11.6195C172.682 12.1118 171.939 12.6974 171.266 13.3651C170.573 14.0473 169.952 14.8048 169.412 15.6249C168.886 16.4173 168.458 17.2765 168.139 18.1818L135.103 114.261C134.692 115.442 134.428 116.673 134.318 117.924C134.216 119.028 134.276 120.142 134.496 121.228C134.679 122.166 135.053 123.052 135.593 123.825C136.088 124.527 136.777 125.051 137.568 125.327L171.237 136.771C172.348 137.144 173.533 137.2 174.672 136.933C175.884 136.642 177.023 136.083 178.011 135.294C179.116 134.418 180.068 133.348 180.823 132.131C181.659 130.795 182.287 129.328 182.682 127.785L213.445 9.00986C213.703 8.10319 213.751 7.14518 213.584 6.21531C213.44 5.45328 213.072 4.75748 212.531 4.22502C211.964 3.69267 211.265 3.33985 210.514 3.20773C209.596 3.04655 208.657 3.08037 207.753 3.30716Z" fill="white"/>
<path d="M189.696 48.8114H122.72V25.0641H189.696V48.8114Z" fill="white"/>
<path d="M170.115 57.1929H104.474V90.4857H170.115V57.1929Z" fill="white"/>
<path d="M115.138 73.18C117.76 73.18 119.886 70.9558 119.886 68.2121C119.886 65.4684 117.76 63.2441 115.138 63.2441C112.515 63.2441 110.389 65.4684 110.389 68.2121C110.389 70.9558 112.515 73.18 115.138 73.18Z" fill="#FAD201"/>
<path d="M126.103 64.9001C125.894 64.9001 125.692 64.9874 125.544 65.1427C125.395 65.2979 125.312 65.5085 125.312 65.7281C125.312 65.9477 125.395 66.1583 125.544 66.3136C125.692 66.4689 125.894 66.5561 126.103 66.5561H163.41C163.619 66.5556 163.82 66.4681 163.968 66.3129C164.116 66.1577 164.199 65.9474 164.199 65.7281C164.199 65.5089 164.116 65.2986 163.968 65.1434C163.82 64.9882 163.619 64.9007 163.41 64.9001H126.103Z" fill="#E6E6E6"/>
<path d="M126.103 69.868C125.999 69.8677 125.896 69.8888 125.8 69.9301C125.704 69.9714 125.616 70.0322 125.543 70.1089C125.469 70.1857 125.41 70.2769 125.37 70.3773C125.33 70.4778 125.31 70.5855 125.309 70.6943C125.309 70.8031 125.329 70.9109 125.369 71.0115C125.409 71.1121 125.467 71.2036 125.54 71.2807C125.614 71.3577 125.701 71.4189 125.797 71.4606C125.893 71.5024 125.996 71.5239 126.1 71.524H142.156C142.26 71.524 142.363 71.5026 142.459 71.461C142.555 71.4194 142.643 71.3584 142.716 71.2815C142.789 71.2046 142.848 71.1134 142.888 71.0129C142.927 70.9124 142.948 70.8048 142.948 70.696C142.948 70.5873 142.927 70.4796 142.888 70.3792C142.848 70.2787 142.789 70.1874 142.716 70.1106C142.643 70.0337 142.555 69.9727 142.459 69.9311C142.363 69.8895 142.26 69.868 142.156 69.868H126.103Z" fill="#E6E6E6"/>
<path d="M111.496 77.8104C110.894 77.8104 110.404 78.1819 110.404 78.6384C110.404 79.0949 110.894 79.4664 111.496 79.4664H162.967C163.569 79.4664 164.059 79.0949 164.059 78.6384C164.059 78.1819 163.569 77.8104 162.967 77.8104H111.496Z" fill="#E6E6E6"/>
<path d="M111.496 82.7783C110.894 82.7783 110.404 83.1498 110.404 83.6063C110.404 84.0628 110.894 84.4343 111.496 84.4343H151.119C151.721 84.4343 152.211 84.0628 152.211 83.6063C152.211 83.1498 151.721 82.7783 151.119 82.7783H111.496Z" fill="#E6E6E6"/>
<path d="M170.783 91.1841H103.806V56.4944H170.783V91.1841ZM105.141 89.7872H169.448V57.8913H105.141V89.7872Z" fill="#E6E6E6"/>
<path d="M134.051 41.7497C136.673 41.7497 138.799 39.5255 138.799 36.7818C138.799 34.0381 136.673 31.8138 134.051 31.8138C131.429 31.8138 129.303 34.0381 129.303 36.7818C129.303 39.5255 131.429 41.7497 134.051 41.7497Z" fill="#FAD201"/>
<path d="M145.017 33.4698C144.807 33.4698 144.606 33.5571 144.457 33.7124C144.309 33.8676 144.226 34.0782 144.226 34.2978C144.226 34.5174 144.309 34.728 144.457 34.8833C144.606 35.0386 144.807 35.1258 145.017 35.1258H182.324C182.533 35.1253 182.734 35.0378 182.882 34.8826C183.03 34.7274 183.113 34.5171 183.113 34.2978C183.113 34.0786 183.03 33.8683 182.882 33.7131C182.734 33.5579 182.533 33.4704 182.324 33.4698H145.017Z" fill="#E6E6E6"/>
<path d="M145.017 38.4377C144.913 38.4374 144.81 38.4585 144.714 38.4998C144.618 38.5411 144.53 38.6019 144.456 38.6787C144.383 38.7554 144.324 38.8466 144.284 38.947C144.244 39.0475 144.223 39.1552 144.223 39.264C144.223 39.3728 144.243 39.4806 144.283 39.5812C144.322 39.6818 144.38 39.7733 144.454 39.8504C144.527 39.9274 144.615 39.9886 144.711 40.0303C144.807 40.0721 144.91 40.0936 145.014 40.0937H174.369C174.579 40.0937 174.78 40.0065 174.929 39.8512C175.077 39.6959 175.16 39.4853 175.16 39.2657C175.16 39.0461 175.077 38.8355 174.929 38.6803C174.78 38.525 174.579 38.4377 174.369 38.4377H145.017Z" fill="#E6E6E6"/>
<path d="M189.696 48.8114H122.72V25.0641H189.696V48.8114ZM124.055 47.4145H188.361V26.461H124.055V47.4145Z" fill="#E6E6E6"/>
<path d="M209.797 142.634H0.139648V142.082H209.892L209.797 142.634Z" fill="#CACACA"/>
<path d="M112.311 103.183L46.596 116.721L42.2113 93.4211L107.926 79.8829L112.311 103.183Z" fill="white"/>
<path d="M56.4095 107.502C58.9824 106.972 60.6575 104.36 60.1509 101.668C59.6443 98.9758 57.1479 97.2232 54.5749 97.7533C52.002 98.2833 50.327 100.895 50.8336 103.587C51.3402 106.279 53.8366 108.032 56.4095 107.502Z" fill="#FAD201"/>
<path d="M65.641 97.1619C65.435 97.2044 65.2536 97.3306 65.1367 97.513C65.0198 97.6953 64.9768 97.9188 65.0174 98.1343C65.0579 98.3497 65.1786 98.5395 65.3529 98.6619C65.5272 98.7842 65.7408 98.8291 65.9467 98.7867L102.55 91.2458C102.756 91.2029 102.937 91.0765 103.053 90.8943C103.17 90.7121 103.213 90.489 103.172 90.2739C103.132 90.0588 103.011 89.8692 102.837 89.7468C102.664 89.6245 102.45 89.5792 102.245 89.621L65.641 97.1619Z" fill="#E6E6E6"/>
<path d="M66.5582 102.036C66.3524 102.078 66.171 102.204 66.0538 102.386C65.9367 102.568 65.8934 102.791 65.9335 103.007C65.9736 103.222 66.0938 103.412 66.2676 103.535C66.4415 103.658 66.6548 103.703 66.8607 103.662L66.864 103.661L95.663 97.7278C95.8689 97.6854 96.0503 97.5591 96.1672 97.3768C96.2841 97.1944 96.3271 96.971 96.2865 96.7555C96.2664 96.6488 96.2265 96.5473 96.1689 96.4568C96.1113 96.3663 96.0373 96.2885 95.951 96.2279C95.7767 96.1055 95.5631 96.0606 95.3572 96.1031L66.5582 102.036Z" fill="#E6E6E6"/>
<path d="M112.311 103.183L46.596 116.721L42.2113 93.4211L107.926 79.8829L112.311 103.183ZM47.648 115.081L110.743 102.082L106.874 81.5234L43.7792 94.5219L47.648 115.081Z" fill="#E6E6E6"/>
<path d="M215.108 65.7685C215.302 65.7607 215.495 65.7952 215.676 65.8697C215.847 65.9416 216.003 66.0497 216.132 66.1872C216.262 66.3257 216.364 66.4906 216.43 66.6717C216.501 66.8638 216.533 67.0689 216.525 67.2744C216.517 67.4852 216.47 67.6924 216.387 67.8846C216.305 68.073 216.192 68.2445 216.052 68.3906C215.913 68.5359 215.75 68.6535 215.571 68.7377C215.389 68.8231 215.193 68.8701 214.993 68.8758C214.799 68.8819 214.606 68.8456 214.426 68.7693C214.255 68.6964 214.101 68.5874 213.973 68.4493C213.844 68.3104 213.743 68.1454 213.678 67.9645C213.608 67.7732 213.577 67.5691 213.586 67.3647C213.594 67.1549 213.641 66.9487 213.723 66.7575C213.804 66.5709 213.917 66.401 214.055 66.2561C214.193 66.111 214.355 65.9933 214.533 65.9087C214.714 65.8229 214.909 65.7753 215.108 65.7685Z" fill="#E3C138"/>
</g>
<defs>
<clipPath id="clip0_1_121">
<rect width="219" height="142" fill="white" transform="translate(0.139648 0.633545)"/>
</clipPath>
</defs>
</svg>
