<svg width="220" height="143" viewBox="0 0 220 143" fill="none" xmlns="http://www.w3.org/2000/svg">
<g clip-path="url(#clip0_1011_672)">
<path d="M190.441 112.178C190.393 112.113 190.344 112.048 190.296 111.983C190.248 111.918 190.2 111.853 190.153 111.788C190.105 111.722 190.058 111.657 190.011 111.591C189.964 111.526 189.917 111.46 189.87 111.393C189.792 109.49 189.791 107.604 189.867 105.735C189.941 103.879 190.091 102.045 190.317 100.234C190.54 98.4363 190.836 96.6662 191.204 94.9239C191.57 93.1949 192.005 91.4986 192.51 89.8349C192.568 89.6431 192.627 89.4521 192.686 89.2618C192.746 89.0715 192.807 88.8824 192.869 88.6946C192.93 88.5059 192.993 88.3181 193.057 88.1311C193.121 87.9441 193.185 87.7578 193.251 87.5721C193.738 86.1829 194.274 84.8277 194.859 83.5066C195.439 82.1946 196.067 80.9189 196.741 79.6795C197.409 78.4487 198.122 77.2559 198.879 76.1011C199.631 74.9548 200.425 73.8486 201.26 72.7825L201.392 72.6152L201.524 72.4489L201.656 72.2834L201.789 72.1189L201.885 72.0008L201.982 71.8831C202.014 71.844 202.047 71.8051 202.079 71.7663C202.112 71.7275 202.145 71.6892 202.179 71.6513L202.258 71.6058L202.337 71.5608L202.416 71.5158L202.494 71.471L202.499 71.4693L202.504 71.4669L202.509 71.4644L202.514 71.4625L202.545 71.4444L202.576 71.4262L202.607 71.4079L202.637 71.3896L202.773 71.3131L202.909 71.2377L203.045 71.1625L203.18 71.0866L203.077 71.0326L202.819 70.8981L202.82 70.897C202.843 70.9069 202.865 70.9174 202.886 70.9284C202.908 70.9394 202.93 70.9501 202.952 70.9603C202.975 70.9712 202.996 70.982 203.018 70.9927C203.04 71.0035 203.061 71.0145 203.083 71.0258L203.108 71.0369L203.134 71.0483L203.159 71.0597C203.168 71.0633 203.176 71.0675 203.184 71.0724C203.191 71.0764 203.199 71.0798 203.206 71.0824L203.228 71.0923L203.251 71.1023L203.273 71.1122C204.214 71.5637 205.158 72.022 206.09 72.5027C207.022 72.9833 207.939 73.4842 208.832 74.0233C209.722 74.5583 210.585 75.1419 211.416 75.7716C212.246 76.3982 213.031 77.0867 213.765 77.8319C214.54 78.624 215.233 79.4994 215.833 80.4433C216.426 81.3707 216.914 82.3674 217.287 83.4131C217.645 84.4085 217.859 85.4545 217.92 86.5163C217.98 87.5375 217.842 88.5608 217.517 89.5255C217.473 89.6513 217.425 89.7753 217.374 89.8976C217.323 90.0199 217.269 90.1403 217.211 90.2588C217.153 90.3774 217.092 90.4938 217.028 90.6082C216.963 90.7226 216.895 90.8349 216.824 90.9451C216.795 90.9911 216.764 91.0366 216.734 91.0817C216.703 91.1268 216.671 91.1715 216.64 91.2159C216.608 91.2602 216.576 91.3043 216.543 91.3483C216.511 91.3923 216.478 91.4359 216.445 91.4792C215.828 92.2902 215.045 92.9451 214.152 93.3951C213.255 93.8436 212.28 94.0966 211.287 94.1386C210.243 94.1842 209.2 94.0258 208.211 93.6715C207.151 93.2928 206.166 92.7146 205.304 91.9653C205.006 91.7077 204.724 91.4312 204.459 91.1371C204.196 90.8457 203.951 90.5375 203.725 90.2143C203.501 89.8939 203.297 89.559 203.113 89.2117C202.93 88.8669 202.77 88.5101 202.631 88.1435C202.566 89.2822 202.735 90.4221 203.127 91.4868C203.54 92.6059 204.101 93.6588 204.794 94.6143C205.527 95.6317 206.339 96.5831 207.223 97.4585C208.114 98.3516 209.059 99.1888 209.993 99.9598C210.927 100.731 211.894 101.519 212.83 102.342C213.765 103.15 214.656 104.014 215.497 104.929C216.312 105.813 217.034 106.787 217.648 107.834C218.252 108.867 218.689 109.998 218.94 111.18C219.209 112.468 219.196 113.803 218.9 115.084C218.757 115.708 218.552 116.314 218.29 116.894C218.025 117.478 217.708 118.035 217.343 118.556L217.309 118.604L217.275 118.652L217.24 118.699L217.205 118.746C216.314 119.964 215.195 120.98 213.918 121.732C213.274 122.11 212.596 122.42 211.894 122.657C211.175 122.899 210.435 123.066 209.684 123.154C208.256 123.292 206.816 123.206 205.413 122.899C203.967 122.582 202.562 122.09 201.226 121.433C199.844 120.756 198.523 119.951 197.279 119.026C196.024 118.097 194.836 117.073 193.724 115.962C193.429 115.667 193.139 115.367 192.854 115.062C192.569 114.756 192.29 114.446 192.016 114.13C191.742 113.815 191.474 113.494 191.211 113.169C190.949 112.844 190.693 112.513 190.441 112.178Z" fill="#736F4E"/>
<path d="M213.401 90.1304C212.518 89.6511 211.67 89.1062 210.862 88.5C209.248 87.2894 207.805 85.8455 206.579 84.2114C205.97 83.4006 205.419 82.5444 204.93 81.6497C204.522 80.8938 204.159 80.1119 203.845 79.3084C203.538 78.5245 203.28 77.7206 203.072 76.9018C202.869 76.102 202.718 75.2888 202.62 74.4678C202.523 73.6636 202.481 72.8533 202.493 72.0429C202.494 71.9972 202.495 71.9518 202.496 71.9067C202.497 71.8616 202.498 71.8162 202.499 71.7705C202.5 71.7248 202.502 71.6797 202.504 71.6352L202.511 71.5005C202.473 71.5311 202.437 71.562 202.4 71.5932L202.289 71.6871L202.179 71.7819L202.07 71.8768L201.999 71.9378L201.929 71.9992L201.859 72.0611L201.789 72.123L201.885 72.0051L201.983 71.8835C202.016 71.8444 202.048 71.8055 202.081 71.7667C202.113 71.728 202.147 71.6896 202.18 71.6517L202.26 71.6062L202.339 71.5612L202.415 71.5163L202.494 71.4715L202.499 71.4699L202.504 71.4674L202.508 71.4649L202.513 71.463L202.545 71.445L202.576 71.4268L202.607 71.4086L202.637 71.3902L202.773 71.3137L202.909 71.2383L203.045 71.1631L203.181 71.0877L203.075 71.0325L202.816 70.8977L202.818 70.8966C202.84 70.9065 202.862 70.917 202.884 70.9281C202.906 70.9391 202.928 70.9497 202.95 70.96C202.972 70.9708 202.994 70.9816 203.016 70.9924C203.037 71.0031 203.059 71.0141 203.081 71.0254L203.106 71.0366L203.131 71.0479L203.157 71.0593C203.165 71.0628 203.174 71.0671 203.181 71.072L203.179 71.1149L203.176 71.1551L203.174 71.1952L203.172 71.2358C203.077 72.6008 203.144 73.973 203.374 75.3204C203.61 76.7074 203.998 78.0614 204.53 79.3558C205.079 80.6956 205.766 81.969 206.578 83.1537C207.417 84.3792 208.378 85.5079 209.445 86.5205C210.519 87.5257 211.691 88.4104 212.942 89.1604C213.559 89.5306 214.195 89.8663 214.846 90.1661C215.492 90.4628 216.153 90.7226 216.826 90.9444C216.796 90.9904 216.766 91.0359 216.735 91.081C216.704 91.1261 216.673 91.1708 216.642 91.2152C216.61 91.2595 216.578 91.3036 216.545 91.3476C216.513 91.3916 216.48 91.4352 216.447 91.4785C216.187 91.3885 215.929 91.2928 215.672 91.1914C215.415 91.09 215.16 90.9831 214.906 90.8705C214.652 90.758 214.399 90.6399 214.148 90.5163C213.898 90.3927 213.649 90.264 213.401 90.1304Z" fill="white"/>
<path d="M195.931 100.332C195.642 99.8809 195.369 99.4211 195.113 98.953C194.856 98.4849 194.616 98.0102 194.393 97.5288C194.17 97.0475 193.965 96.5601 193.776 96.0666C193.587 95.5732 193.416 95.0754 193.263 94.5733C193.184 94.307 193.112 94.0398 193.046 93.7716C192.98 93.5034 192.92 93.2348 192.866 92.9658C192.812 92.6967 192.765 92.4271 192.723 92.1568C192.682 91.8866 192.646 91.6166 192.618 91.3468C192.603 91.2211 192.59 91.0951 192.579 90.9689C192.567 90.8426 192.557 90.7165 192.548 90.5905C192.539 90.4644 192.531 90.3384 192.525 90.2125C192.519 90.0866 192.514 89.9609 192.51 89.8354C192.567 89.6437 192.626 89.4526 192.686 89.2623C192.745 89.072 192.806 88.8825 192.868 88.6938C192.929 88.5051 192.992 88.3173 193.056 88.1303C193.119 87.9433 193.184 87.7569 193.25 87.5713C193.236 87.7268 193.224 87.8827 193.213 88.039C193.203 88.1953 193.195 88.3521 193.189 88.5093C193.183 88.6666 193.179 88.8242 193.177 88.9822C193.176 89.1403 193.176 89.2986 193.178 89.4572C193.178 89.5437 193.179 89.6301 193.18 89.7165C193.182 89.8029 193.184 89.8894 193.187 89.9759C193.19 90.0623 193.194 90.1488 193.198 90.2352C193.202 90.3217 193.207 90.4082 193.213 90.4946C193.276 91.4647 193.422 92.427 193.647 93.3703C193.876 94.3249 194.174 95.2599 194.539 96.1669C194.911 97.0913 195.34 97.9895 195.824 98.8557C196.315 99.7371 196.853 100.59 197.434 101.409C198.059 102.294 198.72 103.156 199.417 103.994C200.113 104.832 200.837 105.647 201.586 106.44C202.336 107.231 203.109 107.998 203.903 108.741C204.697 109.484 205.505 110.201 206.326 110.892C207.166 111.602 208.024 112.284 208.898 112.94C209.773 113.596 210.662 114.223 211.565 114.821C212.467 115.419 213.384 115.989 214.313 116.528C215.243 117.068 216.184 117.577 217.134 118.055C217.178 118.078 217.217 118.108 217.251 118.145C217.283 118.182 217.309 118.224 217.328 118.269C217.347 118.314 217.358 118.362 217.361 118.411C217.364 118.461 217.358 118.51 217.343 118.557C217.338 118.578 217.331 118.597 217.323 118.616C217.314 118.635 217.304 118.652 217.292 118.668C217.281 118.684 217.267 118.699 217.253 118.712C217.238 118.725 217.222 118.736 217.205 118.746C217.187 118.754 217.169 118.761 217.149 118.764C217.13 118.768 217.11 118.769 217.091 118.767C217.071 118.766 217.051 118.762 217.032 118.756C217.012 118.75 216.993 118.741 216.975 118.73C216.857 118.671 216.74 118.612 216.623 118.553C216.505 118.493 216.388 118.434 216.271 118.373C216.154 118.313 216.037 118.252 215.921 118.191C215.804 118.13 215.688 118.068 215.571 118.005C214.602 117.484 213.646 116.932 212.702 116.348C211.759 115.765 210.83 115.151 209.915 114.507C209.001 113.863 208.102 113.19 207.221 112.488C206.339 111.786 205.476 111.057 204.632 110.299C203.816 109.569 203.011 108.815 202.225 108.036C201.439 107.256 200.673 106.451 199.935 105.621C199.198 104.79 198.489 103.934 197.818 103.053C197.147 102.171 196.516 101.265 195.931 100.332Z" fill="white"/>
<path d="M214.189 27.8714L213.494 27.9658L218.149 9.68731C218.492 8.46678 218.548 7.17759 218.312 5.92961C218.107 4.90991 217.6 3.98357 216.864 3.28204C216.093 2.58062 215.148 2.12167 214.138 1.95814C212.908 1.75884 211.652 1.81766 210.444 2.13118L178.81 9.66884C177.706 9.94912 176.649 10.404 175.676 11.0178C174.618 11.6762 173.634 12.4569 172.743 13.3453C171.825 14.2512 171.002 15.2559 170.286 16.3425C169.587 17.3943 169.017 18.534 168.59 19.7346L135.491 114.986C134.941 116.552 134.584 118.185 134.427 119.846C134.283 121.32 134.351 122.809 134.63 124.262C134.863 125.524 135.35 126.721 136.059 127.771C136.709 128.727 137.624 129.449 138.68 129.84L172.103 141.879C173.588 142.408 175.182 142.507 176.716 142.166C178.356 141.793 179.899 141.049 181.237 139.988C182.739 138.808 184.03 137.359 185.053 135.71C186.185 133.897 187.031 131.906 187.558 129.812L209.966 41.8196L210.669 41.7607L214.189 27.8714Z" fill="#3F3D56"/>
<path d="M211.771 26.8594L211.076 26.9538L215.731 8.67534C216.074 7.45482 216.13 6.16563 215.894 4.91765C215.689 3.89794 215.183 2.97161 214.446 2.27008C213.675 1.56866 212.73 1.1097 211.72 0.946176C210.49 0.746876 209.234 0.805698 208.026 1.11922L176.392 8.65688C175.288 8.93716 174.232 9.39205 173.259 10.0058C172.2 10.6642 171.216 11.445 170.325 12.3334C169.407 13.2393 168.584 14.2439 167.868 15.3306C167.169 16.3824 166.599 17.522 166.172 18.7227L133.073 113.974C132.523 115.54 132.166 117.173 132.009 118.834C131.865 120.308 131.933 121.797 132.212 123.25C132.445 124.512 132.932 125.709 133.641 126.759C134.291 127.715 135.206 128.437 136.262 128.828L169.685 140.867C171.17 141.396 172.764 141.495 174.298 141.155C175.938 140.781 177.481 140.037 178.819 138.977C180.321 137.796 181.612 136.347 182.635 134.698C183.767 132.885 184.613 130.894 185.14 128.8L207.548 40.8076L208.251 40.7487L211.771 26.8594Z" fill="#3F3D56"/>
<path d="M207.747 3.50418L203.097 4.57004C203.147 4.99098 203.107 5.41849 202.979 5.82109C202.835 6.292 202.624 6.73813 202.356 7.14525C201.751 8.0695 200.944 8.82924 200.002 9.36121C199.889 9.42395 199.777 9.48188 199.665 9.53501C199.553 9.58814 199.441 9.63638 199.329 9.67973C199.217 9.72307 199.106 9.76136 198.996 9.79458C198.886 9.82781 198.777 9.85581 198.67 9.87858L180.489 13.7304C180.152 13.8124 179.801 13.8082 179.465 13.7182C179.195 13.6424 178.957 13.4745 178.788 13.2411C178.618 12.9905 178.522 12.6932 178.512 12.386C178.498 11.9942 178.557 11.6032 178.686 11.2351C178.719 11.1358 178.755 11.0358 178.797 10.9351C178.838 10.8344 178.883 10.7337 178.932 10.633C178.98 10.5318 179.033 10.4311 179.09 10.3309C179.147 10.2307 179.208 10.1306 179.271 10.0306L175.829 10.8197C174.999 11.0231 174.205 11.3594 173.474 11.8165C172.676 12.3088 171.933 12.8944 171.261 13.5621C170.567 14.2443 169.946 15.0018 169.406 15.8219C168.88 16.6143 168.452 17.4735 168.133 18.3789L135.097 114.458C134.686 115.639 134.422 116.87 134.312 118.121C134.21 119.225 134.27 120.339 134.49 121.425C134.673 122.363 135.047 123.249 135.587 124.022C136.082 124.724 136.771 125.248 137.562 125.524L171.231 136.969C172.342 137.341 173.527 137.397 174.666 137.13C175.878 136.839 177.017 136.28 178.005 135.491C179.11 134.615 180.062 133.545 180.818 132.328C181.654 130.992 182.281 129.525 182.676 127.982L213.439 9.20688C213.697 8.30021 213.745 7.34221 213.579 6.41233C213.434 5.6503 213.066 4.9545 212.525 4.42204C211.958 3.88969 211.259 3.53687 210.508 3.40475C209.59 3.24357 208.651 3.27739 207.747 3.50418Z" fill="white"/>
<path d="M189.69 49.0084H122.713V25.2611H189.69V49.0084Z" fill="white"/>
<path d="M170.108 57.3899H104.467V90.6827H170.108V57.3899Z" fill="white"/>
<path d="M115.131 73.3771C117.753 73.3771 119.879 71.1528 119.879 68.4091C119.879 65.6654 117.753 63.4412 115.131 63.4412C112.509 63.4412 110.383 65.6654 110.383 68.4091C110.383 71.1528 112.509 73.3771 115.131 73.3771Z" fill="#FAD201"/>
<path d="M126.096 65.0972C125.886 65.0972 125.685 65.1844 125.536 65.3397C125.388 65.495 125.305 65.7056 125.305 65.9252C125.305 66.1448 125.388 66.3554 125.536 66.5106C125.685 66.6659 125.886 66.7532 126.096 66.7532H163.403C163.612 66.7526 163.813 66.6651 163.961 66.5099C164.109 66.3547 164.192 66.1444 164.192 65.9252C164.192 65.7059 164.109 65.4956 163.961 65.3404C163.813 65.1852 163.612 65.0977 163.403 65.0972H126.096Z" fill="#E6E6E6"/>
<path d="M126.097 70.0651C125.993 70.0647 125.89 70.0858 125.793 70.1271C125.697 70.1685 125.61 70.2292 125.536 70.306C125.462 70.3827 125.404 70.4739 125.364 70.5743C125.324 70.6748 125.303 70.7825 125.303 70.8913C125.303 71.0001 125.323 71.1079 125.362 71.2085C125.402 71.3092 125.46 71.4006 125.534 71.4777C125.607 71.5547 125.694 71.6159 125.79 71.6577C125.886 71.6994 125.989 71.721 126.093 71.721H142.15C142.254 71.721 142.357 71.6996 142.453 71.658C142.549 71.6164 142.636 71.5554 142.709 71.4785C142.783 71.4017 142.841 71.3104 142.881 71.2099C142.921 71.1095 142.941 71.0018 142.941 70.8931C142.941 70.7843 142.921 70.6767 142.881 70.5762C142.841 70.4757 142.783 70.3845 142.709 70.3076C142.636 70.2307 142.549 70.1697 142.453 70.1281C142.357 70.0865 142.254 70.0651 142.15 70.0651H126.097Z" fill="#E6E6E6"/>
<path d="M111.488 78.0074C110.886 78.0074 110.396 78.3789 110.396 78.8354C110.396 79.292 110.886 79.6634 111.488 79.6634H162.96C163.562 79.6634 164.052 79.2919 164.052 78.8354C164.052 78.3789 163.562 78.0074 162.96 78.0074H111.488Z" fill="#E6E6E6"/>
<path d="M111.488 82.9753C110.886 82.9753 110.396 83.3468 110.396 83.8033C110.396 84.2598 110.886 84.6313 111.488 84.6313H151.112C151.714 84.6313 152.204 84.2598 152.204 83.8033C152.204 83.3468 151.714 82.9753 151.112 82.9753H111.488Z" fill="#E6E6E6"/>
<path d="M170.775 91.3811H103.799V56.6914H170.775V91.3811ZM105.134 89.9842H169.44V58.0883H105.134V89.9842Z" fill="#E6E6E6"/>
<path d="M134.045 41.9468C136.667 41.9468 138.793 39.7225 138.793 36.9788C138.793 34.2351 136.667 32.0109 134.045 32.0109C131.423 32.0109 129.297 34.2351 129.297 36.9788C129.297 39.7225 131.423 41.9468 134.045 41.9468Z" fill="#FAD201"/>
<path d="M145.01 33.6669C144.8 33.6669 144.599 33.7541 144.451 33.9094C144.302 34.0647 144.219 34.2753 144.219 34.4949C144.219 34.7145 144.302 34.9251 144.451 35.0803C144.599 35.2356 144.8 35.3229 145.01 35.3229H182.317C182.526 35.3223 182.727 35.2348 182.875 35.0796C183.023 34.9244 183.106 34.7141 183.106 34.4949C183.106 34.2756 183.023 34.0653 182.875 33.9101C182.727 33.7549 182.526 33.6674 182.317 33.6669H145.01Z" fill="#E6E6E6"/>
<path d="M145.011 38.6348C144.907 38.6344 144.804 38.6555 144.708 38.6968C144.611 38.7382 144.524 38.7989 144.45 38.8757C144.376 38.9524 144.318 39.0436 144.278 39.144C144.238 39.2445 144.217 39.3522 144.217 39.461C144.217 39.5698 144.237 39.6776 144.276 39.7783C144.316 39.8789 144.374 39.9703 144.448 40.0474C144.521 40.1244 144.608 40.1856 144.704 40.2274C144.801 40.2691 144.903 40.2907 145.007 40.2908H174.363C174.573 40.2908 174.774 40.2035 174.922 40.0482C175.071 39.893 175.154 39.6824 175.154 39.4628C175.154 39.2432 175.071 39.0326 174.922 38.8773C174.774 38.722 174.573 38.6348 174.363 38.6348H145.011Z" fill="#E6E6E6"/>
<path d="M189.69 49.0084H122.713V25.2611H189.69V49.0084ZM124.048 47.6115H188.354V26.658H124.048V47.6115Z" fill="#E6E6E6"/>
<path d="M209.79 142.831H0.132812V142.279H209.886L209.79 142.831Z" fill="#CACACA"/>
<path d="M112.304 103.38L46.5891 116.918L42.2044 93.6182L107.919 80.0799L112.304 103.38Z" fill="white"/>
<path d="M56.4034 107.699C58.9763 107.169 60.6514 104.557 60.1448 101.865C59.6382 99.1728 57.1417 97.4202 54.5688 97.9503C51.9959 98.4803 50.3208 101.092 50.8274 103.784C51.334 106.476 53.8305 108.229 56.4034 107.699Z" fill="#FAD201"/>
<path d="M65.6349 97.359C65.4289 97.4014 65.2475 97.5277 65.1306 97.71C65.0137 97.8924 64.9707 98.1158 65.0113 98.3313C65.0518 98.5468 65.1725 98.7366 65.3468 98.8589C65.5211 98.9813 65.7347 99.0262 65.9406 98.9837L102.544 91.4428C102.75 91.3999 102.931 91.2735 103.047 91.0913C103.164 90.9091 103.206 90.686 103.166 90.4709C103.125 90.2558 103.005 90.0662 102.831 89.9439C102.657 89.8215 102.444 89.7762 102.239 89.818L65.6349 97.359Z" fill="#E6E6E6"/>
<path d="M66.5515 102.233C66.3456 102.275 66.1642 102.401 66.0471 102.583C65.93 102.765 65.8867 102.989 65.9268 103.204C65.9668 103.419 66.087 103.609 66.2609 103.732C66.4347 103.855 66.648 103.9 66.8539 103.859L66.8572 103.858L95.6562 97.9249C95.8621 97.8824 96.0435 97.7562 96.1605 97.5738C96.2774 97.3915 96.3203 97.168 96.2798 96.9525C96.2597 96.8458 96.2197 96.7443 96.1622 96.6538C96.1046 96.5633 96.0305 96.4855 95.9442 96.4249C95.77 96.3026 95.5564 96.2577 95.3504 96.3001L66.5515 102.233Z" fill="#E6E6E6"/>
<path d="M112.304 103.38L46.5891 116.918L42.2044 93.6182L107.919 80.0799L112.304 103.38ZM47.6411 115.278L110.736 102.279L106.867 81.7204L43.7722 94.7189L47.6411 115.278Z" fill="#E6E6E6"/>
<path d="M215.102 65.9656C215.296 65.9577 215.489 65.9922 215.67 66.0668C215.841 66.1386 215.996 66.2467 216.126 66.3843C216.256 66.5227 216.358 66.6876 216.424 66.8688C216.495 67.0608 216.527 67.2659 216.519 67.4714C216.511 67.6822 216.464 67.8895 216.381 68.0816C216.299 68.2701 216.186 68.4415 216.046 68.5876C215.907 68.7329 215.744 68.8506 215.565 68.9347C215.383 69.0201 215.186 69.0671 214.987 69.0728C214.793 69.0789 214.6 69.0427 214.42 68.9663C214.249 68.8934 214.095 68.7844 213.966 68.6463C213.838 68.5074 213.737 68.3425 213.671 68.1615C213.602 67.9702 213.571 67.7661 213.58 67.5617C213.588 67.3519 213.634 67.1457 213.717 66.9545C213.798 66.7679 213.91 66.5981 214.049 66.4531C214.187 66.308 214.349 66.1903 214.527 66.1057C214.708 66.0199 214.903 65.9723 215.102 65.9656Z" fill="#E3C138"/>
</g>
<defs>
<clipPath id="clip0_1011_672">
<rect width="219" height="142" fill="white" transform="translate(0.132812 0.830566)"/>
</clipPath>
</defs>
</svg>
