<svg width="33" height="42" viewBox="0 0 33 42" fill="none" xmlns="http://www.w3.org/2000/svg">
<path d="M24.8535 0.692875H8.85352C7.80266 0.691914 6.76192 0.889594 5.79087 1.2746C4.81981 1.65961 3.9375 2.22438 3.19443 2.93661C2.45136 3.64883 1.86212 4.49451 1.46044 5.42525C1.05876 6.356 0.852517 7.35353 0.853519 8.36076V33.9204C0.852517 34.9276 1.05876 35.9252 1.46044 36.8559C1.86212 37.7867 2.45136 38.6323 3.19443 39.3446C3.9375 40.0568 4.81981 40.6216 5.79087 41.0066C6.76192 41.3916 7.80266 41.5892 8.85352 41.5883H24.8535C25.9044 41.5892 26.9451 41.3916 27.9162 41.0066C28.8872 40.6216 29.7695 40.0568 30.5126 39.3446C31.2557 38.6323 31.8449 37.7867 32.2466 36.8559C32.6483 35.9252 32.8545 34.9276 32.8535 33.9204V8.36076C32.8545 7.35353 32.6483 6.356 32.2466 5.42525C31.8449 4.49451 31.2557 3.64883 30.5126 2.93661C29.7695 2.22438 28.8872 1.65961 27.9162 1.2746C26.9451 0.889594 25.9044 0.691914 24.8535 0.692875ZM8.90685 7.49174C11.3384 5.85247 14.255 5.00512 17.2269 5.07453C20.167 5.12607 22.9962 6.15913 25.2268 7.99563C25.3077 8.06041 25.3736 8.14056 25.4205 8.23102C25.4674 8.32148 25.4942 8.42028 25.4992 8.52117C25.5042 8.62206 25.4873 8.72284 25.4496 8.81716C25.4119 8.91148 25.3542 8.99728 25.2802 9.06913C25.127 9.22455 24.9164 9.3163 24.6935 9.32473C24.5945 9.32964 24.4955 9.3139 24.4034 9.2786C24.3114 9.24329 24.2284 9.18927 24.1602 9.12025C22.2134 7.50989 19.7443 6.59628 17.1735 6.53508C14.5608 6.48159 11.9994 7.23426 9.86685 8.68209C9.70151 8.80452 9.49377 8.86208 9.28577 8.84309C9.07778 8.82411 8.88511 8.72999 8.74685 8.57985C8.63722 8.40898 8.59322 8.20681 8.62242 8.00818C8.65163 7.80955 8.75222 7.62691 8.90685 7.49174ZM6.40019 13.2171C7.64207 11.5229 9.30964 10.1563 11.2487 9.24363C13.1877 8.33096 15.3355 7.90172 17.4935 7.99563C23.5888 8.09787 27.5735 13.4654 28.0002 14.0788C28.066 14.1606 28.113 14.2548 28.138 14.3553C28.163 14.4557 28.1656 14.5601 28.1454 14.6616C28.1252 14.763 28.0829 14.8592 28.021 14.9438C27.9592 15.0284 27.8794 15.0995 27.7868 15.1523C27.6661 15.2471 27.5161 15.301 27.3602 15.3057C27.2281 15.3159 27.096 15.2871 26.9815 15.2232C26.8671 15.1592 26.7759 15.0631 26.7202 14.9478C26.5602 14.7434 22.9107 9.63144 17.4935 9.52921C15.5924 9.42325 13.6947 9.78657 11.9819 10.5844C10.2691 11.3822 8.79845 12.5879 7.71066 14.0861C7.58499 14.2425 7.40176 14.3469 7.19844 14.378C6.99512 14.4092 6.78706 14.3647 6.61679 14.2538C6.44652 14.1428 6.32691 13.9737 6.2824 13.781C6.23789 13.5883 6.27184 13.3866 6.37733 13.2171H6.40019ZM11.6268 25.179C12.1227 26.1147 12.8143 26.9425 13.6584 27.6109C14.5026 28.2793 15.4813 28.7739 16.5335 29.0641C17.8282 29.4644 19.2032 29.5666 20.5468 29.3623C21.8905 29.158 23.1649 28.653 24.2668 27.8883C24.4295 27.7595 24.6389 27.6979 24.8489 27.7171C25.059 27.7363 25.2525 27.8347 25.3868 27.9906C25.5212 28.1465 25.5855 28.3472 25.5655 28.5485C25.5455 28.7498 25.4428 28.9353 25.2802 29.0641C23.5295 30.3733 21.3591 31.0599 19.1392 31.0066C18.1051 30.9995 17.0779 30.8445 16.0916 30.5465C14.8272 30.2107 13.6509 29.6228 12.6399 28.8211C11.629 28.0195 10.806 27.0223 10.2249 25.8947C9.90495 25.2301 8.30495 21.6518 10.3316 18.0734C10.8244 17.2329 11.4546 16.4735 12.1983 15.8242C12.3539 15.6886 12.5593 15.6178 12.7693 15.6274C12.9794 15.637 13.1768 15.7262 13.3183 15.8753C13.4597 16.0244 13.5336 16.2213 13.5236 16.4226C13.5136 16.624 13.4205 16.8132 13.2649 16.9488C12.6696 17.5099 12.157 18.1463 11.7411 18.8402C9.99638 21.754 11.4668 24.8723 11.6268 25.179ZM18.3773 27.7131C15.0707 27.3552 13.044 25.5222 12.5107 22.3967C12.4147 21.754 12.455 21.0994 12.6291 20.472C12.8032 19.8446 13.1076 19.2573 13.524 18.7453C13.8656 18.2652 14.3074 17.8583 14.8215 17.5503C15.3356 17.2424 15.9108 17.04 16.5107 16.9561C17.0463 16.9137 17.5856 16.9482 18.1107 17.0583C20.0307 17.6207 21.2573 18.6942 21.4173 20.0233V20.0744C21.4707 20.6878 21.7373 22.6303 19.9773 22.9955C19.0707 23.2 18.3773 22.4332 17.844 21.8197C17.684 21.6664 17.524 21.4619 17.364 21.3085C17.226 21.7621 17.2448 22.2462 17.4173 22.6888C17.844 23.5067 19.3373 23.7112 20.404 23.419C20.968 23.2283 21.4663 22.8922 21.844 22.4478C22.168 21.9981 22.388 21.4872 22.4891 20.9494C22.5903 20.4116 22.5704 19.8593 22.4307 19.3295C22.0653 18.0787 21.2039 17.0146 20.0307 16.3646C19.0268 15.7588 17.8562 15.456 16.6707 15.4956C16.0256 15.5458 15.3943 15.7014 14.804 15.9556C14.612 16.0476 14.3898 16.0628 14.1862 15.9977C13.9826 15.9327 13.8143 15.7927 13.7183 15.6087C13.6223 15.4247 13.6065 15.2117 13.6744 15.0166C13.7422 14.8214 13.8882 14.6601 14.0802 14.5681C14.8662 14.2094 15.7176 14.0011 16.5869 13.9547C18.0991 13.8723 19.5979 14.2673 20.8535 15.0793C22.3782 15.9572 23.4874 17.3685 23.9468 19.0155C24.146 19.7613 24.1729 20.5399 24.0255 21.2967C23.8781 22.0535 23.56 22.7704 23.0935 23.3971C22.5334 24.099 21.7743 24.6314 20.9068 24.9307C19.2002 25.4419 16.8535 25.0329 16.0002 23.4702C15.787 23.0505 15.6674 22.5928 15.649 22.1263C15.6306 21.6598 15.7139 21.1948 15.8935 20.7608C15.9715 20.5343 16.1038 20.3284 16.2797 20.1598C16.4557 19.9911 16.6705 19.8643 16.9068 19.7896C17.8135 19.534 18.5068 20.2496 19.0402 20.8631C19.2438 21.1095 19.4764 21.3325 19.7335 21.5276C19.8935 21.4254 20.0002 21.1698 19.8935 20.3008V20.1985C19.7868 19.1761 18.2402 18.6649 17.7602 18.5627C17.4496 18.4695 17.1196 18.4519 16.8002 18.5116C16.0489 18.6671 15.3841 19.0832 14.9335 19.68C14.6446 20.021 14.4287 20.4132 14.2979 20.8343C14.1672 21.2553 14.1243 21.6968 14.1716 22.1338C14.2688 23.2174 14.7796 24.2286 15.6062 24.9738C16.4329 25.7189 17.5172 26.1456 18.6516 26.1722C21.2649 26.4278 24.5716 24.792 25.2116 22.8494C26.2249 19.7823 25.6916 17.9931 24.1983 15.6416C22.8649 13.4946 20.1449 12.2677 16.7316 12.2677H16.6783C14.6945 12.2579 12.7766 12.9495 11.2916 14.2103C9.54905 15.6868 8.42989 17.7231 8.14495 19.9356C7.69384 22.8823 8.43824 25.8826 10.2249 28.3192C10.3753 28.4975 10.4481 28.7246 10.4283 28.9531C10.4084 29.1816 10.2974 29.394 10.1183 29.546C9.91477 29.626 9.68942 29.6392 9.47724 29.5838C9.26507 29.5283 9.07794 29.4072 8.94495 29.2393C6.90236 26.4878 6.04296 23.0883 6.54495 19.7458C6.89667 17.1636 8.20227 14.7877 10.2249 13.0491C12.0205 11.5345 14.3399 10.7145 16.7316 10.7488C20.7316 10.7999 23.9849 12.2823 25.5849 14.8894C27.1849 17.4965 27.9468 19.7604 26.7583 23.3898C25.6535 26.2014 21.4249 28.0417 18.3773 27.7131ZM4.00018 22.9809C3.67147 21.8157 3.58092 20.6006 3.73352 19.4025C3.9037 18.0441 4.37661 16.7365 5.12019 15.5686C5.17313 15.4754 5.24532 15.3936 5.33234 15.328C5.41937 15.2624 5.51941 15.2146 5.62638 15.1873C5.73334 15.16 5.84498 15.1538 5.95449 15.1692C6.06401 15.1846 6.1691 15.2213 6.26337 15.2769C6.35764 15.3325 6.43911 15.4059 6.50281 15.4927C6.56651 15.5794 6.61111 15.6777 6.63389 15.7815C6.65667 15.8854 6.65716 15.9925 6.63532 16.0965C6.61347 16.2005 6.56977 16.2992 6.50685 16.3865C5.88141 17.3679 5.48142 18.4658 5.33352 19.607C5.22089 20.6093 5.2931 21.6228 5.54685 22.6011C5.57631 22.6986 5.58426 22.8008 5.5702 22.9014C5.55614 23.002 5.52037 23.0986 5.46517 23.1852C5.40997 23.2717 5.33656 23.3463 5.24962 23.4042C5.16267 23.4621 5.0641 23.502 4.96018 23.5213C4.90685 23.5213 4.80019 23.5724 4.74685 23.5724C4.57708 23.5507 4.41708 23.4838 4.28507 23.3792C4.15306 23.2746 4.05435 23.1366 4.00018 22.9809ZM11.2535 34.5338C11.1812 34.6313 11.085 34.7102 10.9734 34.7637C10.8618 34.8172 10.7382 34.8436 10.6135 34.8405C10.4411 34.8367 10.2739 34.7832 10.1335 34.6872C8.96702 33.8694 7.93907 32.8842 7.0859 31.7661C5.71934 29.94 4.85703 27.8121 4.57923 25.5807C4.56097 25.4781 4.56445 25.3731 4.58949 25.2718C4.61452 25.1706 4.66059 25.0753 4.72494 24.9915C4.78928 24.9077 4.87059 24.8372 4.964 24.7842C5.05741 24.7312 5.16101 24.6968 5.2686 24.6831C5.37618 24.6693 5.48556 24.6765 5.59019 24.7042C5.69482 24.7319 5.79256 24.7795 5.87756 24.8442C5.96256 24.9089 6.03309 24.9893 6.08492 25.0807C6.13675 25.1721 6.16883 25.2726 6.17923 25.3762C6.42494 27.3532 7.19624 29.2366 8.41923 30.8459C9.19744 31.8151 10.1129 32.6753 11.1392 33.4019C11.2879 33.551 11.3799 33.7437 11.4007 33.9489C11.4214 34.1542 11.3696 34.3602 11.2535 34.5338ZM24.1068 35.8118C22.2213 36.7465 20.1342 37.2466 18.0116 37.2724H17.2497C15.7987 37.17 14.3765 36.8316 13.044 36.2719C12.8419 36.1905 12.6818 36.0356 12.599 35.8411C12.5161 35.6466 12.5172 35.4286 12.6021 35.2349C12.687 35.0412 12.8486 34.8878 13.0515 34.8083C13.2544 34.7289 13.4819 34.73 13.684 34.8113C14.8436 35.2996 16.0744 35.6148 17.3335 35.7461C19.4435 35.8713 21.5495 35.4473 23.4288 34.5192C23.5223 34.4704 23.6254 34.4409 23.7315 34.4326C23.8377 34.4244 23.9444 34.4375 24.0449 34.4712C24.1455 34.5049 24.2375 34.5585 24.3151 34.6284C24.3926 34.6983 24.4541 34.783 24.4954 34.8771C24.568 35.0509 24.5682 35.2449 24.4959 35.4188C24.4236 35.5928 24.2843 35.7335 24.1068 35.8118ZM26.7583 31.9779C24.4108 33.3559 21.7237 34.1119 18.9716 34.1687C18.5443 34.1772 18.1168 34.1601 17.6916 34.1176C15.1907 33.8668 12.8141 32.9455 10.8345 31.4594C10.7504 31.399 10.6796 31.3233 10.6261 31.2366C10.5726 31.15 10.5374 31.0541 10.5225 30.9544C10.5077 30.8547 10.5134 30.7532 10.5395 30.6556C10.5656 30.5581 10.6114 30.4664 10.6745 30.3859C10.7375 30.3053 10.8165 30.2374 10.9069 30.1861C10.9973 30.1348 11.0973 30.1011 11.2013 30.0869C11.3053 30.0726 11.4112 30.0781 11.513 30.1031C11.6148 30.1281 11.7104 30.1721 11.7945 30.2325C13.5393 31.533 15.6247 32.3468 17.8211 32.584C20.6594 32.7764 23.4898 32.118 25.9202 30.6999C26.0077 30.6471 26.1053 30.6114 26.2072 30.5948C26.3091 30.5782 26.4135 30.581 26.5143 30.603C26.6151 30.6251 26.7104 30.6659 26.7948 30.7233C26.8791 30.7806 26.9509 30.8533 27.0059 30.9372C27.0609 31.0211 27.0982 31.1146 27.1155 31.2123C27.1328 31.31 27.1299 31.4101 27.1069 31.5067C27.084 31.6033 27.0413 31.6947 26.9815 31.7755C26.9217 31.8564 26.8458 31.9251 26.7583 31.9779ZM29.9735 21.8709C29.7723 23.5483 29.2093 25.1673 28.3202 26.6249C28.251 26.7444 28.1508 26.8448 28.0294 26.9164C27.9079 26.9881 27.7693 27.0285 27.6268 27.0339C27.4953 27.0313 27.3667 26.9961 27.2535 26.9317C27.1599 26.8872 27.0769 26.8249 27.0095 26.7484C26.9421 26.6719 26.8919 26.583 26.8619 26.4871C26.8319 26.3912 26.8227 26.2904 26.8351 26.191C26.8474 26.0916 26.8809 25.9957 26.9335 25.9093C27.7189 24.6445 28.2101 23.2321 28.3735 21.7686C28.5422 20.5227 28.4699 19.2577 28.1602 18.0369C28.1107 17.8432 28.1435 17.6386 28.2513 17.4681C28.3592 17.2976 28.5333 17.1752 28.7354 17.1277C28.9375 17.0803 29.1509 17.1117 29.3288 17.2151C29.5067 17.3185 29.6345 17.4854 29.684 17.6791C30.0487 19.0474 30.1468 20.4684 29.9735 21.8709Z" fill="#FAD201"/>
</svg>
