<svg width="30" height="31" viewBox="0 0 30 31" fill="none" xmlns="http://www.w3.org/2000/svg">
<path d="M9.05993 23.8534L9.96584 24.3816C11.4793 25.2641 13.1993 25.7354 14.9942 25.7354C20.517 25.7354 24.9942 21.2582 24.9942 15.7354C24.9942 10.2125 20.517 5.73535 14.9942 5.73535C9.47129 5.73535 4.99414 10.2125 4.99414 15.7354C4.99414 17.5307 5.46568 19.2514 6.34874 20.7651L6.87672 21.6701L6.05985 24.6721L9.05993 23.8534ZM2.49937 28.2354L4.18932 22.0247C3.11159 20.1774 2.49414 18.0285 2.49414 15.7354C2.49414 8.83179 8.09058 3.23535 14.9942 3.23535C21.8977 3.23535 27.4942 8.83179 27.4942 15.7354C27.4942 22.6389 21.8977 28.2354 14.9942 28.2354C12.7018 28.2354 10.5536 27.6184 8.70649 26.5412L2.49937 28.2354ZM10.4833 9.87077C10.6507 9.859 10.8186 9.8572 10.9862 9.86538C11.0539 9.86983 11.1212 9.87765 11.1887 9.88544C11.3877 9.90843 11.6066 10.0297 11.6802 10.1965C12.0531 11.0421 12.415 11.8924 12.7657 12.7474C12.843 12.9361 12.7964 13.1808 12.6492 13.4175C12.5744 13.5389 12.457 13.7091 12.321 13.8832C12.1797 14.0641 11.8754 14.3967 11.8754 14.3967C11.8754 14.3967 11.7521 14.5445 11.7986 14.7284C11.8167 14.7979 11.8744 14.8991 11.9268 14.9842C11.9558 15.0314 11.9827 15.0735 12.0001 15.1026C12.32 15.6367 12.75 16.1782 13.2753 16.6874C13.4258 16.8332 13.5718 16.9821 13.7288 17.1204C14.3142 17.6365 14.9764 18.0582 15.6917 18.3706L15.698 18.3735C15.8037 18.419 15.8579 18.4439 16.0125 18.5095C16.0905 18.5425 16.1703 18.571 16.2522 18.5926C16.2818 18.6004 16.3122 18.6047 16.3427 18.6069C16.5448 18.619 16.6617 18.4894 16.7115 18.4297C17.6159 17.3341 17.6987 17.2626 17.7049 17.2631V17.2651C17.8238 17.1399 18.0107 17.0964 18.1774 17.1066C18.2535 17.1112 18.3293 17.1259 18.3985 17.1575C19.0633 17.4607 20.1502 17.9337 20.1502 17.9337L20.877 18.2605C20.9988 18.3192 21.1099 18.4576 21.1153 18.5921C21.1185 18.6757 21.1275 18.8107 21.0977 19.0577C21.0585 19.3811 20.9602 19.7705 20.8624 19.9745C20.7937 20.1176 20.7047 20.2446 20.6012 20.3521C20.4608 20.4979 20.3565 20.5864 20.1878 20.7121C20.085 20.7886 20.0318 20.8246 20.0318 20.8246C19.8582 20.9341 19.7603 20.9889 19.5534 21.099C19.2317 21.2704 18.8762 21.3689 18.512 21.3876C18.2799 21.3995 18.0484 21.4162 17.8165 21.4037C17.8063 21.4031 17.1063 21.2956 17.1063 21.2956C15.3289 20.8281 13.6852 19.9524 12.3058 18.7379C12.0238 18.4896 11.7623 18.221 11.4953 17.9552C10.384 16.8489 9.54269 15.6559 9.03253 14.5274C8.78095 13.9709 8.62165 13.3749 8.61914 12.7616C8.61453 12.0029 8.8629 11.2644 9.32503 10.6627C9.41613 10.5441 9.50259 10.421 9.65178 10.2802C9.80977 10.131 9.91032 10.0509 10.0186 9.99549C10.163 9.92163 10.3216 9.88213 10.4833 9.87077Z" fill="#FAD201"/>
</svg>
