<svg width="30" height="31" viewBox="0 0 30 31" fill="none" xmlns="http://www.w3.org/2000/svg">
<path d="M9.06701 23.6563L9.97292 24.1846C11.4864 25.0671 13.2064 25.5383 15.0012 25.5383C20.5241 25.5383 25.0012 21.0612 25.0012 15.5383C25.0012 10.0155 20.5241 5.53833 15.0012 5.53833C9.47837 5.53833 5.00122 10.0155 5.00122 15.5383C5.00122 17.3337 5.47276 19.0543 6.35582 20.5681L6.8838 21.4731L6.06693 24.4751L9.06701 23.6563ZM2.50645 28.0383L4.1964 21.8277C3.11867 19.9803 2.50122 17.8315 2.50122 15.5383C2.50122 8.63477 8.09766 3.03833 15.0012 3.03833C21.9047 3.03833 27.5012 8.63477 27.5012 15.5383C27.5012 22.4418 21.9047 28.0383 15.0012 28.0383C12.7089 28.0383 10.5606 27.4213 8.71357 26.3442L2.50645 28.0383ZM10.4904 9.67374C10.6577 9.66198 10.8257 9.66018 10.9932 9.66836C11.0609 9.67281 11.1283 9.68063 11.1957 9.68842C11.3948 9.71141 11.6137 9.83264 11.6873 9.99951C12.0602 10.845 12.422 11.6954 12.7727 12.5504C12.8501 12.7391 12.8035 12.9837 12.6562 13.2205C12.5815 13.3418 12.4641 13.5121 12.3281 13.6862C12.1867 13.8671 11.8825 14.1997 11.8825 14.1997C11.8825 14.1997 11.7592 14.3475 11.8057 14.5313C11.8238 14.6008 11.8815 14.7021 11.9338 14.7872C11.9628 14.8343 11.9897 14.8765 12.0072 14.9056C12.3271 15.4397 12.7571 15.9812 13.2824 16.4903C13.4329 16.6362 13.5789 16.7851 13.7359 16.9233C14.3212 17.4395 14.9835 17.8612 15.6987 18.1736L15.7051 18.1765C15.8107 18.222 15.865 18.2468 16.0196 18.3125C16.0976 18.3455 16.1774 18.374 16.2592 18.3956C16.2889 18.4033 16.3192 18.4077 16.3497 18.4098C16.5519 18.422 16.6687 18.2923 16.7186 18.2327C17.623 17.1371 17.7057 17.0656 17.712 17.0661V17.0681C17.8309 16.9428 18.0177 16.8993 18.1845 16.9096C18.2606 16.9142 18.3364 16.9288 18.4056 16.9605C19.0704 17.2637 20.1572 17.7367 20.1572 17.7367L20.8841 18.0635C21.0059 18.1222 21.117 18.2606 21.1224 18.3951C21.1256 18.4787 21.1346 18.6137 21.1047 18.8607C21.0656 19.1841 20.9672 19.5735 20.8695 19.7775C20.8007 19.9206 20.7117 20.0476 20.6082 20.1551C20.4679 20.3008 20.3636 20.3893 20.1949 20.5151C20.0921 20.5916 20.0389 20.6276 20.0389 20.6276C19.8652 20.7371 19.7674 20.7918 19.5605 20.902C19.2387 21.0733 18.8832 21.1718 18.5191 21.1906C18.287 21.2025 18.0555 21.2192 17.8236 21.2067C17.8134 21.2061 17.1134 21.0986 17.1134 21.0986C15.336 20.6311 13.6922 19.7553 12.3129 18.5408C12.0309 18.2926 11.7694 18.024 11.5024 17.7582C10.3911 16.6518 9.54977 15.4588 9.03961 14.3303C8.78803 13.7738 8.62873 13.1778 8.62622 12.5646C8.62161 11.8059 8.86998 11.0673 9.33211 10.4657C9.42321 10.347 9.50967 10.224 9.65886 10.0832C9.81685 9.93397 9.9174 9.85388 10.0257 9.79847C10.1701 9.72461 10.3287 9.68511 10.4904 9.67374Z" fill="#FAD201"/>
</svg>
